<svg width="1920" height="1080" viewBox="0 0 1920 1080" fill="none" xmlns="http://www.w3.org/2000/svg">
<g clip-path="url(#clip0)">
<rect width="1920" height="1080" fill="white"/>
<rect width="1920" height="1080" fill="#D5DBD5"/>
<circle cx="960" cy="102" r="832" fill="#D5DBD5" stroke="#232323" stroke-opacity="0.05" stroke-width="1681.33" stroke-dasharray="24.27 24.27"/>
<g filter="url(#filter0_d)">
<circle cx="400" cy="447" r="213" fill="#3F8D1A"/>
</g>
<g filter="url(#filter1_d)">
<circle cx="1509.5" cy="469.5" r="211.5" fill="#232323"/>
</g>
<path d="M390 149C342 83 472 25.6667 508 -19L-18 -33L-34 1135C8 1085 94.4 974.2 104 931C116 877 122 869.272 122 803C122 695 254 715 254 573C254 520.198 290 527 298 511C306 495 256 375 362 375C392 375 368 315 372 283C376 251 410.845 177.662 390 149Z" fill="#232323"/>
<path d="M1724 171C1837.84 171 1896 -13 1972 -61V1135L1328 1167C1332 1143 1293.6 1143 1300 1111C1308 1071 1374.68 1005 1398 1005C1482 1005 1501.28 940.352 1520 905C1538 871 1556.05 751 1594 751C1658 751 1585.59 612.282 1616 573C1664 511 1697.71 404.908 1664 383C1623.28 356.533 1691.55 318.087 1710 271C1727.8 225.576 1694.54 171 1724 171Z" fill="#232323"/>
<mask id="mask0" mask-type="alpha" maskUnits="userSpaceOnUse" x="-34" y="-61" width="2006" height="1228">
<path d="M390 149C342 83 472 25.6667 508 -19L-18 -33L-34 1135C8 1085 94.4 974.2 104 931C116 877 122 869.272 122 803C122 695 254 715 254 573C254 520.198 290 527 298 511C306 495 256 375 362 375C392 375 368 315 372 283C376 251 410.845 177.662 390 149Z" fill="#232323"/>
<path d="M1724 171C1837.84 171 1896 -13 1972 -61V1135L1328 1167C1332 1143 1293.6 1143 1300 1111C1308 1071 1324.68 967 1348 967C1432 967 1472 843 1472 803C1472 755 1534.05 715 1572 715C1636 715 1585.59 612.282 1616 573C1664 511 1697.71 404.908 1664 383C1623.28 356.533 1691.55 318.087 1710 271C1727.8 225.576 1694.54 171 1724 171Z" fill="#232323"/>
</mask>
<g mask="url(#mask0)">
<circle cx="400" cy="447" r="213" fill="#D5DBD5"/>
</g>
<mask id="mask1" mask-type="alpha" maskUnits="userSpaceOnUse" x="-34" y="-61" width="2006" height="1228">
<path d="M390 149C342 83 472 25.6667 508 -19L-18 -33L-34 1135C8 1085 94.4 974.2 104 931C116 877 122 869.272 122 803C122 695 254 715 254 573C254 520.198 290 527 298 511C306 495 256 375 362 375C392 375 368 315 372 283C376 251 410.845 177.662 390 149Z" fill="#232323"/>
<path d="M1724 171C1837.84 171 1896 -13 1972 -61V1135L1328 1167C1332 1143 1293.6 1143 1300 1111C1308 1071 1374.68 1005 1398 1005C1482 1005 1501.28 940.352 1520 905C1538 871 1556.05 751 1594 751C1658 751 1585.59 612.282 1616 573C1664 511 1697.71 404.908 1664 383C1623.28 356.533 1691.55 318.087 1710 271C1727.8 225.576 1694.54 171 1724 171Z" fill="#232323"/>
</mask>
<g mask="url(#mask1)">
<circle cx="1509.5" cy="469.5" r="211.5" fill="#3F8D1A"/>
</g>
<g clip-path="url(#clip1)">
<path d="M506.296 444.2C497.149 443.414 489.624 436.867 487.382 428.211H467.499V480.581H504.32C506.446 468.827 507.132 456.479 506.296 444.2Z" fill="#232323"/>
<path d="M508.148 412.137C502.247 412.137 497.447 416.937 497.447 422.838C497.447 428.738 502.247 433.538 508.148 433.538C514.048 433.538 518.848 428.738 518.848 422.838C518.848 416.937 514.048 412.137 508.148 412.137Z" fill="#232323"/>
<path d="M415.587 502.467C424.512 502.467 431.748 495.232 431.748 486.307C431.748 477.382 424.512 470.146 415.587 470.146C406.662 470.146 399.427 477.382 399.427 486.307C399.427 495.232 406.662 502.467 415.587 502.467Z" fill="#232323"/>
<path d="M456.752 362.688C444.486 371.116 434.513 385.327 427.628 401.782C425.546 406.76 423.778 412.015 422.331 417.464H456.752V362.688Z" fill="#232323"/>
<path d="M417.696 459.49C429.623 460.42 439.388 469.153 441.876 480.581H456.751V428.211H419.94C418.111 438.329 417.34 448.907 417.696 459.49Z" fill="#232323"/>
<path d="M456.752 546.104V491.327H442.018C440.52 499.232 435.555 505.92 428.768 509.751C435.478 525.059 444.856 538.081 456.752 546.104Z" fill="#232323"/>
<path d="M467.499 546.104C480.357 537.279 490.657 522.273 497.565 504.687C499.25 500.396 500.707 495.928 501.931 491.327H467.499V546.104Z" fill="#232323"/>
<path d="M507.568 508.616C502.231 522.202 495.006 533.748 486.21 542.902C513.074 535.608 535.035 516.415 546.086 491.328H513.015C511.554 497.302 509.737 503.094 507.568 508.616Z" fill="#232323"/>
<path d="M415.587 513.214C402.467 513.214 391.516 503.772 389.157 491.327H378.164C389.172 516.317 411.006 535.46 437.728 542.817C429.929 534.727 423.494 524.788 418.484 513.056C417.532 513.158 416.566 513.214 415.587 513.214Z" fill="#232323"/>
<path d="M516.944 442.39C517.905 455.233 517.302 468.184 515.224 480.581H550.034C552.502 472.283 553.833 463.495 553.833 454.396C553.833 445.296 552.502 436.509 550.034 428.211H528.913C527.273 434.543 522.805 439.743 516.944 442.39Z" fill="#232323"/>
<path d="M406.988 460.817C406.554 449.825 407.26 438.809 409.037 428.211H374.217C371.749 436.509 370.417 445.296 370.417 454.396C370.417 463.495 371.749 472.283 374.217 480.581H389.299C391.317 471.312 398.123 463.816 406.988 460.817Z" fill="#232323"/>
<path d="M508.035 401.393C508.073 401.393 508.11 401.39 508.148 401.39C518.119 401.39 526.522 408.23 528.913 417.464H546.087C535.034 392.375 513.07 373.18 486.203 365.888C488.268 368.039 490.252 370.323 492.147 372.743C498.592 380.973 503.924 390.597 508.035 401.393Z" fill="#232323"/>
<path d="M467.499 362.688V417.464H487.382C488.853 411.782 492.604 407.011 497.594 404.178C492.29 390.637 483.106 373.353 467.499 362.688V362.688Z" fill="#232323"/>
<path d="M417.714 397.634C422.935 385.155 429.807 374.468 438.051 365.887C411.182 373.179 389.216 392.374 378.164 417.464H411.242C412.931 410.55 415.095 403.895 417.714 397.634Z" fill="#232323"/>
</g>
<g clip-path="url(#clip2)">
<path d="M1456.63 495.126C1460.8 495.126 1464.18 491.744 1464.18 487.573C1464.18 483.401 1460.8 480.02 1456.63 480.02C1452.45 480.02 1449.07 483.401 1449.07 487.573C1449.07 491.744 1452.45 495.126 1456.63 495.126Z" fill="#D5DBD5"/>
<path d="M1477.7 385.835H1435.55C1433.19 385.835 1431.27 387.668 1431.27 389.916V469.58C1431.27 471.83 1433.19 473.661 1435.55 473.661H1477.7C1480.06 473.661 1481.98 471.828 1481.98 469.58V389.916C1481.98 387.666 1480.06 385.835 1477.7 385.835Z" fill="#D5DBD5"/>
<path d="M1456.62 341.845C1403.23 341.845 1359.94 385.135 1359.94 438.528C1359.94 491.922 1403.23 535.216 1456.62 535.216C1510.02 535.216 1553.31 491.925 1553.31 438.528C1553.31 385.132 1510.02 341.845 1456.62 341.845ZM1494.24 486.242C1494.24 493.628 1488.25 499.616 1480.86 499.616H1432.38C1425 499.616 1419.01 493.628 1419.01 486.242V390.396C1419.01 383.01 1425 377.021 1432.38 377.021H1480.86C1488.25 377.021 1494.24 383.01 1494.24 390.396V486.242Z" fill="#D5DBD5"/>
</g>
<path d="M430.587 594.192C428.583 594.192 426.777 593.908 425.167 593.34C423.574 592.772 422.311 591.944 421.381 590.855C420.465 589.751 420.008 588.41 420.008 586.832V586.098H424.055V586.619C424.055 587.897 424.647 588.875 425.83 589.554C427.013 590.216 428.63 590.548 430.682 590.548C432.559 590.548 434.129 590.264 435.391 589.696C436.653 589.128 437.285 588.244 437.285 587.045C437.285 585.735 436.669 584.804 435.439 584.252C434.224 583.684 432.401 583.195 429.972 582.785C428.268 582.485 426.69 582.059 425.238 581.507C423.787 580.955 422.611 580.189 421.712 579.211C420.828 578.233 420.387 576.955 420.387 575.377C420.387 573.847 420.836 572.553 421.736 571.496C422.651 570.423 423.881 569.61 425.428 569.058C426.974 568.49 428.694 568.206 430.587 568.206C432.417 568.206 434.105 568.498 435.652 569.082C437.198 569.666 438.436 570.518 439.367 571.638C440.314 572.742 440.787 574.107 440.787 575.732V576.206H436.764V575.851C436.764 574.935 436.472 574.186 435.888 573.602C435.304 573.003 434.547 572.561 433.616 572.277C432.685 571.977 431.691 571.827 430.634 571.827C429.64 571.827 428.662 571.938 427.7 572.159C426.737 572.364 425.94 572.711 425.309 573.2C424.678 573.689 424.363 574.36 424.363 575.212C424.363 576.49 425.017 577.405 426.327 577.957C427.636 578.509 429.388 578.99 431.581 579.401C433.332 579.716 434.942 580.142 436.409 580.679C437.876 581.215 439.052 581.972 439.935 582.951C440.819 583.913 441.261 585.207 441.261 586.832C441.261 588.457 440.771 589.822 439.793 590.926C438.831 592.015 437.537 592.835 435.912 593.388C434.303 593.924 432.528 594.192 430.587 594.192ZM449.759 562.81C449.018 562.81 448.371 562.605 447.818 562.195C447.282 561.769 447.014 561.193 447.014 560.467C447.014 559.757 447.282 559.197 447.818 558.787C448.371 558.361 449.018 558.148 449.759 558.148C450.501 558.148 451.14 558.361 451.676 558.787C452.213 559.197 452.481 559.757 452.481 560.467C452.481 561.193 452.213 561.769 451.676 562.195C451.14 562.605 450.501 562.81 449.759 562.81ZM447.747 593.719V568.585H451.723V593.719H447.747ZM469.145 594.098C468.12 594.098 467.126 593.94 466.163 593.624C465.217 593.293 464.444 592.678 463.844 591.778C463.245 590.863 462.945 589.53 462.945 587.779V572.135H456.815V568.585H460.744C461.47 568.585 461.982 568.545 462.282 568.467C462.582 568.372 462.763 568.143 462.826 567.78C462.905 567.402 462.945 566.794 462.945 565.958V560.254H466.992V568.585H474.849V572.135H466.992V586.264C466.992 587.605 467.15 588.654 467.465 589.412C467.796 590.169 468.53 590.548 469.666 590.548C470.124 590.548 470.558 590.508 470.968 590.429C471.378 590.35 471.686 590.271 471.891 590.193V593.695C471.623 593.79 471.244 593.877 470.755 593.956C470.281 594.05 469.745 594.098 469.145 594.098ZM503.125 585.814C503.014 587.155 502.486 588.473 501.539 589.767C500.608 591.045 499.267 592.11 497.516 592.962C495.764 593.798 493.611 594.216 491.055 594.216C488.53 594.216 486.306 593.664 484.381 592.559C482.456 591.455 480.941 589.924 479.837 587.968C478.748 586.011 478.204 583.763 478.204 581.223C478.204 578.651 478.756 576.395 479.86 574.454C480.965 572.498 482.487 570.967 484.428 569.863C486.369 568.758 488.586 568.206 491.078 568.206C493.619 568.206 495.82 568.758 497.681 569.863C499.543 570.967 500.979 572.482 501.989 574.407C502.999 576.316 503.503 578.493 503.503 580.939C503.503 581.191 503.496 581.523 503.48 581.933C503.464 582.343 503.44 582.619 503.409 582.761H482.203C482.503 585.191 483.442 587.092 485.02 588.465C486.598 589.838 488.649 590.524 491.173 590.524C492.956 590.524 494.415 590.287 495.551 589.814C496.687 589.325 497.539 588.717 498.107 587.992C498.691 587.266 499.023 586.54 499.101 585.814H503.125ZM491.126 571.851C488.775 571.851 486.803 572.506 485.209 573.815C483.616 575.109 482.637 576.892 482.274 579.164H499.172C499.03 577.144 498.281 575.425 496.924 574.005C495.567 572.569 493.634 571.851 491.126 571.851Z" fill="#232323"/>
<path d="M1423.26 585.03C1420.33 585.03 1417.98 584.353 1416.2 582.999C1414.43 581.63 1413.54 579.736 1413.54 577.319C1413.54 574.805 1414.5 572.912 1416.42 571.639C1418.34 570.35 1420.88 569.552 1424.03 569.246C1427.19 568.924 1429.44 568.609 1430.78 568.303C1432.12 567.981 1432.78 567.465 1432.78 566.756V566.684C1432.78 565.201 1432.18 564.097 1430.97 563.372C1429.76 562.631 1428.01 562.26 1425.73 562.26C1423.34 562.26 1421.49 562.679 1420.17 563.517C1418.85 564.339 1418.19 565.677 1418.19 567.53H1414.12C1414.12 565.612 1414.62 563.985 1415.6 562.647C1416.58 561.293 1417.94 560.262 1419.68 559.553C1421.44 558.844 1423.46 558.49 1425.75 558.49C1427.85 558.49 1429.73 558.812 1431.41 559.456C1433.1 560.085 1434.44 561.028 1435.42 562.285C1436.42 563.525 1436.92 565.064 1436.92 566.901V579.712C1436.92 580.276 1436.94 580.824 1436.99 581.356C1437.04 581.888 1437.12 582.355 1437.23 582.758C1437.38 583.241 1437.54 583.636 1437.72 583.942C1437.89 584.232 1438.04 584.434 1438.15 584.546H1434.02C1433.78 584.305 1433.5 583.765 1433.2 582.927C1433.07 582.572 1432.97 582.097 1432.91 581.501C1432.02 582.564 1430.75 583.418 1429.11 584.063C1427.47 584.708 1425.52 585.03 1423.26 585.03ZM1423.91 581.332C1425.57 581.332 1427.07 581.082 1428.41 580.582C1429.75 580.067 1430.81 579.309 1431.6 578.31C1432.39 577.311 1432.78 576.07 1432.78 574.588V571.349C1431.75 571.671 1430.56 571.937 1429.21 572.146C1427.85 572.34 1426.46 572.501 1425.03 572.63C1422.59 572.855 1420.76 573.283 1419.51 573.911C1418.29 574.539 1417.68 575.595 1417.68 577.077C1417.68 579.914 1419.76 581.332 1423.91 581.332ZM1443.75 595.109V558.876H1447.86V562.115C1448.93 560.971 1450.19 560.085 1451.66 559.456C1453.14 558.812 1454.69 558.49 1456.3 558.49C1458.38 558.49 1460.29 559.005 1462.05 560.037C1463.81 561.052 1465.22 562.542 1466.28 564.508C1467.34 566.474 1467.88 568.867 1467.88 571.687C1467.88 574.556 1467.35 576.989 1466.3 578.987C1465.26 580.969 1463.86 582.476 1462.1 583.507C1460.34 584.522 1458.41 585.03 1456.3 585.03C1454.69 585.03 1453.14 584.699 1451.66 584.039C1450.19 583.378 1448.93 582.468 1447.86 581.307V595.109H1443.75ZM1447.89 573.597C1447.89 574.983 1448.25 576.248 1448.97 577.392C1449.71 578.536 1450.68 579.446 1451.87 580.123C1453.07 580.8 1454.35 581.138 1455.72 581.138C1457.99 581.138 1459.87 580.365 1461.37 578.818C1462.89 577.255 1463.65 574.878 1463.65 571.687C1463.65 568.48 1462.9 566.112 1461.4 564.581C1459.9 563.034 1458.01 562.26 1455.72 562.26C1454.35 562.26 1453.07 562.599 1451.87 563.276C1450.68 563.936 1449.71 564.831 1448.97 565.959C1448.25 567.087 1447.89 568.352 1447.89 569.753H1447.86V573.379H1447.89V573.597ZM1474.3 595.109V558.876H1478.41V562.115C1479.47 560.971 1480.73 560.085 1482.2 559.456C1483.68 558.812 1485.23 558.49 1486.84 558.49C1488.92 558.49 1490.84 559.005 1492.59 560.037C1494.35 561.052 1495.76 562.542 1496.82 564.508C1497.89 566.474 1498.42 568.867 1498.42 571.687C1498.42 574.556 1497.9 576.989 1496.85 578.987C1495.8 580.969 1494.4 582.476 1492.64 583.507C1490.89 584.522 1488.95 585.03 1486.84 585.03C1485.23 585.03 1483.68 584.699 1482.2 584.039C1480.73 583.378 1479.47 582.468 1478.41 581.307V595.109H1474.3ZM1478.43 573.597C1478.43 574.983 1478.79 576.248 1479.52 577.392C1480.26 578.536 1481.23 579.446 1482.42 580.123C1483.61 580.8 1484.89 581.138 1486.26 581.138C1488.53 581.138 1490.42 580.365 1491.92 578.818C1493.43 577.255 1494.19 574.878 1494.19 571.687C1494.19 568.48 1493.44 566.112 1491.94 564.581C1490.44 563.034 1488.55 562.26 1486.26 562.26C1484.89 562.26 1483.61 562.599 1482.42 563.276C1481.23 563.936 1480.26 564.831 1479.52 565.959C1478.79 567.087 1478.43 568.352 1478.43 569.753H1478.41V573.379H1478.43V573.597Z" fill="#D5DBD5"/>
<g clip-path="url(#clip3)">
<path d="M1402.28 808.47H1283.1C1275.9 808.47 1270.05 802.614 1270.05 795.416V721.638C1270.05 714.44 1275.9 708.584 1283.1 708.584H1402.28C1409.48 708.584 1415.33 714.44 1415.33 721.638V795.416C1415.33 802.614 1409.48 808.47 1402.28 808.47ZM1283.1 717.665C1280.91 717.665 1279.13 719.447 1279.13 721.638V795.416C1279.13 797.607 1280.91 799.389 1283.1 799.389H1402.28C1404.47 799.389 1406.25 797.607 1406.25 795.416V721.638C1406.25 719.447 1404.47 717.665 1402.28 717.665H1283.1Z" fill="#232323"/>
<path d="M1373.82 771.498C1372.83 771.498 1371.84 771.179 1371.01 770.523C1369.04 768.971 1368.7 766.116 1370.26 764.147C1371.53 762.533 1372.2 760.589 1372.2 758.527C1372.2 756.465 1371.53 754.521 1370.26 752.907C1368.7 750.938 1369.04 748.083 1371.01 746.53C1372.98 744.979 1375.83 745.316 1377.39 747.285C1379.9 750.471 1381.28 754.464 1381.28 758.527C1381.28 762.59 1379.9 766.582 1377.39 769.768C1376.49 770.905 1375.16 771.498 1373.82 771.498V771.498Z" fill="#232323"/>
<path d="M1385.09 782.769C1384.01 782.769 1382.93 782.386 1382.06 781.608C1380.19 779.933 1380.04 777.062 1381.71 775.196C1385.83 770.612 1388.09 764.693 1388.09 758.527C1388.09 752.361 1385.83 746.441 1381.71 741.857C1380.04 739.991 1380.19 737.121 1382.06 735.446C1383.93 733.772 1386.8 733.927 1388.47 735.793C1394.08 742.045 1397.17 750.119 1397.17 758.527C1397.17 766.935 1394.08 775.009 1388.47 781.261C1387.58 782.26 1386.34 782.769 1385.09 782.769V782.769Z" fill="#232323"/>
<path d="M1305.23 758.527H1298.42C1292.79 758.527 1288.21 753.944 1288.21 748.311V741.501C1288.21 735.868 1292.79 731.285 1298.42 731.285H1305.23C1310.87 731.285 1315.45 735.868 1315.45 741.501V748.311C1315.45 753.944 1310.87 758.527 1305.23 758.527ZM1298.42 740.366C1297.8 740.366 1297.29 740.875 1297.29 741.501V748.311C1297.29 748.937 1297.8 749.446 1298.42 749.446H1305.23C1305.86 749.446 1306.37 748.937 1306.37 748.311V741.501C1306.37 740.875 1305.86 740.366 1305.23 740.366H1298.42Z" fill="#232323"/>
</g>
<path d="M1240.37 844.518C1240.37 841.619 1241.06 839.29 1242.43 837.532C1243.81 835.762 1245.61 834.877 1247.83 834.877C1250.04 834.877 1251.8 835.634 1253.09 837.147V827.297H1256.32V854.124H1253.35L1253.19 852.098C1251.9 853.682 1250.1 854.473 1247.8 854.473C1245.61 854.473 1243.82 853.577 1242.43 851.784C1241.06 849.991 1240.37 847.65 1240.37 844.763V844.518ZM1243.61 844.885C1243.61 847.027 1244.05 848.704 1244.93 849.915C1245.82 851.126 1247.04 851.731 1248.6 851.731C1250.65 851.731 1252.15 850.811 1253.09 848.972V840.291C1252.12 838.51 1250.64 837.619 1248.64 837.619C1247.05 837.619 1245.82 838.23 1244.93 839.453C1244.05 840.676 1243.61 842.486 1243.61 844.885ZM1269.19 854.473C1266.63 854.473 1264.55 853.635 1262.94 851.958C1261.33 850.27 1260.53 848.017 1260.53 845.199V844.605C1260.53 842.731 1260.88 841.06 1261.59 839.593C1262.32 838.114 1263.32 836.961 1264.6 836.134C1265.89 835.296 1267.29 834.877 1268.79 834.877C1271.25 834.877 1273.16 835.686 1274.52 837.305C1275.88 838.923 1276.56 841.24 1276.56 844.256V845.601H1263.76C1263.81 847.464 1264.35 848.972 1265.38 850.124C1266.43 851.266 1267.76 851.836 1269.37 851.836C1270.51 851.836 1271.47 851.603 1272.27 851.138C1273.06 850.672 1273.75 850.055 1274.34 849.286L1276.32 850.823C1274.73 853.257 1272.36 854.473 1269.19 854.473ZM1268.79 837.532C1267.49 837.532 1266.39 838.009 1265.51 838.964C1264.62 839.907 1264.07 841.234 1263.87 842.946H1273.33V842.702C1273.24 841.06 1272.8 839.791 1272 838.894C1271.21 837.986 1270.14 837.532 1268.79 837.532ZM1270.36 827.297H1274.27L1269.59 832.432H1266.99L1270.36 827.297ZM1296.32 844.885C1296.32 847.772 1295.65 850.095 1294.33 851.854C1293 853.6 1291.22 854.473 1288.98 854.473C1286.59 854.473 1284.75 853.629 1283.44 851.941L1283.29 854.124H1280.32V827.297H1283.55V837.305C1284.85 835.686 1286.65 834.877 1288.95 834.877C1291.24 834.877 1293.04 835.744 1294.34 837.479C1295.66 839.214 1296.32 841.59 1296.32 844.605V844.885ZM1293.09 844.518C1293.09 842.317 1292.66 840.617 1291.81 839.418C1290.96 838.219 1289.74 837.619 1288.14 837.619C1286.01 837.619 1284.48 838.609 1283.55 840.588V848.762C1284.54 850.742 1286.08 851.731 1288.18 851.731C1289.73 851.731 1290.93 851.132 1291.79 849.932C1292.65 848.733 1293.09 846.928 1293.09 844.518ZM1303.91 854.124H1300.68V835.226H1303.91V854.124ZM1300.42 830.214C1300.42 829.69 1300.58 829.247 1300.89 828.886C1301.22 828.525 1301.7 828.345 1302.32 828.345C1302.95 828.345 1303.43 828.525 1303.76 828.886C1304.08 829.247 1304.25 829.69 1304.25 830.214C1304.25 830.738 1304.08 831.174 1303.76 831.523C1303.43 831.873 1302.95 832.047 1302.32 832.047C1301.7 832.047 1301.22 831.873 1300.89 831.523C1300.58 831.174 1300.42 830.738 1300.42 830.214ZM1313.49 830.65V835.226H1317.01V837.724H1313.49V849.443C1313.49 850.2 1313.64 850.771 1313.96 851.155C1314.27 851.528 1314.81 851.714 1315.56 851.714C1315.94 851.714 1316.45 851.644 1317.1 851.504V854.124C1316.25 854.357 1315.42 854.473 1314.62 854.473C1313.18 854.473 1312.09 854.037 1311.35 853.164C1310.62 852.29 1310.25 851.05 1310.25 849.443V837.724H1306.81V835.226H1310.25V830.65H1313.49ZM1319.6 844.501C1319.6 842.649 1319.96 840.984 1320.68 839.505C1321.41 838.027 1322.43 836.885 1323.72 836.082C1325.02 835.279 1326.51 834.877 1328.17 834.877C1330.75 834.877 1332.83 835.768 1334.41 837.549C1336 839.331 1336.8 841.7 1336.8 844.658V844.885C1336.8 846.724 1336.45 848.378 1335.74 849.845C1335.04 851.301 1334.03 852.436 1332.72 853.251C1331.41 854.066 1329.91 854.473 1328.21 854.473C1325.65 854.473 1323.57 853.583 1321.97 851.801C1320.39 850.02 1319.6 847.662 1319.6 844.728V844.501ZM1322.85 844.885C1322.85 846.981 1323.33 848.663 1324.3 849.932C1325.27 851.202 1326.58 851.836 1328.21 851.836C1329.85 851.836 1331.16 851.196 1332.12 849.915C1333.09 848.622 1333.57 846.818 1333.57 844.501C1333.57 842.428 1333.08 840.751 1332.09 839.47C1331.11 838.178 1329.8 837.532 1328.17 837.532C1326.58 837.532 1325.29 838.166 1324.31 839.435C1323.34 840.705 1322.85 842.521 1322.85 844.885ZM1355.96 849.74L1360.64 835.226H1363.94L1357.17 854.124H1354.7L1347.86 835.226H1351.16L1355.96 849.74ZM1370.56 854.124H1367.33V835.226H1370.56V854.124ZM1367.07 830.214C1367.07 829.69 1367.23 829.247 1367.54 828.886C1367.87 828.525 1368.35 828.345 1368.97 828.345C1369.6 828.345 1370.08 828.525 1370.41 828.886C1370.73 829.247 1370.9 829.69 1370.9 830.214C1370.9 830.738 1370.73 831.174 1370.41 831.523C1370.08 831.873 1369.6 832.047 1368.97 832.047C1368.35 832.047 1367.87 831.873 1367.54 831.523C1367.23 831.174 1367.07 830.738 1367.07 830.214ZM1384.89 838.126C1384.4 838.044 1383.87 838.003 1383.3 838.003C1381.18 838.003 1379.74 838.906 1378.98 840.71V854.124H1375.75V835.226H1378.89L1378.95 837.409C1380.01 835.721 1381.51 834.877 1383.45 834.877C1384.08 834.877 1384.56 834.958 1384.89 835.121V838.126ZM1393.13 830.65V835.226H1396.66V837.724H1393.13V849.443C1393.13 850.2 1393.29 850.771 1393.6 851.155C1393.92 851.528 1394.45 851.714 1395.21 851.714C1395.58 851.714 1396.09 851.644 1396.74 851.504V854.124C1395.89 854.357 1395.07 854.473 1394.26 854.473C1392.82 854.473 1391.73 854.037 1391 853.164C1390.26 852.29 1389.9 851.05 1389.9 849.443V837.724H1386.46V835.226H1389.9V830.65H1393.13ZM1412.11 852.255C1410.86 853.734 1409.01 854.473 1406.58 854.473C1404.56 854.473 1403.03 853.891 1401.97 852.727C1400.92 851.551 1400.39 849.816 1400.38 847.522V835.226H1403.61V847.435C1403.61 850.299 1404.77 851.731 1407.1 851.731C1409.57 851.731 1411.21 850.811 1412.03 848.972V835.226H1415.26V854.124H1412.18L1412.11 852.255ZM1431.85 854.124C1431.66 853.752 1431.51 853.088 1431.4 852.133C1429.89 853.693 1428.1 854.473 1426.02 854.473C1424.15 854.473 1422.62 853.949 1421.42 852.902C1420.24 851.842 1419.64 850.503 1419.64 848.884C1419.64 846.917 1420.39 845.391 1421.88 844.308C1423.38 843.214 1425.49 842.667 1428.2 842.667H1431.34V841.182C1431.34 840.053 1431.01 839.156 1430.33 838.492C1429.66 837.817 1428.66 837.479 1427.34 837.479C1426.19 837.479 1425.23 837.77 1424.45 838.353C1423.67 838.935 1423.28 839.639 1423.28 840.466H1420.03C1420.03 839.523 1420.36 838.615 1421.02 837.741C1421.7 836.856 1422.61 836.158 1423.75 835.645C1424.9 835.133 1426.16 834.877 1427.54 834.877C1429.71 834.877 1431.42 835.424 1432.65 836.519C1433.89 837.602 1434.53 839.098 1434.58 841.007V849.705C1434.58 851.44 1434.8 852.82 1435.24 853.845V854.124H1431.85ZM1426.49 851.661C1427.5 851.661 1428.46 851.399 1429.37 850.876C1430.28 850.352 1430.94 849.67 1431.34 848.832V844.955H1428.81C1424.85 844.955 1422.87 846.113 1422.87 848.43C1422.87 849.443 1423.21 850.235 1423.89 850.806C1424.56 851.376 1425.43 851.661 1426.49 851.661ZM1443.15 854.124H1439.92V827.297H1443.15V854.124ZM1249.58 871.94C1249.41 873.335 1248.9 874.413 1248.03 875.173C1247.16 875.928 1246.01 876.305 1244.58 876.305C1243.02 876.305 1241.77 875.747 1240.83 874.63C1239.89 873.513 1239.42 872.019 1239.42 870.147V868.879C1239.42 867.653 1239.64 866.576 1240.08 865.646C1240.52 864.716 1241.14 864.004 1241.94 863.509C1242.74 863.008 1243.67 862.757 1244.73 862.757C1246.13 862.757 1247.25 863.149 1248.1 863.934C1248.95 864.713 1249.44 865.794 1249.58 867.177H1247.83C1247.68 866.126 1247.35 865.365 1246.84 864.894C1246.34 864.423 1245.64 864.188 1244.73 864.188C1243.62 864.188 1242.75 864.598 1242.11 865.42C1241.49 866.241 1241.17 867.409 1241.17 868.924V870.201C1241.17 871.632 1241.47 872.77 1242.07 873.616C1242.67 874.461 1243.5 874.883 1244.58 874.883C1245.54 874.883 1246.28 874.666 1246.8 874.231C1247.32 873.791 1247.66 873.027 1247.83 871.94H1249.58ZM1257.75 876.124C1257.65 875.931 1257.57 875.587 1257.51 875.092C1256.73 875.901 1255.8 876.305 1254.72 876.305C1253.75 876.305 1252.96 876.034 1252.34 875.49C1251.72 874.941 1251.41 874.246 1251.41 873.407C1251.41 872.387 1251.8 871.596 1252.57 871.034C1253.35 870.467 1254.45 870.183 1255.85 870.183H1257.48V869.413C1257.48 868.828 1257.31 868.363 1256.96 868.019C1256.61 867.669 1256.09 867.493 1255.41 867.493C1254.81 867.493 1254.31 867.644 1253.91 867.946C1253.5 868.248 1253.3 868.613 1253.3 869.042H1251.61C1251.61 868.553 1251.79 868.082 1252.13 867.629C1252.48 867.17 1252.95 866.808 1253.54 866.543C1254.14 866.277 1254.8 866.144 1255.51 866.144C1256.64 866.144 1257.52 866.428 1258.16 866.995C1258.8 867.557 1259.13 868.333 1259.16 869.323V873.833C1259.16 874.732 1259.27 875.448 1259.5 875.979V876.124H1257.75ZM1254.96 874.847C1255.49 874.847 1255.99 874.711 1256.46 874.44C1256.93 874.168 1257.27 873.815 1257.48 873.38V871.37H1256.17C1254.12 871.37 1253.09 871.97 1253.09 873.172C1253.09 873.697 1253.27 874.108 1253.62 874.403C1253.97 874.699 1254.42 874.847 1254.96 874.847ZM1263.6 876.124H1261.93V866.325H1263.6V876.124ZM1261.79 863.726C1261.79 863.454 1261.87 863.225 1262.04 863.038C1262.21 862.851 1262.45 862.757 1262.78 862.757C1263.11 862.757 1263.35 862.851 1263.52 863.038C1263.69 863.225 1263.78 863.454 1263.78 863.726C1263.78 863.998 1263.69 864.224 1263.52 864.405C1263.35 864.586 1263.11 864.677 1262.78 864.677C1262.45 864.677 1262.21 864.586 1262.04 864.405C1261.87 864.224 1261.79 863.998 1261.79 863.726ZM1269.58 869.902L1271.76 866.325H1273.71L1270.51 871.17L1273.81 876.124H1271.87L1269.61 872.456L1267.34 876.124H1265.4L1268.7 871.17L1265.5 866.325H1267.44L1269.58 869.902ZM1281.55 876.124C1281.45 875.931 1281.37 875.587 1281.31 875.092C1280.53 875.901 1279.6 876.305 1278.52 876.305C1277.55 876.305 1276.76 876.034 1276.14 875.49C1275.52 874.941 1275.21 874.246 1275.21 873.407C1275.21 872.387 1275.6 871.596 1276.37 871.034C1277.15 870.467 1278.25 870.183 1279.65 870.183H1281.28V869.413C1281.28 868.828 1281.11 868.363 1280.76 868.019C1280.41 867.669 1279.89 867.493 1279.21 867.493C1278.61 867.493 1278.11 867.644 1277.71 867.946C1277.3 868.248 1277.1 868.613 1277.1 869.042H1275.41C1275.41 868.553 1275.59 868.082 1275.93 867.629C1276.28 867.17 1276.75 866.808 1277.34 866.543C1277.94 866.277 1278.6 866.144 1279.31 866.144C1280.44 866.144 1281.32 866.428 1281.96 866.995C1282.6 867.557 1282.93 868.333 1282.96 869.323V873.833C1282.96 874.732 1283.07 875.448 1283.3 875.979V876.124H1281.55ZM1278.76 874.847C1279.29 874.847 1279.79 874.711 1280.26 874.44C1280.73 874.168 1281.07 873.815 1281.28 873.38V871.37H1279.97C1277.92 871.37 1276.89 871.97 1276.89 873.172C1276.89 873.697 1277.07 874.108 1277.42 874.403C1277.77 874.699 1278.22 874.847 1278.76 874.847ZM1297.9 870.029H1292.19V874.702H1298.82V876.124H1290.45V862.938H1298.73V864.369H1292.19V868.607H1297.9V870.029ZM1304.48 874.938C1305.07 874.938 1305.6 874.757 1306.04 874.394C1306.49 874.032 1306.74 873.579 1306.79 873.036H1308.37C1308.34 873.597 1308.15 874.132 1307.79 874.639C1307.43 875.146 1306.96 875.551 1306.36 875.852C1305.77 876.154 1305.14 876.305 1304.48 876.305C1303.14 876.305 1302.08 875.862 1301.29 874.974C1300.5 874.08 1300.11 872.861 1300.11 871.315V871.034C1300.11 870.081 1300.29 869.232 1300.64 868.49C1300.99 867.747 1301.49 867.17 1302.14 866.76C1302.8 866.349 1303.57 866.144 1304.47 866.144C1305.57 866.144 1306.48 866.473 1307.2 867.131C1307.93 867.789 1308.32 868.644 1308.37 869.694H1306.79C1306.74 869.06 1306.5 868.541 1306.06 868.136C1305.63 867.726 1305.1 867.521 1304.47 867.521C1303.62 867.521 1302.95 867.829 1302.48 868.444C1302.02 869.054 1301.79 869.939 1301.79 871.098V871.415C1301.79 872.544 1302.02 873.413 1302.48 874.023C1302.95 874.633 1303.61 874.938 1304.48 874.938ZM1309.81 871.134C1309.81 870.174 1310 869.311 1310.37 868.544C1310.75 867.777 1311.28 867.186 1311.95 866.769C1312.62 866.352 1313.39 866.144 1314.26 866.144C1315.59 866.144 1316.67 866.606 1317.49 867.53C1318.32 868.453 1318.73 869.682 1318.73 871.216V871.333C1318.73 872.287 1318.55 873.145 1318.18 873.905C1317.82 874.66 1317.29 875.249 1316.61 875.671C1315.94 876.094 1315.16 876.305 1314.27 876.305C1312.95 876.305 1311.87 875.843 1311.04 874.92C1310.22 873.996 1309.81 872.773 1309.81 871.252V871.134ZM1311.49 871.333C1311.49 872.42 1311.74 873.293 1312.25 873.951C1312.75 874.609 1313.43 874.938 1314.27 874.938C1315.13 874.938 1315.8 874.606 1316.3 873.942C1316.8 873.271 1317.05 872.336 1317.05 871.134C1317.05 870.059 1316.8 869.19 1316.29 868.526C1315.78 867.856 1315.1 867.521 1314.26 867.521C1313.43 867.521 1312.76 867.85 1312.26 868.508C1311.75 869.166 1311.49 870.108 1311.49 871.333ZM1322.42 866.325L1322.47 867.557C1323.22 866.615 1324.2 866.144 1325.4 866.144C1327.48 866.144 1328.52 867.312 1328.54 869.649V876.124H1326.86V869.64C1326.86 868.933 1326.69 868.411 1326.37 868.073C1326.06 867.735 1325.57 867.566 1324.9 867.566C1324.35 867.566 1323.88 867.711 1323.47 868.001C1323.06 868.29 1322.74 868.671 1322.51 869.142V876.124H1320.83V866.325H1322.42ZM1330.62 871.134C1330.62 870.174 1330.81 869.311 1331.18 868.544C1331.56 867.777 1332.09 867.186 1332.76 866.769C1333.43 866.352 1334.2 866.144 1335.07 866.144C1336.4 866.144 1337.48 866.606 1338.3 867.53C1339.13 868.453 1339.54 869.682 1339.54 871.216V871.333C1339.54 872.287 1339.36 873.145 1338.99 873.905C1338.63 874.66 1338.1 875.249 1337.42 875.671C1336.75 876.094 1335.97 876.305 1335.09 876.305C1333.76 876.305 1332.68 875.843 1331.85 874.92C1331.03 873.996 1330.62 872.773 1330.62 871.252V871.134ZM1332.31 871.333C1332.31 872.42 1332.56 873.293 1333.06 873.951C1333.56 874.609 1334.24 874.938 1335.09 874.938C1335.94 874.938 1336.61 874.606 1337.11 873.942C1337.62 873.271 1337.87 872.336 1337.87 871.134C1337.87 870.059 1337.61 869.19 1337.1 868.526C1336.59 867.856 1335.91 867.521 1335.07 867.521C1334.24 867.521 1333.57 867.85 1333.07 868.508C1332.56 869.166 1332.31 870.108 1332.31 871.333ZM1337.75 864.695V864.786H1336.36L1335 863.246L1333.66 864.786H1332.27V864.677L1334.5 862.214H1335.51L1337.75 864.695ZM1343.22 866.325L1343.26 867.412C1343.98 866.567 1344.95 866.144 1346.17 866.144C1347.54 866.144 1348.47 866.669 1348.97 867.72C1349.3 867.249 1349.72 866.869 1350.24 866.579C1350.76 866.289 1351.38 866.144 1352.09 866.144C1354.24 866.144 1355.34 867.282 1355.37 869.558V876.124H1353.7V869.658C1353.7 868.958 1353.54 868.435 1353.22 868.091C1352.9 867.741 1352.36 867.566 1351.6 867.566C1350.98 867.566 1350.47 867.753 1350.06 868.127C1349.65 868.496 1349.41 868.994 1349.34 869.622V876.124H1347.66V869.703C1347.66 868.278 1346.96 867.566 1345.56 867.566C1344.47 867.566 1343.71 868.034 1343.31 868.97V876.124H1341.63V866.325H1343.22ZM1359.73 876.124H1358.05V866.325H1359.73V876.124ZM1357.92 863.726C1357.92 863.454 1358 863.225 1358.16 863.038C1358.33 862.851 1358.58 862.757 1358.9 862.757C1359.23 862.757 1359.48 862.851 1359.65 863.038C1359.82 863.225 1359.9 863.454 1359.9 863.726C1359.9 863.998 1359.82 864.224 1359.65 864.405C1359.48 864.586 1359.23 864.677 1358.9 864.677C1358.58 864.677 1358.33 864.586 1358.16 864.405C1358 864.224 1357.92 863.998 1357.92 863.726ZM1366.35 874.938C1366.95 874.938 1367.47 874.757 1367.92 874.394C1368.36 874.032 1368.61 873.579 1368.66 873.036H1370.24C1370.21 873.597 1370.02 874.132 1369.66 874.639C1369.31 875.146 1368.83 875.551 1368.23 875.852C1367.64 876.154 1367.01 876.305 1366.35 876.305C1365.01 876.305 1363.95 875.862 1363.16 874.974C1362.38 874.08 1361.98 872.861 1361.98 871.315V871.034C1361.98 870.081 1362.16 869.232 1362.51 868.49C1362.86 867.747 1363.36 867.17 1364.01 866.76C1364.67 866.349 1365.45 866.144 1366.34 866.144C1367.44 866.144 1368.35 866.473 1369.07 867.131C1369.8 867.789 1370.19 868.644 1370.24 869.694H1368.66C1368.61 869.06 1368.37 868.541 1367.93 868.136C1367.5 867.726 1366.97 867.521 1366.34 867.521C1365.49 867.521 1364.83 867.829 1364.36 868.444C1363.89 869.054 1363.66 869.939 1363.66 871.098V871.415C1363.66 872.544 1363.89 873.413 1364.36 874.023C1364.82 874.633 1365.49 874.938 1366.35 874.938ZM1378.18 876.124C1378.08 875.931 1378 875.587 1377.94 875.092C1377.16 875.901 1376.23 876.305 1375.15 876.305C1374.19 876.305 1373.39 876.034 1372.77 875.49C1372.15 874.941 1371.85 874.246 1371.85 873.407C1371.85 872.387 1372.23 871.596 1373 871.034C1373.78 870.467 1374.88 870.183 1376.28 870.183H1377.91V869.413C1377.91 868.828 1377.74 868.363 1377.39 868.019C1377.04 867.669 1376.52 867.493 1375.84 867.493C1375.24 867.493 1374.74 867.644 1374.34 867.946C1373.93 868.248 1373.73 868.613 1373.73 869.042H1372.04C1372.04 868.553 1372.22 868.082 1372.56 867.629C1372.91 867.17 1373.38 866.808 1373.97 866.543C1374.57 866.277 1375.23 866.144 1375.94 866.144C1377.07 866.144 1377.95 866.428 1378.59 866.995C1379.23 867.557 1379.56 868.333 1379.59 869.323V873.833C1379.59 874.732 1379.7 875.448 1379.93 875.979V876.124H1378.18ZM1375.4 874.847C1375.92 874.847 1376.42 874.711 1376.89 874.44C1377.36 874.168 1377.7 873.815 1377.91 873.38V871.37H1376.6C1374.55 871.37 1373.52 871.97 1373.52 873.172C1373.52 873.697 1373.7 874.108 1374.05 874.403C1374.4 874.699 1374.85 874.847 1375.4 874.847ZM1394.35 870.301H1388.82V876.124H1387.08V862.938H1395.25V864.369H1388.82V868.879H1394.35V870.301ZM1400.93 876.305C1399.61 876.305 1398.53 875.871 1397.69 875.001C1396.86 874.126 1396.44 872.957 1396.44 871.496V871.188C1396.44 870.216 1396.63 869.35 1397 868.589C1397.37 867.823 1397.89 867.225 1398.55 866.796C1399.22 866.361 1399.95 866.144 1400.73 866.144C1402 866.144 1402.99 866.564 1403.7 867.403C1404.4 868.242 1404.76 869.444 1404.76 871.007V871.705H1398.12C1398.14 872.671 1398.42 873.453 1398.96 874.05C1399.5 874.642 1400.19 874.938 1401.03 874.938C1401.62 874.938 1402.12 874.817 1402.53 874.576C1402.94 874.334 1403.3 874.014 1403.61 873.616L1404.63 874.413C1403.81 875.674 1402.58 876.305 1400.93 876.305ZM1400.73 867.521C1400.05 867.521 1399.48 867.768 1399.02 868.263C1398.56 868.752 1398.28 869.441 1398.17 870.328H1403.08V870.201C1403.03 869.35 1402.8 868.692 1402.39 868.227C1401.98 867.756 1401.43 867.521 1400.73 867.521ZM1406.3 871.143C1406.3 869.64 1406.65 868.432 1407.36 867.521C1408.08 866.603 1409.01 866.144 1410.16 866.144C1411.31 866.144 1412.22 866.537 1412.89 867.321V862.214H1414.56V876.124H1413.02L1412.94 875.074C1412.27 875.895 1411.34 876.305 1410.14 876.305C1409.01 876.305 1408.08 875.84 1407.36 874.911C1406.65 873.981 1406.3 872.767 1406.3 871.27V871.143ZM1407.97 871.333C1407.97 872.444 1408.2 873.314 1408.66 873.942C1409.12 874.569 1409.75 874.883 1410.56 874.883C1411.62 874.883 1412.4 874.406 1412.89 873.453V868.952C1412.39 868.028 1411.62 867.566 1410.58 867.566C1409.76 867.566 1409.12 867.883 1408.66 868.517C1408.2 869.151 1407.97 870.09 1407.97 871.333ZM1421.24 876.305C1419.91 876.305 1418.83 875.871 1418 875.001C1417.16 874.126 1416.75 872.957 1416.75 871.496V871.188C1416.75 870.216 1416.93 869.35 1417.3 868.589C1417.67 867.823 1418.19 867.225 1418.86 866.796C1419.53 866.361 1420.25 866.144 1421.03 866.144C1422.3 866.144 1423.29 866.564 1424 867.403C1424.71 868.242 1425.06 869.444 1425.06 871.007V871.705H1418.42C1418.45 872.671 1418.73 873.453 1419.26 874.05C1419.81 874.642 1420.5 874.938 1421.33 874.938C1421.92 874.938 1422.42 874.817 1422.83 874.576C1423.24 874.334 1423.6 874.014 1423.91 873.616L1424.93 874.413C1424.11 875.674 1422.88 876.305 1421.24 876.305ZM1421.03 867.521C1420.35 867.521 1419.79 867.768 1419.33 868.263C1418.87 868.752 1418.59 869.441 1418.48 870.328H1423.39V870.201C1423.34 869.35 1423.11 868.692 1422.7 868.227C1422.29 867.756 1421.73 867.521 1421.03 867.521ZM1431.74 867.829C1431.49 867.786 1431.22 867.765 1430.92 867.765C1429.82 867.765 1429.08 868.233 1428.68 869.169V876.124H1427.01V866.325H1428.64L1428.66 867.457C1429.21 866.582 1429.99 866.144 1431 866.144C1431.33 866.144 1431.58 866.186 1431.74 866.271V867.829ZM1438.98 876.124C1438.88 875.931 1438.81 875.587 1438.74 875.092C1437.97 875.901 1437.04 876.305 1435.96 876.305C1434.99 876.305 1434.2 876.034 1433.57 875.49C1432.96 874.941 1432.65 874.246 1432.65 873.407C1432.65 872.387 1433.04 871.596 1433.81 871.034C1434.59 870.467 1435.68 870.183 1437.09 870.183H1438.72V869.413C1438.72 868.828 1438.54 868.363 1438.19 868.019C1437.84 867.669 1437.33 867.493 1436.64 867.493C1436.05 867.493 1435.54 867.644 1435.14 867.946C1434.74 868.248 1434.53 868.613 1434.53 869.042H1432.85C1432.85 868.553 1433.02 868.082 1433.37 867.629C1433.72 867.17 1434.19 866.808 1434.78 866.543C1435.38 866.277 1436.03 866.144 1436.74 866.144C1437.87 866.144 1438.76 866.428 1439.4 866.995C1440.04 867.557 1440.37 868.333 1440.39 869.323V873.833C1440.39 874.732 1440.51 875.448 1440.74 875.979V876.124H1438.98ZM1436.2 874.847C1436.73 874.847 1437.22 874.711 1437.69 874.44C1438.17 874.168 1438.51 873.815 1438.72 873.38V871.37H1437.4C1435.35 871.37 1434.33 871.97 1434.33 873.172C1434.33 873.697 1434.5 874.108 1434.85 874.403C1435.2 874.699 1435.65 874.847 1436.2 874.847ZM1444.84 876.124H1443.16V862.214H1444.84V876.124Z" fill="#232323"/>
<g clip-path="url(#clip4)">
<path d="M920.949 692.99H901.784C899.139 692.99 896.992 695.137 896.992 697.782V716.947C896.992 719.592 899.139 721.739 901.784 721.739C904.428 721.739 906.575 719.592 906.575 716.947V702.573H920.949C923.594 702.573 925.741 700.426 925.741 697.782C925.741 695.137 923.594 692.99 920.949 692.99Z" fill="#232323"/>
<path d="M1035.94 779.235C1033.3 779.235 1031.15 781.382 1031.15 784.027V798.401H1016.78C1014.13 798.401 1011.98 800.547 1011.98 803.192C1011.98 805.837 1014.13 807.984 1016.78 807.984H1035.94C1038.59 807.984 1040.73 805.837 1040.73 803.192V784.027C1040.73 781.382 1038.59 779.235 1035.94 779.235Z" fill="#232323"/>
<path d="M1035.94 692.99H1016.78C1014.13 692.99 1011.98 695.137 1011.98 697.782C1011.98 700.426 1014.13 702.573 1016.78 702.573H1031.15V716.947C1031.15 719.592 1033.3 721.739 1035.94 721.739C1038.59 721.739 1040.73 719.592 1040.73 716.947V697.782C1040.73 695.137 1038.59 692.99 1035.94 692.99Z" fill="#232323"/>
<path d="M920.949 798.401H906.575V784.027C906.575 781.382 904.428 779.235 901.784 779.235C899.139 779.235 896.992 781.382 896.992 784.027V803.192C896.992 805.837 899.139 807.984 901.784 807.984H920.949C923.594 807.984 925.741 805.837 925.741 803.192C925.741 800.547 923.594 798.401 920.949 798.401Z" fill="#232323"/>
<path d="M925.741 712.156H916.158V788.818H925.741V712.156Z" fill="#232323"/>
<path d="M944.906 712.156H935.323V769.652H944.906V712.156Z" fill="#232323"/>
<path d="M964.071 712.156H954.488V769.652H964.071V712.156Z" fill="#232323"/>
<path d="M983.237 712.156H973.655V788.818H983.237V712.156Z" fill="#232323"/>
<path d="M1002.4 712.156H992.82V769.652H1002.4V712.156Z" fill="#232323"/>
<path d="M1021.57 712.156H1011.98V788.818H1021.57V712.156Z" fill="#232323"/>
<path d="M944.906 779.235H935.323V788.818H944.906V779.235Z" fill="#232323"/>
<path d="M964.071 779.235H954.488V788.818H964.071V779.235Z" fill="#232323"/>
<path d="M1002.4 779.235H992.82V788.818H1002.4V779.235Z" fill="#232323"/>
</g>
<path d="M863.965 846.119C863.965 849.006 863.302 851.329 861.974 853.087C860.647 854.834 858.865 855.707 856.63 855.707C854.243 855.707 852.397 854.863 851.093 853.175L850.936 855.358H847.967V828.531H851.198V838.538C852.502 836.92 854.301 836.111 856.595 836.111C858.889 836.111 860.688 836.978 861.992 838.713C863.308 840.448 863.965 842.823 863.965 845.839V846.119ZM860.734 845.752C860.734 843.551 860.309 841.851 859.459 840.652C858.609 839.452 857.387 838.853 855.791 838.853C853.661 838.853 852.129 839.843 851.198 841.822V849.996C852.188 851.975 853.73 852.965 855.826 852.965C857.375 852.965 858.58 852.365 859.442 851.166C860.303 849.967 860.734 848.162 860.734 845.752ZM867.197 845.734C867.197 843.883 867.558 842.218 868.279 840.739C869.013 839.26 870.026 838.119 871.318 837.316C872.623 836.512 874.107 836.111 875.772 836.111C878.346 836.111 880.424 837.001 882.008 838.783C883.603 840.564 884.4 842.934 884.4 845.891V846.119C884.4 847.958 884.045 849.612 883.335 851.079C882.636 852.534 881.629 853.67 880.313 854.485C879.009 855.3 877.507 855.707 875.807 855.707C873.246 855.707 871.167 854.816 869.572 853.035C867.988 851.253 867.197 848.896 867.197 845.961V845.734ZM870.445 846.119C870.445 848.214 870.928 849.897 871.895 851.166C872.873 852.435 874.177 853.07 875.807 853.07C877.449 853.07 878.753 852.429 879.72 851.149C880.686 849.856 881.169 848.051 881.169 845.734C881.169 843.662 880.674 841.985 879.685 840.704C878.706 839.412 877.402 838.765 875.772 838.765C874.177 838.765 872.89 839.4 871.912 840.669C870.934 841.938 870.445 843.755 870.445 846.119ZM891.963 855.358H888.732V828.531H891.963V855.358ZM904.992 855.707C902.431 855.707 900.347 854.869 898.74 853.192C897.133 851.504 896.329 849.251 896.329 846.433V845.839C896.329 843.964 896.685 842.294 897.395 840.826C898.117 839.348 899.118 838.195 900.399 837.368C901.691 836.53 903.089 836.111 904.591 836.111C907.048 836.111 908.957 836.92 910.319 838.538C911.682 840.157 912.363 842.474 912.363 845.49V846.835H899.561C899.607 848.698 900.149 850.206 901.185 851.358C902.233 852.499 903.56 853.07 905.167 853.07C906.308 853.07 907.275 852.837 908.066 852.371C908.858 851.906 909.551 851.288 910.145 850.52L912.118 852.057C910.535 854.49 908.16 855.707 904.992 855.707ZM904.591 838.765C903.287 838.765 902.192 839.243 901.307 840.198C900.422 841.141 899.875 842.468 899.665 844.18H909.132V843.935C909.039 842.294 908.596 841.024 907.804 840.128C907.013 839.22 905.941 838.765 904.591 838.765ZM920.502 831.884V836.46H924.03V838.958H920.502V850.677C920.502 851.434 920.659 852.004 920.974 852.389C921.288 852.761 921.824 852.948 922.58 852.948C922.953 852.948 923.465 852.878 924.117 852.738V855.358C923.267 855.591 922.441 855.707 921.637 855.707C920.193 855.707 919.105 855.271 918.371 854.397C917.638 853.524 917.271 852.284 917.271 850.677V838.958H913.83V836.46H917.271V831.884H920.502ZM926.615 845.734C926.615 843.883 926.976 842.218 927.698 840.739C928.431 839.26 929.444 838.119 930.737 837.316C932.041 836.512 933.526 836.111 935.191 836.111C937.764 836.111 939.842 837.001 941.426 838.783C943.021 840.564 943.819 842.934 943.819 845.891V846.119C943.819 847.958 943.464 849.612 942.753 851.079C942.055 852.534 941.048 853.67 939.732 854.485C938.428 855.3 936.926 855.707 935.226 855.707C932.664 855.707 930.586 854.816 928.99 853.035C927.407 851.253 926.615 848.896 926.615 845.961V845.734ZM929.864 846.119C929.864 848.214 930.347 849.897 931.313 851.166C932.291 852.435 933.596 853.07 935.226 853.07C936.867 853.07 938.172 852.429 939.138 851.149C940.104 849.856 940.588 848.051 940.588 845.734C940.588 843.662 940.093 841.985 939.103 840.704C938.125 839.412 936.821 838.765 935.191 838.765C933.596 838.765 932.309 839.4 931.331 840.669C930.353 841.938 929.864 843.755 929.864 846.119ZM972.742 846.119C972.742 849.006 972.078 851.329 970.751 853.087C969.424 854.834 967.642 855.707 965.406 855.707C963.019 855.707 961.174 854.863 959.87 853.175L959.713 855.358H956.743V828.531H959.975V838.538C961.279 836.92 963.078 836.111 965.372 836.111C967.665 836.111 969.464 836.978 970.768 838.713C972.084 840.448 972.742 842.823 972.742 845.839V846.119ZM969.511 845.752C969.511 843.551 969.086 841.851 968.236 840.652C967.386 839.452 966.163 838.853 964.568 838.853C962.437 838.853 960.906 839.843 959.975 841.822V849.996C960.964 851.975 962.507 852.965 964.603 852.965C966.152 852.965 967.357 852.365 968.218 851.166C969.08 849.967 969.511 848.162 969.511 845.752ZM988.496 855.358C988.31 854.985 988.158 854.322 988.042 853.367C986.54 854.927 984.747 855.707 982.663 855.707C980.8 855.707 979.268 855.183 978.069 854.135C976.881 853.076 976.288 851.737 976.288 850.118C976.288 848.15 977.033 846.625 978.523 845.542C980.025 844.448 982.133 843.9 984.846 843.9H987.99V842.416C987.99 841.286 987.652 840.39 986.977 839.726C986.301 839.051 985.306 838.713 983.99 838.713C982.837 838.713 981.871 839.004 981.091 839.586C980.311 840.169 979.92 840.873 979.92 841.7H976.672C976.672 840.757 977.004 839.848 977.667 838.975C978.343 838.09 979.251 837.391 980.392 836.879C981.545 836.367 982.808 836.111 984.182 836.111C986.36 836.111 988.065 836.658 989.3 837.752C990.534 838.835 991.174 840.332 991.221 842.241V850.939C991.221 852.674 991.442 854.054 991.885 855.078V855.358H988.496ZM983.134 852.895C984.147 852.895 985.108 852.633 986.016 852.109C986.924 851.585 987.582 850.904 987.99 850.066V846.188H985.457C981.498 846.188 979.519 847.347 979.519 849.664C979.519 850.677 979.856 851.469 980.532 852.039C981.207 852.61 982.075 852.895 983.134 852.895ZM999.342 836.46L999.447 838.835C1000.89 837.019 1002.78 836.111 1005.11 836.111C1009.1 836.111 1011.11 838.364 1011.15 842.87V855.358H1007.92V842.852C1007.91 841.49 1007.59 840.483 1006.97 839.831C1006.37 839.179 1005.42 838.853 1004.13 838.853C1003.08 838.853 1002.16 839.132 1001.37 839.691C1000.58 840.25 999.96 840.984 999.517 841.892V855.358H996.286V836.46H999.342ZM1023.6 853.07C1024.76 853.07 1025.76 852.721 1026.62 852.022C1027.49 851.323 1027.96 850.45 1028.06 849.402H1031.11C1031.05 850.485 1030.68 851.515 1029.99 852.494C1029.31 853.472 1028.39 854.252 1027.24 854.834C1026.09 855.416 1024.88 855.707 1023.6 855.707C1021.03 855.707 1018.98 854.851 1017.45 853.14C1015.94 851.416 1015.18 849.064 1015.18 846.084V845.542C1015.18 843.702 1015.52 842.066 1016.2 840.634C1016.87 839.202 1017.84 838.09 1019.1 837.298C1020.37 836.507 1021.86 836.111 1023.58 836.111C1025.7 836.111 1027.46 836.745 1028.86 838.014C1030.27 839.284 1031.02 840.931 1031.11 842.957H1028.06C1027.96 841.735 1027.5 840.733 1026.66 839.953C1025.83 839.161 1024.81 838.765 1023.58 838.765C1021.94 838.765 1020.67 839.359 1019.76 840.547C1018.86 841.723 1018.41 843.429 1018.41 845.664V846.276C1018.41 848.453 1018.86 850.13 1019.76 851.306C1020.66 852.482 1021.94 853.07 1023.6 853.07ZM1046.41 855.358C1046.23 854.985 1046.07 854.322 1045.96 853.367C1044.46 854.927 1042.66 855.707 1040.58 855.707C1038.72 855.707 1037.18 855.183 1035.99 854.135C1034.8 853.076 1034.2 851.737 1034.2 850.118C1034.2 848.15 1034.95 846.625 1036.44 845.542C1037.94 844.448 1040.05 843.9 1042.76 843.9H1045.91V842.416C1045.91 841.286 1045.57 840.39 1044.89 839.726C1044.22 839.051 1043.22 838.713 1041.91 838.713C1040.75 838.713 1039.79 839.004 1039.01 839.586C1038.23 840.169 1037.84 840.873 1037.84 841.7H1034.59C1034.59 840.757 1034.92 839.848 1035.58 838.975C1036.26 838.09 1037.17 837.391 1038.31 836.879C1039.46 836.367 1040.72 836.111 1042.1 836.111C1044.28 836.111 1045.98 836.658 1047.22 837.752C1048.45 838.835 1049.09 840.332 1049.14 842.241V850.939C1049.14 852.674 1049.36 854.054 1049.8 855.078V855.358H1046.41ZM1041.05 852.895C1042.06 852.895 1043.02 852.633 1043.93 852.109C1044.84 851.585 1045.5 850.904 1045.91 850.066V846.188H1043.37C1039.41 846.188 1037.44 847.347 1037.44 849.664C1037.44 850.677 1037.77 851.469 1038.45 852.039C1039.12 852.61 1039.99 852.895 1041.05 852.895ZM1044.04 828.531H1047.95L1043.27 833.665H1040.67L1044.04 828.531ZM1063.34 839.359C1062.85 839.278 1062.32 839.237 1061.75 839.237C1059.63 839.237 1058.19 840.139 1057.43 841.944V855.358H1054.2V836.46H1057.35L1057.4 838.643C1058.46 836.955 1059.96 836.111 1061.9 836.111C1062.53 836.111 1063.01 836.192 1063.34 836.355V839.359ZM1069.83 855.358H1066.6V836.46H1069.83V855.358ZM1066.34 831.447C1066.34 830.923 1066.5 830.481 1066.81 830.12C1067.14 829.759 1067.62 829.578 1068.24 829.578C1068.87 829.578 1069.35 829.759 1069.68 830.12C1070 830.481 1070.17 830.923 1070.17 831.447C1070.17 831.971 1070 832.408 1069.68 832.757C1069.35 833.107 1068.87 833.281 1068.24 833.281C1067.62 833.281 1067.14 833.107 1066.81 832.757C1066.5 832.408 1066.34 831.971 1066.34 831.447ZM1074.17 845.734C1074.17 843.883 1074.53 842.218 1075.25 840.739C1075.98 839.26 1077 838.119 1078.29 837.316C1079.59 836.512 1081.08 836.111 1082.74 836.111C1085.31 836.111 1087.39 837.001 1088.98 838.783C1090.57 840.564 1091.37 842.934 1091.37 845.891V846.119C1091.37 847.958 1091.01 849.612 1090.3 851.079C1089.61 852.534 1088.6 853.67 1087.28 854.485C1085.98 855.3 1084.48 855.707 1082.78 855.707C1080.21 855.707 1078.14 854.816 1076.54 853.035C1074.96 851.253 1074.17 848.896 1074.17 845.961V845.734ZM1077.41 846.119C1077.41 848.214 1077.9 849.897 1078.86 851.166C1079.84 852.435 1081.15 853.07 1082.78 853.07C1084.42 853.07 1085.72 852.429 1086.69 851.149C1087.66 849.856 1088.14 848.051 1088.14 845.734C1088.14 843.662 1087.64 841.985 1086.65 840.704C1085.68 839.412 1084.37 838.765 1082.74 838.765C1081.15 838.765 1079.86 839.4 1078.88 840.669C1077.9 841.938 1077.41 843.755 1077.41 846.119ZM857.883 877.358C857.787 877.165 857.708 876.821 857.648 876.325C856.869 877.135 855.939 877.539 854.859 877.539C853.893 877.539 853.099 877.267 852.477 876.724C851.861 876.175 851.553 875.48 851.553 874.641C851.553 873.621 851.939 872.83 852.712 872.268C853.491 871.701 854.584 871.417 855.991 871.417H857.621V870.647C857.621 870.062 857.446 869.597 857.096 869.253C856.745 868.902 856.229 868.727 855.547 868.727C854.949 868.727 854.448 868.878 854.044 869.18C853.639 869.482 853.437 869.847 853.437 870.276H851.752C851.752 869.787 851.924 869.316 852.269 868.863C852.619 868.404 853.09 868.042 853.681 867.776C854.279 867.511 854.934 867.378 855.647 867.378C856.776 867.378 857.66 867.662 858.3 868.229C858.94 868.791 859.272 869.566 859.296 870.557V875.067C859.296 875.966 859.411 876.682 859.64 877.213V877.358H857.883ZM855.103 876.081C855.628 876.081 856.127 875.945 856.597 875.673C857.068 875.402 857.409 875.049 857.621 874.614V872.603H856.308C854.255 872.603 853.228 873.204 853.228 874.406C853.228 874.931 853.404 875.341 853.754 875.637C854.104 875.933 854.554 876.081 855.103 876.081ZM870.2 872.567C870.2 874.058 869.859 875.26 869.177 876.172C868.494 877.083 867.571 877.539 866.405 877.539C865.216 877.539 864.28 877.162 863.598 876.407V881.125H861.923V867.559H863.453L863.535 868.646C864.217 867.8 865.165 867.378 866.378 867.378C867.556 867.378 868.485 867.822 869.168 868.709C869.856 869.597 870.2 870.831 870.2 872.413V872.567ZM868.525 872.377C868.525 871.272 868.289 870.4 867.818 869.76C867.347 869.12 866.701 868.8 865.88 868.8C864.866 868.8 864.105 869.249 863.598 870.149V874.831C864.099 875.725 864.866 876.172 865.898 876.172C866.701 876.172 867.338 875.855 867.809 875.221C868.286 874.581 868.525 873.633 868.525 872.377ZM877.074 869.062C876.82 869.02 876.545 868.999 876.25 868.999C875.151 868.999 874.405 869.467 874.013 870.403V877.358H872.337V867.559H873.967L873.995 868.691C874.544 867.816 875.323 867.378 876.331 867.378C876.657 867.378 876.905 867.42 877.074 867.505V869.062ZM877.997 872.368C877.997 871.408 878.185 870.545 878.559 869.778C878.939 869.011 879.465 868.419 880.135 868.003C880.811 867.586 881.581 867.378 882.444 867.378C883.778 867.378 884.856 867.84 885.677 868.763C886.504 869.687 886.918 870.916 886.918 872.449V872.567C886.918 873.521 886.734 874.378 886.366 875.139C886.003 875.894 885.481 876.482 884.799 876.905C884.123 877.328 883.344 877.539 882.462 877.539C881.134 877.539 880.056 877.077 879.229 876.153C878.408 875.23 877.997 874.007 877.997 872.486V872.368ZM879.682 872.567C879.682 873.654 879.933 874.526 880.434 875.184C880.941 875.842 881.617 876.172 882.462 876.172C883.314 876.172 883.99 875.839 884.491 875.175C884.992 874.505 885.243 873.569 885.243 872.368C885.243 871.293 884.986 870.424 884.473 869.76C883.966 869.089 883.289 868.754 882.444 868.754C881.617 868.754 880.95 869.083 880.443 869.742C879.936 870.4 879.682 871.341 879.682 872.567ZM892.107 875.085L894.534 867.559H896.246L892.732 877.358H891.455L887.905 867.559H889.617L892.107 875.085ZM903.763 877.358C903.666 877.165 903.588 876.821 903.527 876.325C902.748 877.135 901.819 877.539 900.738 877.539C899.772 877.539 898.978 877.267 898.356 876.724C897.74 876.175 897.432 875.48 897.432 874.641C897.432 873.621 897.819 872.83 898.592 872.268C899.37 871.701 900.463 871.417 901.87 871.417H903.5V870.647C903.5 870.062 903.325 869.597 902.975 869.253C902.625 868.902 902.108 868.727 901.426 868.727C900.828 868.727 900.327 868.878 899.923 869.18C899.518 869.482 899.316 869.847 899.316 870.276H897.632C897.632 869.787 897.804 869.316 898.148 868.863C898.498 868.404 898.969 868.042 899.561 867.776C900.158 867.511 900.813 867.378 901.526 867.378C902.655 867.378 903.539 867.662 904.179 868.229C904.819 868.791 905.151 869.566 905.175 870.557V875.067C905.175 875.966 905.29 876.682 905.52 877.213V877.358H903.763ZM900.982 876.081C901.508 876.081 902.006 875.945 902.477 875.673C902.948 875.402 903.289 875.049 903.5 874.614V872.603H902.187C900.134 872.603 899.108 873.204 899.108 874.406C899.108 874.931 899.283 875.341 899.633 875.637C899.983 875.933 900.433 876.081 900.982 876.081ZM907.394 872.377C907.394 870.874 907.751 869.666 908.463 868.754C909.175 867.837 910.108 867.378 911.261 867.378C912.408 867.378 913.317 867.77 913.987 868.555V863.447H915.663V877.358H914.123L914.042 876.307C913.371 877.128 912.439 877.539 911.243 877.539C910.108 877.539 909.181 877.074 908.463 876.144C907.751 875.215 907.394 874.001 907.394 872.504V872.377ZM909.07 872.567C909.07 873.678 909.299 874.547 909.758 875.175C910.217 875.803 910.851 876.117 911.66 876.117C912.722 876.117 913.498 875.64 913.987 874.686V870.185C913.486 869.262 912.716 868.8 911.678 868.8C910.857 868.8 910.217 869.117 909.758 869.751C909.299 870.385 909.07 871.323 909.07 872.567ZM917.827 872.368C917.827 871.408 918.014 870.545 918.389 869.778C918.769 869.011 919.294 868.419 919.964 868.003C920.641 867.586 921.41 867.378 922.274 867.378C923.608 867.378 924.686 867.84 925.507 868.763C926.334 869.687 926.748 870.916 926.748 872.449V872.567C926.748 873.521 926.563 874.378 926.195 875.139C925.833 875.894 925.311 876.482 924.628 876.905C923.952 877.328 923.173 877.539 922.292 877.539C920.964 877.539 919.886 877.077 919.059 876.153C918.238 875.23 917.827 874.007 917.827 872.486V872.368ZM919.512 872.567C919.512 873.654 919.762 874.526 920.263 875.184C920.77 875.842 921.447 876.172 922.292 876.172C923.143 876.172 923.819 875.839 924.321 875.175C924.822 874.505 925.072 873.569 925.072 872.368C925.072 871.293 924.816 870.424 924.302 869.76C923.795 869.089 923.119 868.754 922.274 868.754C921.447 868.754 920.78 869.083 920.272 869.742C919.765 870.4 919.512 871.341 919.512 872.567ZM937.516 877.539C936.187 877.539 935.107 877.104 934.273 876.235C933.44 875.359 933.024 874.191 933.024 872.73V872.422C933.024 871.45 933.208 870.584 933.576 869.823C933.95 869.056 934.47 868.459 935.134 868.03C935.804 867.595 936.528 867.378 937.307 867.378C938.581 867.378 939.571 867.797 940.278 868.637C940.984 869.476 941.337 870.677 941.337 872.241V872.938H934.699C934.723 873.904 935.004 874.686 935.541 875.284C936.085 875.876 936.773 876.172 937.606 876.172C938.198 876.172 938.699 876.051 939.109 875.809C939.52 875.568 939.879 875.248 940.187 874.849L941.211 875.646C940.389 876.908 939.158 877.539 937.516 877.539ZM937.307 868.754C936.631 868.754 936.064 869.002 935.605 869.497C935.146 869.986 934.862 870.674 934.753 871.562H939.662V871.435C939.614 870.584 939.384 869.926 938.974 869.461C938.563 868.99 938.008 868.754 937.307 868.754ZM944.86 867.559L944.906 868.646C945.624 867.8 946.593 867.378 947.813 867.378C949.183 867.378 950.116 867.903 950.611 868.954C950.937 868.483 951.36 868.102 951.879 867.813C952.404 867.523 953.023 867.378 953.735 867.378C955.885 867.378 956.978 868.516 957.014 870.792V877.358H955.338V870.892C955.338 870.191 955.178 869.669 954.858 869.325C954.538 868.975 954.001 868.8 953.246 868.8C952.625 868.8 952.108 868.987 951.698 869.361C951.287 869.729 951.049 870.228 950.982 870.855V877.358H949.298V870.937C949.298 869.512 948.601 868.8 947.206 868.8C946.107 868.8 945.355 869.268 944.951 870.203V877.358H943.275V867.559H944.86ZM970.2 877.358C970.103 877.165 970.025 876.821 969.964 876.325C969.186 877.135 968.256 877.539 967.175 877.539C966.209 877.539 965.415 877.267 964.793 876.724C964.177 876.175 963.869 875.48 963.869 874.641C963.869 873.621 964.256 872.83 965.029 872.268C965.808 871.701 966.9 871.417 968.307 871.417H969.937V870.647C969.937 870.062 969.762 869.597 969.412 869.253C969.062 868.902 968.546 868.727 967.863 868.727C967.266 868.727 966.764 868.878 966.36 869.18C965.955 869.482 965.753 869.847 965.753 870.276H964.069C964.069 869.787 964.241 869.316 964.585 868.863C964.935 868.404 965.406 868.042 965.998 867.776C966.595 867.511 967.25 867.378 967.963 867.378C969.092 867.378 969.976 867.662 970.616 868.229C971.256 868.791 971.588 869.566 971.613 870.557V875.067C971.613 875.966 971.727 876.682 971.957 877.213V877.358H970.2ZM967.42 876.081C967.945 876.081 968.443 875.945 968.914 875.673C969.385 875.402 969.726 875.049 969.937 874.614V872.603H968.624C966.571 872.603 965.545 873.204 965.545 874.406C965.545 874.931 965.72 875.341 966.07 875.637C966.42 875.933 966.87 876.081 967.42 876.081ZM976.512 865.186V867.559H978.341V868.854H976.512V874.931C976.512 875.323 976.594 875.619 976.757 875.818C976.92 876.012 977.197 876.108 977.59 876.108C977.783 876.108 978.049 876.072 978.387 875.999V877.358C977.946 877.479 977.517 877.539 977.101 877.539C976.352 877.539 975.788 877.313 975.407 876.86C975.027 876.407 974.837 875.764 974.837 874.931V868.854H973.053V867.559H974.837V865.186H976.512ZM984.373 877.539C983.045 877.539 981.964 877.104 981.131 876.235C980.298 875.359 979.881 874.191 979.881 872.73V872.422C979.881 871.45 980.065 870.584 980.433 869.823C980.808 869.056 981.327 868.459 981.991 868.03C982.661 867.595 983.386 867.378 984.165 867.378C985.439 867.378 986.429 867.797 987.135 868.637C987.842 869.476 988.195 870.677 988.195 872.241V872.938H981.556C981.581 873.904 981.861 874.686 982.399 875.284C982.942 875.876 983.63 876.172 984.464 876.172C985.055 876.172 985.556 876.051 985.967 875.809C986.377 875.568 986.737 875.248 987.045 874.849L988.068 875.646C987.247 876.908 986.015 877.539 984.373 877.539ZM984.165 868.754C983.488 868.754 982.921 869.002 982.462 869.497C982.003 869.986 981.719 870.674 981.611 871.562H986.519V871.435C986.471 870.584 986.242 869.926 985.831 869.461C985.42 868.99 984.865 868.754 984.165 868.754ZM984.98 863.447H987.008L984.581 866.11H983.232L984.98 863.447ZM1003.21 877.358H994.57V876.153L999.135 871.082C999.811 870.315 1000.28 869.693 1000.53 869.216C1000.79 868.733 1000.92 868.235 1000.92 867.722C1000.92 867.034 1000.71 866.469 1000.29 866.028C999.877 865.588 999.322 865.367 998.628 865.367C997.794 865.367 997.145 865.606 996.68 866.083C996.222 866.554 995.992 867.212 995.992 868.057H994.317C994.317 866.844 994.706 865.862 995.485 865.114C996.27 864.365 997.317 863.991 998.628 863.991C999.853 863.991 1000.82 864.314 1001.53 864.96C1002.25 865.6 1002.6 866.454 1002.6 867.523C1002.6 868.821 1001.78 870.366 1000.12 872.16L996.59 875.99H1003.21V877.358ZM1009.35 872.377C1009.35 870.874 1009.71 869.666 1010.42 868.754C1011.13 867.837 1012.06 867.378 1013.22 867.378C1014.36 867.378 1015.27 867.77 1015.94 868.555V863.447H1017.62V877.358H1016.08L1016 876.307C1015.33 877.128 1014.39 877.539 1013.2 877.539C1012.06 877.539 1011.14 877.074 1010.42 876.144C1009.71 875.215 1009.35 874.001 1009.35 872.504V872.377ZM1011.03 872.567C1011.03 873.678 1011.26 874.547 1011.71 875.175C1012.17 875.803 1012.81 876.117 1013.62 876.117C1014.68 876.117 1015.45 875.64 1015.94 874.686V870.185C1015.44 869.262 1014.67 868.8 1013.63 868.8C1012.81 868.8 1012.17 869.117 1011.71 869.751C1011.26 870.385 1011.03 871.323 1011.03 872.567ZM1022.05 877.358H1020.37V867.559H1022.05V877.358ZM1020.24 864.96C1020.24 864.688 1020.32 864.459 1020.48 864.272C1020.65 864.084 1020.9 863.991 1021.22 863.991C1021.55 863.991 1021.8 864.084 1021.97 864.272C1022.13 864.459 1022.22 864.688 1022.22 864.96C1022.22 865.232 1022.13 865.458 1021.97 865.639C1021.8 865.82 1021.55 865.911 1021.22 865.911C1020.9 865.911 1020.65 865.82 1020.48 865.639C1020.32 865.458 1020.24 865.232 1020.24 864.96ZM1030.79 877.358C1030.69 877.165 1030.61 876.821 1030.55 876.325C1029.77 877.135 1028.84 877.539 1027.76 877.539C1026.8 877.539 1026 877.267 1025.38 876.724C1024.76 876.175 1024.46 875.48 1024.46 874.641C1024.46 873.621 1024.84 872.83 1025.62 872.268C1026.39 871.701 1027.49 871.417 1028.89 871.417H1030.52V870.647C1030.52 870.062 1030.35 869.597 1030 869.253C1029.65 868.902 1029.13 868.727 1028.45 868.727C1027.85 868.727 1027.35 868.878 1026.95 869.18C1026.54 869.482 1026.34 869.847 1026.34 870.276H1024.66C1024.66 869.787 1024.83 869.316 1025.17 868.863C1025.52 868.404 1025.99 868.042 1026.58 867.776C1027.18 867.511 1027.84 867.378 1028.55 867.378C1029.68 867.378 1030.56 867.662 1031.2 868.229C1031.84 868.791 1032.18 869.566 1032.2 870.557V875.067C1032.2 875.966 1032.31 876.682 1032.54 877.213V877.358H1030.79ZM1028.01 876.081C1028.53 876.081 1029.03 875.945 1029.5 875.673C1029.97 875.402 1030.31 875.049 1030.52 874.614V872.603H1029.21C1027.16 872.603 1026.13 873.204 1026.13 874.406C1026.13 874.931 1026.31 875.341 1026.66 875.637C1027.01 875.933 1027.46 876.081 1028.01 876.081ZM1040.53 874.759C1040.53 874.306 1040.36 873.956 1040.01 873.708C1039.68 873.455 1039.08 873.237 1038.23 873.056C1037.39 872.875 1036.71 872.658 1036.21 872.404C1035.72 872.151 1035.35 871.849 1035.11 871.498C1034.87 871.148 1034.75 870.732 1034.75 870.249C1034.75 869.446 1035.09 868.766 1035.77 868.211C1036.45 867.656 1037.32 867.378 1038.38 867.378C1039.49 867.378 1040.39 867.665 1041.07 868.238C1041.77 868.812 1042.12 869.545 1042.12 870.439H1040.43C1040.43 869.98 1040.24 869.585 1039.84 869.253C1039.46 868.92 1038.97 868.754 1038.38 868.754C1037.77 868.754 1037.29 868.887 1036.94 869.153C1036.6 869.419 1036.43 869.766 1036.43 870.194C1036.43 870.599 1036.59 870.904 1036.91 871.109C1037.23 871.314 1037.81 871.511 1038.64 871.698C1039.48 871.885 1040.16 872.108 1040.68 872.368C1041.2 872.627 1041.58 872.941 1041.83 873.31C1042.08 873.672 1042.21 874.116 1042.21 874.641C1042.21 875.516 1041.86 876.22 1041.16 876.751C1040.46 877.276 1039.55 877.539 1038.43 877.539C1037.65 877.539 1036.95 877.4 1036.35 877.122C1035.74 876.845 1035.27 876.458 1034.93 875.963C1034.59 875.462 1034.42 874.922 1034.42 874.342H1036.09C1036.12 874.904 1036.35 875.35 1036.76 875.682C1037.19 876.009 1037.74 876.172 1038.43 876.172C1039.06 876.172 1039.57 876.045 1039.95 875.791C1040.34 875.532 1040.53 875.187 1040.53 874.759ZM1055.04 876.389C1054.39 877.156 1053.43 877.539 1052.17 877.539C1051.12 877.539 1050.33 877.237 1049.78 876.633C1049.23 876.024 1048.96 875.124 1048.95 873.935V867.559H1050.63V873.889C1050.63 875.375 1051.23 876.117 1052.44 876.117C1053.72 876.117 1054.57 875.64 1054.99 874.686V867.559H1056.67V877.358H1055.08L1055.04 876.389ZM1053.68 863.447H1055.71L1053.28 866.11H1051.93L1053.68 863.447ZM1061.5 865.186V867.559H1063.33V868.854H1061.5V874.931C1061.5 875.323 1061.58 875.619 1061.74 875.818C1061.9 876.012 1062.18 876.108 1062.57 876.108C1062.77 876.108 1063.03 876.072 1063.37 875.999V877.358C1062.93 877.479 1062.5 877.539 1062.09 877.539C1061.34 877.539 1060.77 877.313 1060.39 876.86C1060.01 876.407 1059.82 875.764 1059.82 874.931V868.854H1058.04V867.559H1059.82V865.186H1061.5ZM1069.36 877.539C1068.03 877.539 1066.95 877.104 1066.12 876.235C1065.28 875.359 1064.87 874.191 1064.87 872.73V872.422C1064.87 871.45 1065.05 870.584 1065.42 869.823C1065.79 869.056 1066.31 868.459 1066.98 868.03C1067.65 867.595 1068.37 867.378 1069.15 867.378C1070.42 867.378 1071.41 867.797 1072.12 868.637C1072.83 869.476 1073.18 870.677 1073.18 872.241V872.938H1066.54C1066.57 873.904 1066.85 874.686 1067.38 875.284C1067.93 875.876 1068.61 876.172 1069.45 876.172C1070.04 876.172 1070.54 876.051 1070.95 875.809C1071.36 875.568 1071.72 875.248 1072.03 874.849L1073.05 875.646C1072.23 876.908 1071 877.539 1069.36 877.539ZM1069.15 868.754C1068.47 868.754 1067.91 869.002 1067.45 869.497C1066.99 869.986 1066.7 870.674 1066.6 871.562H1071.5V871.435C1071.46 870.584 1071.23 869.926 1070.82 869.461C1070.4 868.99 1069.85 868.754 1069.15 868.754ZM1076.95 877.358H1075.27V867.559H1076.95V877.358ZM1075.14 864.96C1075.14 864.688 1075.22 864.459 1075.38 864.272C1075.55 864.084 1075.8 863.991 1076.12 863.991C1076.45 863.991 1076.7 864.084 1076.87 864.272C1077.03 864.459 1077.12 864.688 1077.12 864.96C1077.12 865.232 1077.03 865.458 1076.87 865.639C1076.7 865.82 1076.45 865.911 1076.12 865.911C1075.8 865.911 1075.55 865.82 1075.38 865.639C1075.22 865.458 1075.14 865.232 1075.14 864.96ZM1085.34 874.759C1085.34 874.306 1085.17 873.956 1084.83 873.708C1084.49 873.455 1083.89 873.237 1083.04 873.056C1082.2 872.875 1081.52 872.658 1081.02 872.404C1080.53 872.151 1080.16 871.849 1079.92 871.498C1079.68 871.148 1079.56 870.732 1079.56 870.249C1079.56 869.446 1079.9 868.766 1080.58 868.211C1081.26 867.656 1082.13 867.378 1083.19 867.378C1084.3 867.378 1085.2 867.665 1085.89 868.238C1086.58 868.812 1086.93 869.545 1086.93 870.439H1085.24C1085.24 869.98 1085.05 869.585 1084.65 869.253C1084.27 868.92 1083.78 868.754 1083.19 868.754C1082.58 868.754 1082.1 868.887 1081.76 869.153C1081.41 869.419 1081.24 869.766 1081.24 870.194C1081.24 870.599 1081.4 870.904 1081.72 871.109C1082.04 871.314 1082.62 871.511 1083.45 871.698C1084.29 871.885 1084.97 872.108 1085.49 872.368C1086.01 872.627 1086.39 872.941 1086.64 873.31C1086.89 873.672 1087.02 874.116 1087.02 874.641C1087.02 875.516 1086.67 876.22 1085.97 876.751C1085.27 877.276 1084.36 877.539 1083.24 877.539C1082.46 877.539 1081.76 877.4 1081.16 877.122C1080.55 876.845 1080.08 876.458 1079.74 875.963C1079.4 875.462 1079.23 874.922 1079.23 874.342H1080.9C1080.93 874.904 1081.16 875.35 1081.57 875.682C1082 876.009 1082.55 876.172 1083.24 876.172C1083.87 876.172 1084.38 876.045 1084.76 875.791C1085.15 875.532 1085.34 875.187 1085.34 874.759Z" fill="#232323"/>
<g clip-path="url(#clip5)">
<path d="M676.797 702.387H546.857C539.216 702.387 533 708.603 533 716.243V791.374C533 799.015 539.216 805.231 546.857 805.231H676.797C684.437 805.231 690.653 799.015 690.653 791.374V716.243C690.653 708.603 684.437 702.387 676.797 702.387ZM681.415 791.374C681.415 793.921 679.343 795.993 676.797 795.993H546.857C544.31 795.993 542.238 793.921 542.238 791.374V736.566H681.415V791.374ZM681.415 727.328H542.238V716.243C542.238 713.696 544.31 711.625 546.857 711.625H676.797C679.343 711.625 681.415 713.696 681.415 716.243V727.328Z" fill="#232323"/>
<path d="M562.561 780.597H601.974C604.524 780.597 606.592 778.529 606.592 775.978C606.592 773.428 604.524 771.36 601.974 771.36H562.561C560.01 771.36 557.942 773.428 557.942 775.978C557.942 778.529 560.01 780.597 562.561 780.597Z" fill="#232323"/>
<path d="M562.561 760.891H601.974C604.524 760.891 606.592 758.823 606.592 756.272C606.592 753.722 604.524 751.654 601.974 751.654H562.561C560.01 751.654 557.942 753.722 557.942 756.272C557.942 758.823 560.01 760.891 562.561 760.891Z" fill="#232323"/>
<path d="M636.46 780.598H666.02C668.571 780.598 670.639 778.53 670.639 775.979V756.272C670.639 753.722 668.571 751.654 666.02 751.654H636.46C633.909 751.654 631.841 753.722 631.841 756.272V775.979C631.841 778.53 633.909 780.598 636.46 780.598ZM641.079 760.891H661.401V771.36H641.079V760.891Z" fill="#232323"/>
</g>
<path d="M565.986 849.436C567.138 849.436 568.145 849.087 569.007 848.389C569.869 847.69 570.346 846.817 570.439 845.769H573.496C573.438 846.852 573.065 847.882 572.378 848.86C571.691 849.838 570.771 850.618 569.618 851.201C568.477 851.783 567.266 852.074 565.986 852.074C563.412 852.074 561.363 851.218 559.838 849.506C558.324 847.783 557.567 845.431 557.567 842.45V841.909C557.567 840.069 557.905 838.433 558.58 837.001C559.255 835.569 560.222 834.457 561.479 833.665C562.749 832.873 564.245 832.477 565.968 832.477C568.087 832.477 569.845 833.112 571.243 834.381C572.652 835.65 573.403 837.298 573.496 839.324H570.439C570.346 838.101 569.88 837.1 569.042 836.32C568.215 835.528 567.191 835.132 565.968 835.132C564.326 835.132 563.051 835.726 562.143 836.914C561.247 838.09 560.798 839.795 560.798 842.031V842.642C560.798 844.82 561.247 846.496 562.143 847.672C563.04 848.848 564.32 849.436 565.986 849.436ZM586.263 835.726C585.774 835.644 585.244 835.604 584.674 835.604C582.555 835.604 581.117 836.506 580.36 838.311V851.724H577.129V832.827H580.273L580.325 835.01C581.385 833.321 582.887 832.477 584.831 832.477C585.46 832.477 585.937 832.559 586.263 832.722V835.726ZM596.743 852.074C594.181 852.074 592.097 851.235 590.49 849.559C588.883 847.87 588.08 845.617 588.08 842.799V842.206C588.08 840.331 588.435 838.66 589.145 837.193C589.867 835.714 590.868 834.561 592.149 833.735C593.442 832.896 594.839 832.477 596.341 832.477C598.798 832.477 600.707 833.286 602.07 834.905C603.432 836.523 604.113 838.841 604.113 841.856V843.201H591.311C591.357 845.064 591.899 846.572 592.935 847.725C593.983 848.866 595.311 849.436 596.917 849.436C598.058 849.436 599.025 849.204 599.817 848.738C600.608 848.272 601.301 847.655 601.895 846.886L603.869 848.423C602.285 850.857 599.91 852.074 596.743 852.074ZM596.341 835.132C595.037 835.132 593.942 835.609 593.057 836.564C592.173 837.507 591.625 838.835 591.416 840.546H600.882V840.302C600.789 838.66 600.346 837.391 599.555 836.494C598.763 835.586 597.692 835.132 596.341 835.132ZM597.913 824.897H601.825L597.144 830.032H594.542L597.913 824.897ZM607.082 842.118C607.082 839.219 607.769 836.89 609.143 835.132C610.517 833.362 612.316 832.477 614.54 832.477C616.753 832.477 618.505 833.234 619.798 834.748V824.897H623.029V851.724H620.059L619.902 849.698C618.61 851.282 616.811 852.074 614.505 852.074C612.316 852.074 610.529 851.177 609.143 849.384C607.769 847.591 607.082 845.251 607.082 842.363V842.118ZM610.314 842.485C610.314 844.628 610.756 846.304 611.641 847.515C612.526 848.726 613.749 849.332 615.309 849.332C617.358 849.332 618.854 848.412 619.798 846.572V837.892C618.831 836.11 617.346 835.219 615.344 835.219C613.76 835.219 612.526 835.831 611.641 837.053C610.756 838.276 610.314 840.086 610.314 842.485ZM631.569 851.724H628.338V832.827H631.569V851.724ZM628.076 827.814C628.076 827.29 628.233 826.847 628.548 826.486C628.874 826.126 629.351 825.945 629.98 825.945C630.609 825.945 631.086 826.126 631.412 826.486C631.738 826.847 631.901 827.29 631.901 827.814C631.901 828.338 631.738 828.774 631.412 829.124C631.086 829.473 630.609 829.648 629.98 829.648C629.351 829.648 628.874 829.473 628.548 829.124C628.233 828.774 628.076 828.338 628.076 827.814ZM641.141 828.251V832.827H644.669V835.324H641.141V847.044C641.141 847.801 641.298 848.371 641.612 848.755C641.927 849.128 642.462 849.314 643.219 849.314C643.592 849.314 644.104 849.244 644.756 849.105V851.724C643.906 851.957 643.079 852.074 642.276 852.074C640.832 852.074 639.743 851.637 639.01 850.764C638.276 849.891 637.909 848.651 637.909 847.044V835.324H634.469V832.827H637.909V828.251H641.141ZM647.254 842.101C647.254 840.249 647.615 838.584 648.337 837.106C649.07 835.627 650.083 834.486 651.376 833.682C652.68 832.879 654.164 832.477 655.829 832.477C658.403 832.477 660.481 833.368 662.065 835.149C663.66 836.931 664.457 839.301 664.457 842.258V842.485C664.457 844.325 664.102 845.978 663.392 847.445C662.693 848.901 661.686 850.036 660.37 850.851C659.066 851.666 657.564 852.074 655.864 852.074C653.303 852.074 651.224 851.183 649.629 849.402C648.045 847.62 647.254 845.262 647.254 842.328V842.101ZM650.502 842.485C650.502 844.581 650.985 846.264 651.952 847.533C652.93 848.802 654.234 849.436 655.864 849.436C657.506 849.436 658.81 848.796 659.777 847.515C660.743 846.223 661.226 844.418 661.226 842.101C661.226 840.028 660.731 838.352 659.742 837.071C658.764 835.778 657.459 835.132 655.829 835.132C654.234 835.132 652.947 835.767 651.969 837.036C650.991 838.305 650.502 840.121 650.502 842.485Z" fill="#232323"/>
<path d="M679.449 646.114C679.449 650.864 678.37 654.658 676.212 657.496C674.055 660.316 671.16 661.726 667.526 661.726C664.158 661.726 661.461 660.619 659.436 658.405V672.967H652.538V630.444H658.897L659.181 633.567C661.206 631.107 663.959 629.877 667.441 629.877C671.188 629.877 674.121 631.277 676.241 634.078C678.379 636.86 679.449 640.73 679.449 645.688V646.114ZM672.579 645.517C672.579 642.452 671.964 640.02 670.734 638.222C669.523 636.424 667.782 635.525 665.511 635.525C662.691 635.525 660.666 636.689 659.436 639.017V652.642C660.685 655.027 662.729 656.219 665.568 656.219C667.763 656.219 669.475 655.339 670.706 653.579C671.955 651.8 672.579 649.113 672.579 645.517ZM703.662 661.158C703.359 660.572 703.094 659.616 702.867 658.291C700.672 660.581 697.985 661.726 694.806 661.726C691.721 661.726 689.204 660.846 687.255 659.086C685.306 657.326 684.331 655.15 684.331 652.557C684.331 649.283 685.542 646.776 687.964 645.035C690.406 643.275 693.888 642.395 698.411 642.395H702.64V640.38C702.64 638.79 702.195 637.522 701.306 636.576C700.417 635.611 699.064 635.128 697.247 635.128C695.676 635.128 694.389 635.525 693.386 636.32C692.383 637.096 691.882 638.09 691.882 639.301H684.984C684.984 637.617 685.542 636.046 686.659 634.589C687.775 633.113 689.289 631.958 691.2 631.126C693.131 630.293 695.279 629.877 697.644 629.877C701.24 629.877 704.107 630.785 706.245 632.602C708.384 634.399 709.481 636.935 709.538 640.209V654.062C709.538 656.825 709.926 659.029 710.702 660.676V661.158H703.662ZM696.083 656.191C697.445 656.191 698.723 655.86 699.915 655.197C701.126 654.535 702.035 653.645 702.64 652.529V646.738H698.922C696.367 646.738 694.446 647.183 693.159 648.072C691.872 648.962 691.229 650.22 691.229 651.848C691.229 653.172 691.664 654.232 692.535 655.027C693.424 655.803 694.607 656.191 696.083 656.191ZM715.556 645.574C715.556 640.805 716.673 637.002 718.906 634.163C721.158 631.305 724.138 629.877 727.847 629.877C731.348 629.877 734.102 631.097 736.108 633.538L736.42 630.444H742.637V660.222C742.637 664.252 741.378 667.432 738.861 669.759C736.363 672.087 732.985 673.251 728.727 673.251C726.475 673.251 724.271 672.778 722.113 671.832C719.975 670.904 718.347 669.684 717.231 668.17L720.495 664.025C722.615 666.542 725.226 667.801 728.33 667.801C730.62 667.801 732.427 667.176 733.752 665.927C735.076 664.697 735.739 662.88 735.739 660.477V658.405C733.752 660.619 731.102 661.726 727.791 661.726C724.195 661.726 721.252 660.297 718.962 657.44C716.691 654.582 715.556 650.627 715.556 645.574ZM722.425 646.17C722.425 649.255 723.05 651.687 724.299 653.466C725.567 655.226 727.317 656.106 729.55 656.106C732.332 656.106 734.395 654.913 735.739 652.529V639.017C734.433 636.689 732.389 635.525 729.607 635.525C727.336 635.525 725.567 636.424 724.299 638.222C723.05 640.02 722.425 642.669 722.425 646.17ZM768.099 661.158C767.796 660.572 767.531 659.616 767.304 658.291C765.109 660.581 762.422 661.726 759.243 661.726C756.158 661.726 753.641 660.846 751.692 659.086C749.743 657.326 748.768 655.15 748.768 652.557C748.768 649.283 749.979 646.776 752.401 645.035C754.843 643.275 758.325 642.395 762.848 642.395H767.077V640.38C767.077 638.79 766.633 637.522 765.743 636.576C764.854 635.611 763.501 635.128 761.684 635.128C760.113 635.128 758.826 635.525 757.823 636.32C756.82 637.096 756.319 638.09 756.319 639.301H749.421C749.421 637.617 749.979 636.046 751.096 634.589C752.212 633.113 753.726 631.958 755.638 631.126C757.568 630.293 759.716 629.877 762.081 629.877C765.677 629.877 768.544 630.785 770.682 632.602C772.821 634.399 773.918 636.935 773.975 640.209V654.062C773.975 656.825 774.363 659.029 775.139 660.676V661.158H768.099ZM760.52 656.191C761.883 656.191 763.16 655.86 764.352 655.197C765.563 654.535 766.472 653.645 767.077 652.529V646.738H763.359C760.804 646.738 758.883 647.183 757.596 648.072C756.309 648.962 755.666 650.22 755.666 651.848C755.666 653.172 756.101 654.232 756.972 655.027C757.861 655.803 759.044 656.191 760.52 656.191ZM787.686 630.444L787.884 633.652C790.042 631.135 792.994 629.877 796.741 629.877C800.848 629.877 803.658 631.447 805.172 634.589C807.405 631.447 810.546 629.877 814.596 629.877C817.983 629.877 820.5 630.813 822.147 632.687C823.812 634.56 824.664 637.323 824.702 640.976V661.158H817.804V641.174C817.804 639.225 817.378 637.796 816.526 636.888C815.675 635.98 814.265 635.525 812.297 635.525C810.726 635.525 809.439 635.951 808.436 636.803C807.452 637.635 806.761 638.733 806.364 640.096L806.392 661.158H799.494V640.947C799.4 637.333 797.555 635.525 793.959 635.525C791.196 635.525 789.237 636.651 788.083 638.903V661.158H781.185V630.444H787.686ZM845.31 661.726C840.939 661.726 837.39 660.354 834.665 657.61C831.959 654.847 830.606 651.176 830.606 646.596V645.745C830.606 642.679 831.193 639.944 832.366 637.541C833.558 635.119 835.223 633.236 837.362 631.892C839.5 630.548 841.885 629.877 844.515 629.877C848.697 629.877 851.924 631.211 854.195 633.879C856.485 636.547 857.63 640.323 857.63 645.205V647.987H837.561C837.769 650.523 838.611 652.529 840.087 654.005C841.582 655.481 843.455 656.219 845.707 656.219C848.868 656.219 851.441 654.942 853.429 652.387L857.147 655.935C855.917 657.771 854.271 659.2 852.208 660.222C850.164 661.225 847.865 661.726 845.31 661.726ZM844.487 635.412C842.594 635.412 841.062 636.074 839.888 637.399C838.734 638.724 837.996 640.569 837.674 642.934H850.817V642.423C850.666 640.115 850.051 638.374 848.972 637.2C847.893 636.008 846.398 635.412 844.487 635.412ZM869.41 630.444L869.609 633.993C871.88 631.249 874.86 629.877 878.55 629.877C884.947 629.877 888.202 633.538 888.315 640.862V661.158H881.417V641.259C881.417 639.31 880.992 637.872 880.14 636.945C879.307 635.999 877.935 635.525 876.024 635.525C873.242 635.525 871.17 636.784 869.807 639.301V661.158H862.91V630.444H869.41ZM904.013 622.979V630.444H909.435V635.554H904.013V652.699C904.013 653.872 904.24 654.724 904.694 655.254C905.167 655.765 906 656.02 907.192 656.02C907.987 656.02 908.791 655.926 909.605 655.737V661.073C908.034 661.508 906.52 661.726 905.063 661.726C899.765 661.726 897.115 658.802 897.115 652.955V635.554H892.062V630.444H897.115V622.979H904.013ZM912.586 645.517C912.586 642.508 913.182 639.802 914.374 637.399C915.566 634.977 917.241 633.122 919.398 631.835C921.556 630.529 924.035 629.877 926.836 629.877C930.98 629.877 934.339 631.211 936.913 633.879C939.505 636.547 940.906 640.086 941.114 644.496L941.142 646.114C941.142 649.141 940.556 651.848 939.382 654.232C938.228 656.617 936.563 658.462 934.386 659.767C932.229 661.073 929.731 661.726 926.892 661.726C922.559 661.726 919.086 660.288 916.475 657.411C913.882 654.516 912.586 650.665 912.586 645.858V645.517ZM919.484 646.114C919.484 649.274 920.136 651.753 921.442 653.551C922.748 655.33 924.565 656.219 926.892 656.219C929.22 656.219 931.027 655.311 932.314 653.494C933.62 651.677 934.273 649.018 934.273 645.517C934.273 642.414 933.601 639.954 932.257 638.137C930.933 636.32 929.125 635.412 926.836 635.412C924.584 635.412 922.795 636.311 921.471 638.109C920.146 639.887 919.484 642.556 919.484 646.114ZM963.88 661.158V635.554H959.196V630.444H963.88V627.634C963.88 624.228 964.826 621.597 966.718 619.743C968.611 617.888 971.26 616.961 974.667 616.961C975.878 616.961 977.165 617.131 978.527 617.472L978.357 622.865C977.6 622.714 976.72 622.638 975.717 622.638C972.424 622.638 970.778 624.332 970.778 627.719V630.444H977.023V635.554H970.778V661.158H963.88ZM1000.41 661.158C1000.11 660.572 999.845 659.616 999.618 658.291C997.423 660.581 994.736 661.726 991.556 661.726C988.472 661.726 985.955 660.846 984.006 659.086C982.057 657.326 981.082 655.15 981.082 652.557C981.082 649.283 982.293 646.776 984.715 645.035C987.157 643.275 990.639 642.395 995.162 642.395H999.391V640.38C999.391 638.79 998.946 637.522 998.057 636.576C997.168 635.611 995.814 635.128 993.998 635.128C992.427 635.128 991.14 635.525 990.137 636.32C989.134 637.096 988.633 638.09 988.633 639.301H981.735C981.735 637.617 982.293 636.046 983.41 634.589C984.526 633.113 986.04 631.958 987.951 631.126C989.882 630.293 992.03 629.877 994.395 629.877C997.991 629.877 1000.86 630.785 1003 632.602C1005.13 634.399 1006.23 636.935 1006.29 640.209V654.062C1006.29 656.825 1006.68 659.029 1007.45 660.676V661.158H1000.41ZM992.834 656.191C994.196 656.191 995.474 655.86 996.666 655.197C997.877 654.535 998.786 653.645 999.391 652.529V646.738H995.673C993.118 646.738 991.197 647.183 989.91 648.072C988.623 648.962 987.98 650.22 987.98 651.848C987.98 653.172 988.415 654.232 989.286 655.027C990.175 655.803 991.358 656.191 992.834 656.191ZM1026.13 656.219C1027.85 656.219 1029.28 655.718 1030.42 654.715C1031.55 653.712 1032.16 652.472 1032.23 650.996H1038.73C1038.66 652.907 1038.06 654.696 1036.95 656.361C1035.83 658.007 1034.32 659.313 1032.4 660.278C1030.49 661.243 1028.43 661.726 1026.22 661.726C1021.92 661.726 1018.51 660.335 1016 657.553C1013.48 654.771 1012.22 650.93 1012.22 646.028V645.319C1012.22 640.644 1013.47 636.907 1015.97 634.106C1018.47 631.286 1021.87 629.877 1026.19 629.877C1029.84 629.877 1032.81 630.946 1035.1 633.084C1037.41 635.204 1038.62 637.995 1038.73 641.458H1032.23C1032.16 639.698 1031.55 638.251 1030.42 637.115C1029.3 635.98 1027.87 635.412 1026.13 635.412C1023.9 635.412 1022.18 636.226 1020.96 637.853C1019.75 639.462 1019.14 641.912 1019.12 645.205V646.312C1019.12 649.643 1019.72 652.131 1020.91 653.778C1022.12 655.405 1023.86 656.219 1026.13 656.219ZM1051.28 661.158H1044.38V630.444H1051.28V661.158ZM1043.96 622.468C1043.96 621.408 1044.29 620.528 1044.95 619.828C1045.63 619.128 1046.6 618.777 1047.85 618.777C1049.1 618.777 1050.06 619.128 1050.74 619.828C1051.42 620.528 1051.76 621.408 1051.76 622.468C1051.76 623.509 1051.42 624.379 1050.74 625.079C1050.06 625.761 1049.1 626.101 1047.85 626.101C1046.6 626.101 1045.63 625.761 1044.95 625.079C1044.29 624.379 1043.96 623.509 1043.96 622.468ZM1066.16 661.158H1059.26V617.557H1066.16V661.158ZM1081.03 661.158H1074.13V630.444H1081.03V661.158ZM1073.71 622.468C1073.71 621.408 1074.04 620.528 1074.7 619.828C1075.38 619.128 1076.35 618.777 1077.6 618.777C1078.84 618.777 1079.81 619.128 1080.49 619.828C1081.17 620.528 1081.51 621.408 1081.51 622.468C1081.51 623.509 1081.17 624.379 1080.49 625.079C1079.81 625.761 1078.84 626.101 1077.6 626.101C1076.35 626.101 1075.38 625.761 1074.7 625.079C1074.04 624.379 1073.71 623.509 1073.71 622.468ZM1097.21 622.979V630.444H1102.63V635.554H1097.21V652.699C1097.21 653.872 1097.44 654.724 1097.89 655.254C1098.36 655.765 1099.2 656.02 1100.39 656.02C1101.18 656.02 1101.99 655.926 1102.8 655.737V661.073C1101.23 661.508 1099.72 661.726 1098.26 661.726C1092.96 661.726 1090.31 658.802 1090.31 652.955V635.554H1085.26V630.444H1090.31V622.979H1097.21ZM1126.28 661.158C1125.98 660.572 1125.71 659.616 1125.48 658.291C1123.29 660.581 1120.6 661.726 1117.42 661.726C1114.34 661.726 1111.82 660.846 1109.87 659.086C1107.92 657.326 1106.95 655.15 1106.95 652.557C1106.95 649.283 1108.16 646.776 1110.58 645.035C1113.02 643.275 1116.5 642.395 1121.03 642.395H1125.26V640.38C1125.26 638.79 1124.81 637.522 1123.92 636.576C1123.03 635.611 1121.68 635.128 1119.86 635.128C1118.29 635.128 1117.01 635.525 1116 636.32C1115 637.096 1114.5 638.09 1114.5 639.301H1107.6C1107.6 637.617 1108.16 636.046 1109.27 634.589C1110.39 633.113 1111.91 631.958 1113.82 631.126C1115.75 630.293 1117.89 629.877 1120.26 629.877C1123.86 629.877 1126.72 630.785 1128.86 632.602C1131 634.399 1132.1 636.935 1132.15 640.209V654.062C1132.15 656.825 1132.54 659.029 1133.32 660.676V661.158H1126.28ZM1118.7 656.191C1120.06 656.191 1121.34 655.86 1122.53 655.197C1123.74 654.535 1124.65 653.645 1125.26 652.529V646.738H1121.54C1118.98 646.738 1117.06 647.183 1115.78 648.072C1114.49 648.962 1113.84 650.22 1113.84 651.848C1113.84 653.172 1114.28 654.232 1115.15 655.027C1116.04 655.803 1117.22 656.191 1118.7 656.191ZM1138.09 645.574C1138.09 640.843 1139.18 637.049 1141.38 634.191C1143.57 631.315 1146.52 629.877 1150.21 629.877C1153.46 629.877 1156.09 631.012 1158.1 633.283V617.557H1165V661.158H1158.75L1158.41 657.979C1156.35 660.477 1153.6 661.726 1150.15 661.726C1146.56 661.726 1143.64 660.278 1141.41 657.383C1139.19 654.488 1138.09 650.551 1138.09 645.574ZM1144.98 646.17C1144.98 649.293 1145.58 651.734 1146.77 653.494C1147.98 655.235 1149.7 656.106 1151.91 656.106C1154.73 656.106 1156.79 654.847 1158.1 652.33V639.216C1156.83 636.756 1154.79 635.525 1151.97 635.525C1149.73 635.525 1148.01 636.415 1146.8 638.194C1145.59 639.954 1144.98 642.613 1144.98 646.17ZM1170.9 645.517C1170.9 642.508 1171.5 639.802 1172.69 637.399C1173.88 634.977 1175.56 633.122 1177.71 631.835C1179.87 630.529 1182.35 629.877 1185.15 629.877C1189.3 629.877 1192.65 631.211 1195.23 633.879C1197.82 636.547 1199.22 640.086 1199.43 644.496L1199.46 646.114C1199.46 649.141 1198.87 651.848 1197.7 654.232C1196.54 656.617 1194.88 658.462 1192.7 659.767C1190.54 661.073 1188.05 661.726 1185.21 661.726C1180.87 661.726 1177.4 660.288 1174.79 657.411C1172.2 654.516 1170.9 650.665 1170.9 645.858V645.517ZM1177.8 646.114C1177.8 649.274 1178.45 651.753 1179.76 653.551C1181.06 655.33 1182.88 656.219 1185.21 656.219C1187.54 656.219 1189.34 655.311 1190.63 653.494C1191.94 651.677 1192.59 649.018 1192.59 645.517C1192.59 642.414 1191.92 639.954 1190.57 638.137C1189.25 636.32 1187.44 635.412 1185.15 635.412C1182.9 635.412 1181.11 636.311 1179.79 638.109C1178.46 639.887 1177.8 642.556 1177.8 646.114ZM1223.93 653.891C1225.21 653.891 1226.21 654.26 1226.91 654.998C1227.61 655.718 1227.96 656.626 1227.96 657.724C1227.96 658.802 1227.61 659.701 1226.91 660.42C1226.21 661.12 1225.21 661.471 1223.93 661.471C1222.7 661.471 1221.72 661.12 1221 660.42C1220.28 659.72 1219.92 658.821 1219.92 657.724C1219.92 656.626 1220.27 655.718 1220.98 654.998C1221.68 654.26 1222.66 653.891 1223.93 653.891ZM1223.93 629.791C1225.21 629.791 1226.21 630.16 1226.91 630.898C1227.61 631.618 1227.96 632.526 1227.96 633.624C1227.96 634.702 1227.61 635.601 1226.91 636.32C1226.21 637.02 1225.21 637.371 1223.93 637.371C1222.7 637.371 1221.72 637.02 1221 636.32C1220.28 635.62 1219.92 634.721 1219.92 633.624C1219.92 632.526 1220.27 631.618 1220.98 630.898C1221.68 630.16 1222.66 629.791 1223.93 629.791ZM1248.51 644.808C1248.51 649.009 1247.93 653.068 1246.78 656.986C1245.62 660.884 1243.87 664.432 1241.53 667.63C1239.18 670.848 1236.73 673.071 1234.17 674.301L1232.81 670.469C1235.65 668.274 1237.89 664.924 1239.54 660.42C1241.21 655.897 1242.04 650.741 1242.04 644.95V644.297C1242.04 639.036 1241.32 634.248 1239.88 629.933C1238.44 625.6 1236.38 622.127 1233.69 619.516L1232.81 618.721L1234.17 614.86C1236.6 616.033 1238.94 618.115 1241.21 621.105C1243.49 624.095 1245.23 627.445 1246.44 631.154C1247.65 634.844 1248.33 638.657 1248.48 642.594L1248.51 644.808Z" fill="#3F8D1A"/>
<path d="M726.724 953.197C727.938 951.692 727.702 949.489 726.197 948.276L701.677 928.501C700.172 927.288 697.969 927.524 696.756 929.029C695.542 930.533 695.778 932.737 697.283 933.95L719.078 951.527L701.501 973.323C700.288 974.828 700.524 977.031 702.029 978.244C703.533 979.458 705.737 979.222 706.95 977.717L726.724 953.197ZM395 677C391.523 676.599 391.523 676.601 391.523 676.604C391.522 676.605 391.522 676.608 391.522 676.611C391.521 676.617 391.52 676.625 391.519 676.635C391.517 676.656 391.514 676.684 391.51 676.719C391.502 676.791 391.491 676.894 391.478 677.027C391.451 677.293 391.414 677.682 391.372 678.186C391.287 679.195 391.18 680.67 391.086 682.565C390.899 686.355 390.764 691.832 390.97 698.637C391.383 712.243 393.158 731.191 398.608 752.613C409.516 795.483 435.168 848.313 494.047 887.904L497.953 882.096C440.832 843.687 415.984 792.517 405.392 750.887C400.092 730.059 398.367 711.632 397.967 698.425C397.767 691.824 397.898 686.535 398.078 682.911C398.167 681.1 398.269 679.705 398.348 678.772C398.387 678.305 398.42 677.954 398.443 677.724C398.455 677.609 398.464 677.524 398.469 677.47C398.472 677.443 398.474 677.423 398.476 677.412C398.476 677.406 398.477 677.402 398.477 677.401C398.477 677.4 398.477 677.4 398.477 677.399C398.477 677.4 398.477 677.401 395 677ZM494.047 887.904C552.555 927.246 610.062 943.895 652.951 950.707C674.396 954.113 692.198 955.061 704.661 955.156C710.893 955.204 715.792 955.038 719.148 954.858C720.825 954.769 722.117 954.676 722.997 954.604C723.437 954.569 723.773 954.538 724.004 954.517C724.119 954.506 724.208 954.497 724.269 954.491C724.3 954.488 724.324 954.485 724.342 954.483C724.35 954.482 724.357 954.482 724.362 954.481C724.365 954.481 724.368 954.481 724.369 954.481C724.371 954.48 724.373 954.48 724 951C723.627 947.52 723.628 947.52 723.629 947.52C723.628 947.52 723.628 947.52 723.627 947.52C723.626 947.52 723.623 947.52 723.618 947.521C723.608 947.522 723.591 947.524 723.567 947.526C723.52 947.531 723.447 947.538 723.346 947.548C723.146 947.566 722.84 947.594 722.431 947.627C721.613 947.694 720.386 947.782 718.774 947.868C715.551 948.041 710.794 948.203 704.714 948.156C692.552 948.064 675.104 947.137 654.049 943.793C611.938 937.105 555.445 920.754 497.953 882.096L494.047 887.904Z" fill="#232323"/>
<path d="M1242.1 953.197C1240.88 951.692 1241.12 949.489 1242.63 948.276L1267.15 928.501C1268.65 927.288 1270.85 927.524 1272.07 929.029C1273.28 930.533 1273.04 932.737 1271.54 933.95L1249.74 951.527L1267.32 973.323C1268.53 974.828 1268.3 977.031 1266.79 978.244C1265.29 979.458 1263.09 979.222 1261.87 977.717L1242.1 953.197ZM1573.82 677C1577.3 676.599 1577.3 676.601 1577.3 676.604C1577.3 676.605 1577.3 676.608 1577.3 676.611C1577.3 676.617 1577.3 676.625 1577.3 676.635C1577.31 676.656 1577.31 676.684 1577.31 676.719C1577.32 676.791 1577.33 676.894 1577.34 677.027C1577.37 677.293 1577.41 677.682 1577.45 678.186C1577.54 679.195 1577.64 680.67 1577.74 682.565C1577.92 686.355 1578.06 691.832 1577.85 698.637C1577.44 712.243 1575.67 731.191 1570.21 752.613C1559.31 795.483 1533.65 848.313 1474.78 887.904L1470.87 882.096C1527.99 843.687 1552.84 792.517 1563.43 750.887C1568.73 730.059 1570.46 711.632 1570.86 698.425C1571.06 691.824 1570.92 686.535 1570.75 682.911C1570.66 681.1 1570.55 679.705 1570.48 678.772C1570.44 678.305 1570.4 677.954 1570.38 677.724C1570.37 677.609 1570.36 677.524 1570.35 677.47C1570.35 677.443 1570.35 677.423 1570.35 677.412C1570.35 677.406 1570.35 677.402 1570.35 677.401C1570.35 677.4 1570.35 677.4 1570.35 677.399C1570.35 677.4 1570.35 677.401 1573.82 677ZM1474.78 887.904C1416.27 927.246 1358.76 943.895 1315.87 950.707C1294.43 954.113 1276.62 955.061 1264.16 955.156C1257.93 955.204 1253.03 955.038 1249.68 954.858C1248 954.769 1246.71 954.676 1245.83 954.604C1245.39 954.569 1245.05 954.538 1244.82 954.517C1244.7 954.506 1244.62 954.497 1244.55 954.491C1244.52 954.488 1244.5 954.485 1244.48 954.483C1244.47 954.482 1244.47 954.482 1244.46 954.481C1244.46 954.481 1244.46 954.481 1244.45 954.481C1244.45 954.48 1244.45 954.48 1244.82 951C1245.2 947.52 1245.19 947.52 1245.19 947.52C1245.19 947.52 1245.19 947.52 1245.2 947.52C1245.2 947.52 1245.2 947.52 1245.21 947.521C1245.22 947.522 1245.23 947.524 1245.26 947.526C1245.3 947.531 1245.38 947.538 1245.48 947.548C1245.68 947.566 1245.98 947.594 1246.39 947.627C1247.21 947.694 1248.44 947.782 1250.05 947.868C1253.27 948.041 1258.03 948.203 1264.11 948.156C1276.27 948.064 1293.72 947.137 1314.77 943.793C1356.88 937.105 1413.38 920.754 1470.87 882.096L1474.78 887.904Z" fill="#232323"/>
</g>
<defs>
<filter id="filter0_d" x="155.198" y="215.51" width="551.729" height="551.729" filterUnits="userSpaceOnUse" color-interpolation-filters="sRGB">
<feFlood flood-opacity="0" result="BackgroundImageFix"/>
<feColorMatrix in="SourceAlpha" type="matrix" values="0 0 0 0 0 0 0 0 0 0 0 0 0 0 0 0 0 0 127 0"/>
<feOffset dx="31.0625" dy="44.375"/>
<feGaussianBlur stdDeviation="31.4323"/>
<feColorMatrix type="matrix" values="0 0 0 0 0 0 0 0 0 0 0 0 0 0 0 0 0 0 0.25 0"/>
<feBlend mode="normal" in2="BackgroundImageFix" result="effect1_dropShadow"/>
<feBlend mode="normal" in="SourceGraphic" in2="effect1_dropShadow" result="shape"/>
</filter>
<filter id="filter1_d" x="1177.14" y="183.22" width="614.861" height="614.861" filterUnits="userSpaceOnUse" color-interpolation-filters="sRGB">
<feFlood flood-opacity="0" result="BackgroundImageFix"/>
<feColorMatrix in="SourceAlpha" type="matrix" values="0 0 0 0 0 0 0 0 0 0 0 0 0 0 0 0 0 0 127 0"/>
<feMorphology radius="26.4375" operator="dilate" in="SourceAlpha" result="effect1_dropShadow"/>
<feOffset dx="-24.9268" dy="21.15"/>
<feGaussianBlur stdDeviation="34.7464"/>
<feColorMatrix type="matrix" values="0 0 0 0 0 0 0 0 0 0 0 0 0 0 0 0 0 0 0.25 0"/>
<feBlend mode="normal" in2="BackgroundImageFix" result="effect1_dropShadow"/>
<feBlend mode="normal" in="SourceGraphic" in2="effect1_dropShadow" result="shape"/>
</filter>
<clipPath id="clip0">
<rect width="1920" height="1080" fill="white"/>
</clipPath>
<clipPath id="clip1">
<rect width="183.417" height="183.417" fill="white" transform="translate(370.417 362.688)"/>
</clipPath>
<clipPath id="clip2">
<rect width="193.371" height="193.371" fill="white" transform="translate(1359.94 341.845)"/>
</clipPath>
<clipPath id="clip3">
<rect width="145.287" height="145.287" fill="white" transform="translate(1270.05 685.883)"/>
</clipPath>
<clipPath id="clip4">
<rect width="143.742" height="143.742" fill="white" transform="translate(896.991 678.616)"/>
</clipPath>
<clipPath id="clip5">
<rect width="157.652" height="157.652" fill="white" transform="translate(533 674.983)"/>
</clipPath>
</defs>
</svg>
