<svg width="1920" height="1080" viewBox="0 0 1920 1080" fill="none" xmlns="http://www.w3.org/2000/svg">
<g clip-path="url(#clip0)">
<rect width="1920" height="1080" fill="white"/>
<rect width="1920" height="1080" fill="#232323"/>
<path d="M1524 766C1510 708 1443.33 719.333 1416 708C1300 688 1242.81 775.376 1076 688C950 622 1102 802 734 726C620.245 702.507 528 802 502 802C476 802 407.127 761.182 386 814C362 874 322 864 272 850C207.979 832.074 146 972 162 922C182.85 856.844 -22.7313 923.916 38 946C82 962 -31.3333 1014 -36 1036L-54 1122H1952L2002 1068C1990 1052 1963.2 1017.2 1952 1006C1938 992 1838 988 1822 922C1810.91 876.25 1746 922 1692 922C1664.14 922 1728 864 1626 814C1591.5 797.089 1532.3 800.395 1524 766Z" fill="#D5DBD5"/>
</g>
<defs>
<clipPath id="clip0">
<rect width="1920" height="1080" fill="white"/>
</clipPath>
</defs>
</svg>
