<svg width="375" height="812" viewBox="0 0 375 812" fill="none" xmlns="http://www.w3.org/2000/svg">
<g clip-path="url(#clip0)">
<rect width="375" height="812" fill="white"/>
<circle cx="188" cy="28" r="832" fill="#D5DBD5" stroke="#232323" stroke-opacity="0.05" stroke-width="1681.33" stroke-dasharray="24.27 24.27"/>
<g clip-path="url(#clip1)">
<path d="M120.646 229.799C116.833 229.471 113.695 226.742 112.761 223.133H104.472V244.965H119.822C120.709 240.066 120.995 234.918 120.646 229.799Z" fill="#3F8D1A"/>
<path d="M121.418 216.432C118.958 216.432 116.957 218.433 116.957 220.893C116.957 223.353 118.958 225.354 121.418 225.354C123.878 225.354 125.879 223.353 125.879 220.893C125.879 218.433 123.878 216.432 121.418 216.432Z" fill="#3F8D1A"/>
<path d="M82.831 254.089C86.5517 254.089 89.568 251.073 89.568 247.352C89.568 243.632 86.5517 240.615 82.831 240.615C79.1103 240.615 76.094 243.632 76.094 247.352C76.094 251.073 79.1103 254.089 82.831 254.089Z" fill="#3F8D1A"/>
<path d="M99.9918 195.818C94.8784 199.331 90.721 205.256 87.8508 212.116C86.9827 214.191 86.2457 216.382 85.6423 218.653H99.9918V195.818Z" fill="#3F8D1A"/>
<path d="M83.71 236.173C88.6821 236.561 92.7533 240.202 93.7902 244.965H99.9917V223.133H84.6456C83.8829 227.351 83.5618 231.761 83.71 236.173V236.173Z" fill="#3F8D1A"/>
<path d="M99.9917 272.281V249.445H93.8495C93.2248 252.741 91.1554 255.529 88.3259 257.126C91.123 263.508 95.0328 268.936 99.9917 272.281V272.281Z" fill="#3F8D1A"/>
<path d="M104.472 272.281C109.832 268.602 114.126 262.346 117.006 255.015C117.709 253.226 118.316 251.363 118.826 249.445H104.472V272.281Z" fill="#3F8D1A"/>
<path d="M121.176 256.653C118.951 262.317 115.939 267.13 112.272 270.946C123.472 267.905 132.627 259.904 137.234 249.446H123.447C122.838 251.936 122.08 254.351 121.176 256.653V256.653Z" fill="#3F8D1A"/>
<path d="M82.8307 258.57C77.3609 258.57 72.7958 254.633 71.8122 249.445H67.2295C71.8187 259.863 80.9208 267.844 92.0609 270.911C88.8095 267.538 86.1269 263.395 84.0383 258.504C83.6414 258.546 83.2388 258.57 82.8307 258.57Z" fill="#3F8D1A"/>
<path d="M125.085 229.044C125.486 234.398 125.234 239.797 124.368 244.965H138.879C139.908 241.506 140.464 237.843 140.464 234.049C140.464 230.256 139.908 226.593 138.879 223.133H130.075C129.391 225.773 127.528 227.941 125.085 229.044V229.044Z" fill="#3F8D1A"/>
<path d="M79.246 236.726C79.065 232.144 79.3595 227.551 80.1004 223.133H65.5841C64.5553 226.593 64 230.256 64 234.049C64 237.843 64.5553 241.506 65.5841 244.965H71.8719C72.7128 241.101 75.5503 237.976 79.246 236.726V236.726Z" fill="#3F8D1A"/>
<path d="M121.371 211.953C121.386 211.953 121.402 211.952 121.418 211.952C125.574 211.952 129.078 214.803 130.074 218.653H137.234C132.626 208.194 123.47 200.192 112.269 197.152C113.13 198.049 113.957 199.001 114.747 200.01C117.434 203.44 119.657 207.452 121.371 211.953V211.953Z" fill="#3F8D1A"/>
<path d="M104.472 195.818V218.653H112.761C113.374 216.284 114.938 214.295 117.018 213.114C114.807 207.469 110.978 200.264 104.472 195.818V195.818Z" fill="#3F8D1A"/>
<path d="M83.7175 210.386C85.8941 205.184 88.7589 200.728 92.1954 197.151C80.9943 200.191 71.8372 208.193 67.2295 218.653H81.0195C81.7234 215.771 82.6256 212.996 83.7175 210.386V210.386Z" fill="#3F8D1A"/>
</g>
<g clip-path="url(#clip2)">
<path d="M269.208 259.256C271.011 259.256 272.473 257.795 272.473 255.992C272.473 254.188 271.011 252.727 269.208 252.727C267.405 252.727 265.943 254.188 265.943 255.992C265.943 257.795 267.405 259.256 269.208 259.256Z" fill="#3F8D1A"/>
<path d="M278.316 212.015H260.099C259.078 212.015 258.247 212.807 258.247 213.779V248.214C258.247 249.187 259.077 249.978 260.099 249.978H278.316C279.337 249.978 280.168 249.186 280.168 248.214V213.779C280.167 212.806 279.337 212.015 278.316 212.015Z" fill="#3F8D1A"/>
<path d="M269.207 193C246.126 193 227.415 211.712 227.415 234.792C227.415 257.872 246.126 276.586 269.207 276.586C292.287 276.586 311 257.873 311 234.792C311 211.711 292.287 193 269.207 193ZM285.466 255.416C285.466 258.609 282.878 261.197 279.685 261.197H258.729C255.537 261.197 252.948 258.609 252.948 255.416V213.986C252.948 210.794 255.537 208.205 258.729 208.205H279.685C282.878 208.205 285.466 210.794 285.466 213.986V255.416Z" fill="#3F8D1A"/>
</g>
<path d="M87.6633 294.811C86.7091 294.811 85.8488 294.676 85.0824 294.405C84.3236 294.135 83.7225 293.74 83.2793 293.222C82.8435 292.696 82.6256 292.057 82.6256 291.306V290.957H84.5528V291.205C84.5528 291.813 84.8345 292.279 85.398 292.602C85.9615 292.918 86.7316 293.075 87.7084 293.075C88.6024 293.075 89.35 292.94 89.9511 292.67C90.5521 292.399 90.8527 291.978 90.8527 291.407C90.8527 290.784 90.5597 290.341 89.9736 290.078C89.3951 289.807 88.5273 289.574 87.3703 289.379C86.5588 289.236 85.8075 289.033 85.1163 288.77C84.425 288.507 83.8653 288.143 83.437 287.677C83.0163 287.211 82.8059 286.603 82.8059 285.851C82.8059 285.123 83.02 284.506 83.4483 284.003C83.8841 283.492 84.4701 283.105 85.2064 282.842C85.9427 282.572 86.7617 282.437 87.6633 282.437C88.5348 282.437 89.3387 282.576 90.075 282.854C90.8113 283.132 91.4011 283.537 91.8444 284.071C92.2952 284.597 92.5206 285.247 92.5206 286.02V286.246H90.6047V286.077C90.6047 285.641 90.4657 285.284 90.1877 285.006C89.9098 284.721 89.5491 284.51 89.1058 284.375C88.6625 284.232 88.1892 284.161 87.6858 284.161C87.2125 284.161 86.7466 284.213 86.2883 284.319C85.83 284.416 85.4506 284.582 85.1501 284.815C84.8495 285.047 84.6993 285.367 84.6993 285.772C84.6993 286.381 85.0111 286.817 85.6347 287.08C86.2583 287.343 87.0923 287.572 88.1366 287.767C88.9706 287.918 89.7369 288.12 90.4357 288.376C91.1344 288.631 91.6942 288.992 92.1149 289.458C92.5357 289.916 92.746 290.532 92.746 291.306C92.746 292.08 92.5131 292.73 92.0473 293.256C91.589 293.774 90.9729 294.165 90.199 294.428C89.4327 294.683 88.5874 294.811 87.6633 294.811ZM96.793 279.867C96.4399 279.867 96.1318 279.769 95.8689 279.574C95.6134 279.371 95.4857 279.097 95.4857 278.751C95.4857 278.413 95.6134 278.146 95.8689 277.951C96.1318 277.748 96.4399 277.647 96.793 277.647C97.1461 277.647 97.4504 277.748 97.7059 277.951C97.9613 278.146 98.089 278.413 98.089 278.751C98.089 279.097 97.9613 279.371 97.7059 279.574C97.4504 279.769 97.1461 279.867 96.793 279.867ZM95.8351 294.586V282.617H97.7284V294.586H95.8351ZM106.025 294.766C105.536 294.766 105.063 294.691 104.605 294.54C104.154 294.383 103.786 294.09 103.5 293.661C103.215 293.226 103.072 292.591 103.072 291.757V284.307H100.153V282.617H102.024C102.369 282.617 102.614 282.598 102.756 282.561C102.899 282.515 102.986 282.406 103.016 282.234C103.053 282.053 103.072 281.764 103.072 281.366V278.65H104.999V282.617H108.741V284.307H104.999V291.036C104.999 291.674 105.074 292.174 105.225 292.534C105.382 292.895 105.732 293.075 106.273 293.075C106.491 293.075 106.697 293.057 106.892 293.019C107.088 292.981 107.234 292.944 107.332 292.906V294.574C107.204 294.619 107.024 294.661 106.791 294.698C106.566 294.743 106.31 294.766 106.025 294.766ZM122.206 290.821C122.153 291.46 121.901 292.087 121.45 292.703C121.007 293.312 120.369 293.819 119.535 294.225C118.701 294.623 117.675 294.822 116.458 294.822C115.256 294.822 114.196 294.559 113.28 294.033C112.363 293.507 111.642 292.779 111.116 291.847C110.597 290.915 110.338 289.845 110.338 288.635C110.338 287.41 110.601 286.336 111.127 285.412C111.653 284.48 112.378 283.751 113.302 283.225C114.226 282.7 115.282 282.437 116.469 282.437C117.679 282.437 118.727 282.7 119.613 283.225C120.5 283.751 121.184 284.473 121.665 285.389C122.145 286.298 122.386 287.335 122.386 288.5C122.386 288.62 122.382 288.778 122.375 288.973C122.367 289.168 122.356 289.3 122.341 289.368H112.243C112.386 290.525 112.833 291.43 113.584 292.084C114.335 292.737 115.312 293.064 116.514 293.064C117.363 293.064 118.058 292.951 118.599 292.726C119.14 292.493 119.546 292.204 119.816 291.858C120.094 291.513 120.252 291.167 120.29 290.821H122.206ZM116.492 284.172C115.372 284.172 114.433 284.484 113.674 285.108C112.915 285.724 112.45 286.573 112.277 287.655H120.323C120.256 286.693 119.899 285.874 119.253 285.198C118.607 284.514 117.686 284.172 116.492 284.172Z" fill="#232323"/>
<path d="M254.003 294.811C252.636 294.811 251.539 294.495 250.713 293.864C249.886 293.226 249.473 292.343 249.473 291.216C249.473 290.044 249.92 289.161 250.814 288.567C251.708 287.966 252.891 287.594 254.364 287.452C255.837 287.301 256.885 287.155 257.508 287.012C258.132 286.862 258.444 286.621 258.444 286.291V286.257C258.444 285.566 258.162 285.051 257.599 284.713C257.035 284.367 256.22 284.195 255.153 284.195C254.041 284.195 253.177 284.39 252.561 284.781C251.945 285.164 251.637 285.787 251.637 286.652H249.743C249.743 285.757 249.973 284.999 250.431 284.375C250.889 283.744 251.524 283.263 252.335 282.932C253.154 282.602 254.097 282.437 255.164 282.437C256.141 282.437 257.02 282.587 257.801 282.887C258.59 283.18 259.214 283.62 259.672 284.206C260.138 284.784 260.371 285.502 260.371 286.358V292.332C260.371 292.595 260.382 292.85 260.405 293.098C260.427 293.346 260.465 293.564 260.517 293.752C260.585 293.977 260.66 294.161 260.743 294.304C260.825 294.439 260.893 294.533 260.946 294.586H259.019C258.906 294.473 258.778 294.221 258.635 293.83C258.575 293.665 258.53 293.444 258.5 293.166C258.087 293.661 257.497 294.06 256.731 294.36C255.964 294.661 255.055 294.811 254.003 294.811ZM254.308 293.087C255.082 293.087 255.78 292.97 256.404 292.737C257.028 292.497 257.523 292.144 257.892 291.678C258.26 291.212 258.444 290.634 258.444 289.942V288.432C257.963 288.582 257.407 288.706 256.776 288.804C256.145 288.894 255.495 288.969 254.826 289.029C253.692 289.135 252.835 289.334 252.257 289.627C251.686 289.92 251.4 290.412 251.4 291.103C251.4 292.425 252.369 293.087 254.308 293.087ZM263.558 299.511V282.617H265.473V284.127C265.969 283.594 266.559 283.18 267.243 282.887C267.934 282.587 268.655 282.437 269.407 282.437C270.376 282.437 271.27 282.677 272.089 283.158C272.908 283.631 273.565 284.326 274.061 285.243C274.557 286.159 274.805 287.275 274.805 288.59C274.805 289.927 274.561 291.062 274.072 291.993C273.584 292.918 272.93 293.62 272.111 294.101C271.292 294.574 270.391 294.811 269.407 294.811C268.655 294.811 267.934 294.657 267.243 294.349C266.559 294.041 265.969 293.616 265.473 293.075V299.511H263.558ZM265.485 289.48C265.485 290.126 265.654 290.716 265.992 291.25C266.337 291.783 266.788 292.208 267.344 292.523C267.9 292.839 268.498 292.997 269.136 292.997C270.196 292.997 271.075 292.636 271.773 291.915C272.48 291.186 272.833 290.078 272.833 288.59C272.833 287.095 272.483 285.99 271.785 285.277C271.086 284.555 270.203 284.195 269.136 284.195C268.498 284.195 267.9 284.352 267.344 284.668C266.788 284.976 266.337 285.393 265.992 285.919C265.654 286.445 265.485 287.035 265.485 287.688H265.473V289.379H265.485V289.48ZM277.799 299.511V282.617H279.715V284.127C280.211 283.594 280.801 283.18 281.484 282.887C282.176 282.587 282.897 282.437 283.648 282.437C284.617 282.437 285.511 282.677 286.33 283.158C287.149 283.631 287.807 284.326 288.303 285.243C288.799 286.159 289.046 287.275 289.046 288.59C289.046 289.927 288.802 291.062 288.314 291.993C287.826 292.918 287.172 293.62 286.353 294.101C285.534 294.574 284.632 294.811 283.648 294.811C282.897 294.811 282.176 294.657 281.484 294.349C280.801 294.041 280.211 293.616 279.715 293.075V299.511H277.799ZM279.726 289.48C279.726 290.126 279.895 290.716 280.233 291.25C280.579 291.783 281.03 292.208 281.586 292.523C282.142 292.839 282.739 292.997 283.378 292.997C284.437 292.997 285.316 292.636 286.015 291.915C286.721 291.186 287.074 290.078 287.074 288.59C287.074 287.095 286.725 285.99 286.026 285.277C285.327 284.555 284.445 284.195 283.378 284.195C282.739 284.195 282.142 284.352 281.586 284.668C281.03 284.976 280.579 285.393 280.233 285.919C279.895 286.445 279.726 287.035 279.726 287.688H279.715V289.379H279.726V289.48Z" fill="#232323"/>
<g clip-path="url(#clip3)">
<path d="M215.471 574.53H160.375C157.048 574.53 154.341 571.823 154.341 568.495V534.389C154.341 531.061 157.048 528.354 160.375 528.354H215.471C218.798 528.354 221.505 531.061 221.505 534.389V568.495C221.505 571.823 218.798 574.53 215.471 574.53ZM160.375 532.552C159.362 532.552 158.538 533.376 158.538 534.389V568.495C158.538 569.508 159.362 570.332 160.375 570.332H215.471C216.483 570.332 217.307 569.508 217.307 568.495V534.389C217.307 533.376 216.483 532.552 215.471 532.552H160.375Z" fill="#232323"/>
<path d="M202.313 557.438C201.858 557.438 201.4 557.291 201.015 556.988C200.105 556.27 199.949 554.95 200.666 554.04C201.255 553.294 201.566 552.395 201.566 551.442C201.566 550.489 201.255 549.59 200.666 548.844C199.949 547.934 200.105 546.614 201.015 545.896C201.926 545.179 203.245 545.335 203.963 546.245C205.124 547.718 205.763 549.564 205.763 551.442C205.763 553.32 205.124 555.166 203.963 556.639C203.549 557.164 202.934 557.438 202.313 557.438V557.438Z" fill="#232323"/>
<path d="M207.525 562.649C207.025 562.649 206.524 562.472 206.124 562.112C205.261 561.338 205.189 560.011 205.963 559.148C207.865 557.029 208.912 554.292 208.912 551.442C208.912 548.592 207.865 545.855 205.963 543.736C205.189 542.873 205.261 541.546 206.124 540.772C206.986 539.998 208.313 540.07 209.088 540.932C211.681 543.823 213.11 547.555 213.11 551.442C213.11 555.329 211.681 559.061 209.088 561.952C208.673 562.414 208.1 562.649 207.525 562.649V562.649Z" fill="#232323"/>
<path d="M170.607 551.442H167.458C164.854 551.442 162.736 549.324 162.736 546.72V543.571C162.736 540.967 164.854 538.849 167.458 538.849H170.607C173.211 538.849 175.329 540.967 175.329 543.571V546.72C175.329 549.324 173.211 551.442 170.607 551.442ZM167.458 543.047C167.169 543.047 166.934 543.282 166.934 543.571V546.72C166.934 547.009 167.169 547.244 167.458 547.244H170.607C170.896 547.244 171.131 547.009 171.131 546.72V543.571C171.131 543.282 170.896 543.047 170.607 543.047H167.458Z" fill="#232323"/>
</g>
<path d="M140.624 590.939C140.624 589.599 140.941 588.522 141.577 587.709C142.212 586.891 143.043 586.482 144.071 586.482C145.094 586.482 145.904 586.832 146.502 587.532V582.978H147.995V595.38H146.623L146.55 594.443C145.953 595.175 145.121 595.541 144.055 595.541C143.043 595.541 142.217 595.127 141.577 594.298C140.941 593.469 140.624 592.387 140.624 591.052V590.939ZM142.117 591.109C142.117 592.099 142.322 592.874 142.731 593.434C143.14 593.994 143.705 594.274 144.427 594.274C145.374 594.274 146.066 593.848 146.502 592.998V588.985C146.055 588.162 145.369 587.75 144.443 587.75C143.711 587.75 143.14 588.032 142.731 588.598C142.322 589.163 142.117 590 142.117 591.109ZM153.946 595.541C152.762 595.541 151.798 595.154 151.056 594.379C150.313 593.598 149.941 592.557 149.941 591.254V590.979C149.941 590.113 150.106 589.34 150.434 588.662C150.768 587.979 151.231 587.446 151.823 587.063C152.42 586.676 153.066 586.482 153.76 586.482C154.896 586.482 155.779 586.856 156.409 587.604C157.039 588.353 157.353 589.424 157.353 590.818V591.44H151.435C151.457 592.301 151.707 592.998 152.186 593.531C152.67 594.058 153.284 594.322 154.027 594.322C154.554 594.322 155.001 594.215 155.367 593.999C155.733 593.784 156.054 593.499 156.328 593.143L157.24 593.854C156.508 594.979 155.41 595.541 153.946 595.541ZM153.76 587.709C153.158 587.709 152.652 587.93 152.243 588.371C151.833 588.808 151.58 589.421 151.484 590.212H155.86V590.099C155.817 589.34 155.612 588.754 155.246 588.339C154.88 587.919 154.385 587.709 153.76 587.709ZM154.487 582.978H156.296L154.132 585.352H152.929L154.487 582.978ZM166.485 591.109C166.485 592.444 166.179 593.517 165.565 594.33C164.951 595.138 164.128 595.541 163.094 595.541C161.991 595.541 161.138 595.151 160.535 594.371L160.462 595.38H159.089V582.978H160.583V587.604C161.186 586.856 162.018 586.482 163.078 586.482C164.138 586.482 164.97 586.883 165.573 587.685C166.181 588.487 166.485 589.585 166.485 590.979V591.109ZM164.992 590.939C164.992 589.922 164.795 589.136 164.402 588.581C164.009 588.027 163.444 587.75 162.707 587.75C161.722 587.75 161.014 588.207 160.583 589.122V592.901C161.041 593.816 161.754 594.274 162.723 594.274C163.439 594.274 163.996 593.997 164.394 593.442C164.792 592.888 164.992 592.053 164.992 590.939ZM169.998 595.38H168.504V586.644H169.998V595.38ZM168.383 584.326C168.383 584.084 168.455 583.88 168.601 583.713C168.752 583.546 168.972 583.462 169.263 583.462C169.554 583.462 169.774 583.546 169.925 583.713C170.076 583.88 170.151 584.084 170.151 584.326C170.151 584.569 170.076 584.77 169.925 584.932C169.774 585.093 169.554 585.174 169.263 585.174C168.972 585.174 168.752 585.093 168.601 584.932C168.455 584.77 168.383 584.569 168.383 584.326ZM174.422 584.528V586.644H176.053V587.798H174.422V593.216C174.422 593.566 174.495 593.83 174.64 594.007C174.786 594.18 175.033 594.266 175.383 594.266C175.555 594.266 175.792 594.233 176.094 594.169V595.38C175.701 595.488 175.319 595.541 174.947 595.541C174.28 595.541 173.776 595.34 173.437 594.936C173.098 594.532 172.929 593.959 172.929 593.216V587.798H171.338V586.644H172.929V584.528H174.422ZM177.248 590.931C177.248 590.075 177.415 589.305 177.749 588.622C178.088 587.938 178.556 587.411 179.154 587.039C179.757 586.668 180.443 586.482 181.213 586.482C182.402 586.482 183.363 586.894 184.095 587.717C184.833 588.541 185.201 589.636 185.201 591.004V591.109C185.201 591.959 185.037 592.723 184.709 593.402C184.386 594.075 183.92 594.599 183.312 594.976C182.709 595.353 182.015 595.541 181.229 595.541C180.045 595.541 179.084 595.13 178.346 594.306C177.614 593.482 177.248 592.392 177.248 591.036V590.931ZM178.75 591.109C178.75 592.078 178.973 592.855 179.42 593.442C179.872 594.029 180.475 594.322 181.229 594.322C181.988 594.322 182.591 594.026 183.037 593.434C183.484 592.837 183.708 592.002 183.708 590.931C183.708 589.973 183.479 589.198 183.021 588.606C182.569 588.008 181.966 587.709 181.213 587.709C180.475 587.709 179.88 588.003 179.428 588.589C178.976 589.176 178.75 590.016 178.75 591.109ZM194.059 593.353L196.223 586.644H197.749L194.616 595.38H193.477L190.312 586.644H191.838L194.059 593.353ZM200.809 595.38H199.315V586.644H200.809V595.38ZM199.194 584.326C199.194 584.084 199.267 583.88 199.412 583.713C199.563 583.546 199.783 583.462 200.074 583.462C200.365 583.462 200.585 583.546 200.736 583.713C200.887 583.88 200.962 584.084 200.962 584.326C200.962 584.569 200.887 584.77 200.736 584.932C200.585 585.093 200.365 585.174 200.074 585.174C199.783 585.174 199.563 585.093 199.412 584.932C199.267 584.77 199.194 584.569 199.194 584.326ZM207.43 587.984C207.203 587.946 206.959 587.927 206.695 587.927C205.715 587.927 205.05 588.345 204.7 589.179V595.38H203.207V586.644H204.66L204.684 587.653C205.174 586.872 205.869 586.482 206.767 586.482C207.058 586.482 207.279 586.52 207.43 586.595V587.984ZM211.241 584.528V586.644H212.872V587.798H211.241V593.216C211.241 593.566 211.313 593.83 211.459 594.007C211.604 594.18 211.851 594.266 212.201 594.266C212.374 594.266 212.61 594.233 212.912 594.169V595.38C212.519 595.488 212.137 595.541 211.765 595.541C211.098 595.541 210.595 595.34 210.255 594.936C209.916 594.532 209.747 593.959 209.747 593.216V587.798H208.156V586.644H209.747V584.528H211.241ZM220.017 594.516C219.436 595.2 218.583 595.541 217.458 595.541C216.526 595.541 215.816 595.272 215.326 594.734C214.842 594.19 214.597 593.388 214.591 592.328V586.644H216.085V592.287C216.085 593.612 216.623 594.274 217.7 594.274C218.841 594.274 219.6 593.848 219.977 592.998V586.644H221.471V595.38H220.049L220.017 594.516ZM229.141 595.38C229.055 595.208 228.985 594.901 228.931 594.459C228.237 595.181 227.408 595.541 226.444 595.541C225.583 595.541 224.875 595.299 224.321 594.815C223.772 594.325 223.497 593.706 223.497 592.958C223.497 592.048 223.842 591.343 224.531 590.842C225.225 590.336 226.199 590.083 227.453 590.083H228.907V589.397C228.907 588.875 228.751 588.46 228.439 588.153C228.126 587.841 227.666 587.685 227.058 587.685C226.525 587.685 226.078 587.82 225.718 588.089C225.357 588.358 225.177 588.684 225.177 589.066H223.675C223.675 588.63 223.828 588.21 224.135 587.806C224.447 587.397 224.867 587.074 225.395 586.837C225.927 586.601 226.512 586.482 227.147 586.482C228.153 586.482 228.942 586.735 229.512 587.241C230.083 587.742 230.379 588.433 230.401 589.316V593.337C230.401 594.139 230.503 594.777 230.707 595.251V595.38H229.141ZM226.662 594.241C227.131 594.241 227.575 594.12 227.994 593.878C228.414 593.636 228.718 593.321 228.907 592.933V591.141H227.736C225.906 591.141 224.991 591.677 224.991 592.748C224.991 593.216 225.147 593.582 225.459 593.846C225.771 594.11 226.172 594.241 226.662 594.241ZM234.365 595.38H232.871V582.978H234.365V595.38ZM141.123 604.276C141.041 604.977 140.781 605.519 140.344 605.902C139.91 606.281 139.332 606.471 138.609 606.471C137.826 606.471 137.198 606.19 136.724 605.629C136.254 605.067 136.018 604.316 136.018 603.375V602.737C136.018 602.121 136.128 601.579 136.346 601.112C136.568 600.644 136.881 600.286 137.284 600.037C137.688 599.785 138.156 599.659 138.687 599.659C139.391 599.659 139.956 599.856 140.381 600.251C140.806 600.643 141.053 601.186 141.123 601.881H140.244C140.168 601.353 140.003 600.97 139.748 600.734C139.496 600.497 139.142 600.379 138.687 600.379C138.128 600.379 137.69 600.585 137.371 600.998C137.055 601.411 136.897 601.998 136.897 602.76V603.402C136.897 604.121 137.048 604.694 137.348 605.119C137.649 605.544 138.069 605.756 138.609 605.756C139.095 605.756 139.467 605.647 139.725 605.428C139.986 605.207 140.159 604.823 140.244 604.276H141.123ZM145.23 606.38C145.181 606.283 145.142 606.11 145.112 605.861C144.72 606.268 144.252 606.471 143.709 606.471C143.223 606.471 142.824 606.334 142.512 606.061C142.202 605.785 142.047 605.436 142.047 605.014C142.047 604.501 142.241 604.103 142.63 603.821C143.022 603.536 143.571 603.393 144.278 603.393H145.098V603.006C145.098 602.711 145.01 602.478 144.834 602.305C144.658 602.129 144.398 602.041 144.055 602.041C143.755 602.041 143.503 602.116 143.299 602.268C143.096 602.42 142.994 602.604 142.994 602.819H142.147C142.147 602.573 142.234 602.336 142.407 602.109C142.583 601.878 142.82 601.696 143.117 601.562C143.418 601.429 143.747 601.362 144.105 601.362C144.673 601.362 145.118 601.505 145.439 601.79C145.761 602.072 145.928 602.462 145.94 602.96V605.228C145.94 605.68 145.998 606.04 146.113 606.307V606.38H145.23ZM143.832 605.738C144.096 605.738 144.347 605.67 144.583 605.533C144.82 605.396 144.992 605.219 145.098 605V603.989H144.438C143.406 603.989 142.889 604.291 142.889 604.895C142.889 605.16 142.978 605.366 143.154 605.515C143.33 605.663 143.556 605.738 143.832 605.738ZM148.176 606.38H147.334V601.453H148.176V606.38ZM147.265 600.146C147.265 600.01 147.306 599.894 147.388 599.8C147.473 599.706 147.598 599.659 147.762 599.659C147.926 599.659 148.05 599.706 148.135 599.8C148.22 599.894 148.262 600.01 148.262 600.146C148.262 600.283 148.22 600.397 148.135 600.488C148.05 600.579 147.926 600.624 147.762 600.624C147.598 600.624 147.473 600.579 147.388 600.488C147.306 600.397 147.265 600.283 147.265 600.146ZM151.181 603.252L152.274 601.453H153.257L151.646 603.889L153.308 606.38H152.333L151.195 604.536L150.056 606.38H149.078L150.739 603.889L149.128 601.453H150.102L151.181 603.252ZM157.196 606.38C157.148 606.283 157.108 606.11 157.078 605.861C156.686 606.268 156.219 606.471 155.675 606.471C155.19 606.471 154.79 606.334 154.478 606.061C154.168 605.785 154.013 605.436 154.013 605.014C154.013 604.501 154.208 604.103 154.596 603.821C154.988 603.536 155.537 603.393 156.245 603.393H157.064V603.006C157.064 602.711 156.976 602.478 156.8 602.305C156.624 602.129 156.364 602.041 156.021 602.041C155.721 602.041 155.469 602.116 155.266 602.268C155.062 602.42 154.96 602.604 154.96 602.819H154.114C154.114 602.573 154.2 602.336 154.373 602.109C154.549 601.878 154.786 601.696 155.083 601.562C155.384 601.429 155.713 601.362 156.071 601.362C156.639 601.362 157.084 601.505 157.406 601.79C157.727 602.072 157.894 602.462 157.906 602.96V605.228C157.906 605.68 157.964 606.04 158.08 606.307V606.38H157.196ZM155.798 605.738C156.062 605.738 156.313 605.67 156.55 605.533C156.786 605.396 156.958 605.219 157.064 605V603.989H156.404C155.372 603.989 154.856 604.291 154.856 604.895C154.856 605.16 154.944 605.366 155.12 605.515C155.296 605.663 155.522 605.738 155.798 605.738ZM165.42 603.315H162.546V605.665H165.884V606.38H161.672V599.75H165.838V600.47H162.546V602.601H165.42V603.315ZM168.725 605.783C169.026 605.783 169.288 605.692 169.513 605.51C169.738 605.328 169.862 605.1 169.886 604.827H170.683C170.668 605.109 170.571 605.378 170.392 605.633C170.213 605.888 169.973 606.092 169.672 606.243C169.375 606.395 169.059 606.471 168.725 606.471C168.054 606.471 167.52 606.248 167.122 605.802C166.728 605.352 166.531 604.739 166.531 603.962V603.821C166.531 603.341 166.619 602.915 166.795 602.541C166.971 602.168 167.223 601.878 167.551 601.672C167.881 601.465 168.271 601.362 168.721 601.362C169.273 601.362 169.732 601.528 170.096 601.858C170.463 602.189 170.659 602.619 170.683 603.147H169.886C169.862 602.828 169.741 602.567 169.522 602.364C169.307 602.157 169.039 602.054 168.721 602.054C168.293 602.054 167.96 602.209 167.724 602.519C167.49 602.825 167.373 603.27 167.373 603.853V604.012C167.373 604.58 167.49 605.017 167.724 605.324C167.957 605.63 168.291 605.783 168.725 605.783ZM171.407 603.871C171.407 603.388 171.501 602.954 171.69 602.569C171.881 602.183 172.145 601.886 172.482 601.676C172.822 601.467 173.209 601.362 173.643 601.362C174.314 601.362 174.856 601.594 175.268 602.059C175.684 602.523 175.892 603.141 175.892 603.912V603.971C175.892 604.451 175.8 604.882 175.615 605.264C175.432 605.644 175.17 605.94 174.827 606.152C174.487 606.365 174.095 606.471 173.652 606.471C172.984 606.471 172.442 606.239 172.026 605.774C171.614 605.31 171.407 604.695 171.407 603.93V603.871ZM172.254 603.971C172.254 604.518 172.38 604.956 172.632 605.287C172.887 605.618 173.227 605.783 173.652 605.783C174.08 605.783 174.42 605.616 174.672 605.283C174.924 604.946 175.05 604.475 175.05 603.871C175.05 603.331 174.921 602.894 174.663 602.56C174.408 602.223 174.068 602.054 173.643 602.054C173.227 602.054 172.892 602.22 172.637 602.551C172.382 602.881 172.254 603.355 172.254 603.971ZM177.745 601.453L177.773 602.072C178.149 601.599 178.641 601.362 179.248 601.362C180.289 601.362 180.814 601.949 180.824 603.124V606.38H179.981V603.12C179.978 602.765 179.896 602.502 179.735 602.332C179.577 602.162 179.33 602.077 178.993 602.077C178.72 602.077 178.48 602.15 178.274 602.296C178.067 602.441 177.906 602.632 177.791 602.869V606.38H176.949V601.453H177.745ZM181.871 603.871C181.871 603.388 181.965 602.954 182.153 602.569C182.344 602.183 182.608 601.886 182.945 601.676C183.285 601.467 183.672 601.362 184.107 601.362C184.777 601.362 185.319 601.594 185.732 602.059C186.148 602.523 186.356 603.141 186.356 603.912V603.971C186.356 604.451 186.263 604.882 186.078 605.264C185.896 605.644 185.633 605.94 185.29 606.152C184.95 606.365 184.559 606.471 184.116 606.471C183.448 606.471 182.906 606.239 182.49 605.774C182.077 605.31 181.871 604.695 181.871 603.93V603.871ZM182.718 603.971C182.718 604.518 182.844 604.956 183.096 605.287C183.351 605.618 183.691 605.783 184.116 605.783C184.544 605.783 184.884 605.616 185.136 605.283C185.388 604.946 185.514 604.475 185.514 603.871C185.514 603.331 185.385 602.894 185.126 602.56C184.872 602.223 184.532 602.054 184.107 602.054C183.691 602.054 183.355 602.22 183.1 602.551C182.845 602.881 182.718 603.355 182.718 603.971ZM185.454 600.634V600.679H184.758L184.075 599.905L183.396 600.679H182.7V600.624L183.82 599.386H184.33L185.454 600.634ZM188.205 601.453L188.227 602C188.589 601.575 189.076 601.362 189.689 601.362C190.378 601.362 190.847 601.626 191.096 602.154C191.26 601.918 191.472 601.726 191.733 601.581C191.998 601.435 192.309 601.362 192.667 601.362C193.748 601.362 194.297 601.934 194.315 603.079V606.38H193.473V603.129C193.473 602.777 193.392 602.514 193.231 602.341C193.071 602.165 192.8 602.077 192.421 602.077C192.108 602.077 191.849 602.171 191.642 602.359C191.436 602.544 191.316 602.795 191.283 603.111V606.38H190.436V603.152C190.436 602.435 190.085 602.077 189.384 602.077C188.831 602.077 188.453 602.312 188.25 602.783V606.38H187.408V601.453H188.205ZM196.505 606.38H195.663V601.453H196.505V606.38ZM195.595 600.146C195.595 600.01 195.636 599.894 195.718 599.8C195.803 599.706 195.927 599.659 196.091 599.659C196.255 599.659 196.379 599.706 196.464 599.8C196.549 599.894 196.592 600.01 196.592 600.146C196.592 600.283 196.549 600.397 196.464 600.488C196.379 600.579 196.255 600.624 196.091 600.624C195.927 600.624 195.803 600.579 195.718 600.488C195.636 600.397 195.595 600.283 195.595 600.146ZM199.834 605.783C200.134 605.783 200.397 605.692 200.622 605.51C200.846 605.328 200.971 605.1 200.995 604.827H201.792C201.777 605.109 201.679 605.378 201.5 605.633C201.321 605.888 201.081 606.092 200.781 606.243C200.483 606.395 200.168 606.471 199.834 606.471C199.163 606.471 198.629 606.248 198.231 605.802C197.836 605.352 197.639 604.739 197.639 603.962V603.821C197.639 603.341 197.727 602.915 197.903 602.541C198.079 602.168 198.331 601.878 198.659 601.672C198.99 601.465 199.38 601.362 199.829 601.362C200.382 601.362 200.84 601.528 201.204 601.858C201.572 602.189 201.768 602.619 201.792 603.147H200.995C200.971 602.828 200.849 602.567 200.631 602.364C200.415 602.157 200.148 602.054 199.829 602.054C199.401 602.054 199.069 602.209 198.832 602.519C198.598 602.825 198.482 603.27 198.482 603.853V604.012C198.482 604.58 198.598 605.017 198.832 605.324C199.066 605.63 199.4 605.783 199.834 605.783ZM205.781 606.38C205.732 606.283 205.693 606.11 205.662 605.861C205.271 606.268 204.803 606.471 204.26 606.471C203.774 606.471 203.375 606.334 203.062 606.061C202.753 605.785 202.598 605.436 202.598 605.014C202.598 604.501 202.792 604.103 203.181 603.821C203.572 603.536 204.122 603.393 204.829 603.393H205.649V603.006C205.649 602.711 205.56 602.478 205.384 602.305C205.208 602.129 204.949 602.041 204.606 602.041C204.305 602.041 204.053 602.116 203.85 602.268C203.647 602.42 203.545 602.604 203.545 602.819H202.698C202.698 602.573 202.784 602.336 202.957 602.109C203.134 601.878 203.37 601.696 203.668 601.562C203.968 601.429 204.298 601.362 204.656 601.362C205.224 601.362 205.668 601.505 205.99 601.79C206.312 602.072 206.479 602.462 206.491 602.96V605.228C206.491 605.68 206.549 606.04 206.664 606.307V606.38H205.781ZM204.383 605.738C204.647 605.738 204.897 605.67 205.134 605.533C205.371 605.396 205.542 605.219 205.649 605V603.989H204.988C203.956 603.989 203.44 604.291 203.44 604.895C203.44 605.16 203.528 605.366 203.704 605.515C203.88 605.663 204.106 605.738 204.383 605.738ZM213.913 603.452H211.131V606.38H210.257V599.75H214.364V600.47H211.131V602.737H213.913V603.452ZM217.223 606.471C216.555 606.471 216.012 606.252 215.593 605.815C215.174 605.375 214.965 604.788 214.965 604.053V603.898C214.965 603.41 215.057 602.974 215.242 602.591C215.431 602.206 215.692 601.905 216.026 601.69C216.363 601.471 216.727 601.362 217.118 601.362C217.759 601.362 218.257 601.573 218.612 601.995C218.967 602.417 219.145 603.021 219.145 603.807V604.158H215.807C215.819 604.644 215.96 605.037 216.231 605.337C216.504 605.635 216.85 605.783 217.269 605.783C217.566 605.783 217.818 605.723 218.025 605.601C218.231 605.48 218.412 605.319 218.566 605.119L219.081 605.519C218.668 606.154 218.049 606.471 217.223 606.471ZM217.118 602.054C216.778 602.054 216.493 602.179 216.262 602.428C216.032 602.673 215.889 603.019 215.834 603.466H218.302V603.402C218.278 602.974 218.163 602.643 217.956 602.409C217.75 602.173 217.471 602.054 217.118 602.054ZM219.919 603.876C219.919 603.12 220.098 602.513 220.456 602.054C220.814 601.593 221.283 601.362 221.863 601.362C222.44 601.362 222.897 601.559 223.234 601.954V599.386H224.076V606.38H223.302L223.261 605.852C222.924 606.265 222.455 606.471 221.854 606.471C221.283 606.471 220.817 606.237 220.456 605.77C220.098 605.302 219.919 604.692 219.919 603.939V603.876ZM220.761 603.971C220.761 604.53 220.876 604.967 221.107 605.283C221.338 605.598 221.657 605.756 222.063 605.756C222.598 605.756 222.988 605.516 223.234 605.037V602.774C222.982 602.309 222.595 602.077 222.073 602.077C221.66 602.077 221.338 602.236 221.107 602.555C220.876 602.874 220.761 603.346 220.761 603.971ZM227.432 606.471C226.764 606.471 226.221 606.252 225.802 605.815C225.383 605.375 225.173 604.788 225.173 604.053V603.898C225.173 603.41 225.266 602.974 225.451 602.591C225.639 602.206 225.9 601.905 226.234 601.69C226.571 601.471 226.935 601.362 227.327 601.362C227.968 601.362 228.465 601.573 228.821 601.995C229.176 602.417 229.353 603.021 229.353 603.807V604.158H226.016C226.028 604.644 226.169 605.037 226.439 605.337C226.712 605.635 227.058 605.783 227.477 605.783C227.775 605.783 228.027 605.723 228.233 605.601C228.44 605.48 228.62 605.319 228.775 605.119L229.29 605.519C228.877 606.154 228.257 606.471 227.432 606.471ZM227.327 602.054C226.987 602.054 226.702 602.179 226.471 602.428C226.24 602.673 226.098 603.019 226.043 603.466H228.511V603.402C228.487 602.974 228.371 602.643 228.165 602.409C227.958 602.173 227.679 602.054 227.327 602.054ZM232.714 602.209C232.586 602.188 232.448 602.177 232.299 602.177C231.747 602.177 231.372 602.412 231.175 602.883V606.38H230.332V601.453H231.152L231.166 602.022C231.442 601.582 231.833 601.362 232.34 601.362C232.504 601.362 232.629 601.383 232.714 601.426V602.209ZM236.352 606.38C236.303 606.283 236.264 606.11 236.233 605.861C235.842 606.268 235.374 606.471 234.831 606.471C234.345 606.471 233.946 606.334 233.633 606.061C233.324 605.785 233.169 605.436 233.169 605.014C233.169 604.501 233.363 604.103 233.752 603.821C234.143 603.536 234.693 603.393 235.4 603.393H236.22V603.006C236.22 602.711 236.132 602.478 235.956 602.305C235.78 602.129 235.52 602.041 235.177 602.041C234.877 602.041 234.625 602.116 234.421 602.268C234.218 602.42 234.116 602.604 234.116 602.819H233.269C233.269 602.573 233.356 602.336 233.529 602.109C233.705 601.878 233.942 601.696 234.239 601.562C234.54 601.429 234.869 601.362 235.227 601.362C235.795 601.362 236.24 601.505 236.561 601.79C236.883 602.072 237.05 602.462 237.062 602.96V605.228C237.062 605.68 237.12 606.04 237.235 606.307V606.38H236.352ZM234.954 605.738C235.218 605.738 235.468 605.67 235.705 605.533C235.942 605.396 236.114 605.219 236.22 605V603.989H235.56C234.527 603.989 234.011 604.291 234.011 604.895C234.011 605.16 234.099 605.366 234.276 605.515C234.452 605.663 234.678 605.738 234.954 605.738ZM239.298 606.38H238.456V599.386H239.298V606.38Z" fill="#232323"/>
<g clip-path="url(#clip4)">
<path d="M217.487 347.319H157.417C153.885 347.319 151.011 350.193 151.011 353.725V388.457C151.011 391.989 153.885 394.862 157.417 394.862H217.487C221.019 394.862 223.892 391.989 223.892 388.457V353.725C223.892 350.193 221.019 347.319 217.487 347.319ZM219.622 388.457C219.622 389.634 218.664 390.592 217.487 390.592H157.417C156.24 390.592 155.282 389.634 155.282 388.457V363.119H219.622V388.457ZM219.622 358.849H155.282V353.725C155.282 352.547 156.24 351.589 157.417 351.589H217.487C218.664 351.589 219.622 352.547 219.622 353.725V358.849Z" fill="#232323"/>
<path d="M164.677 383.474H182.897C184.076 383.474 185.032 382.518 185.032 381.339C185.032 380.16 184.076 379.204 182.897 379.204H164.677C163.497 379.204 162.542 380.16 162.542 381.339C162.542 382.518 163.497 383.474 164.677 383.474Z" fill="#232323"/>
<path d="M164.677 374.365H182.897C184.076 374.365 185.032 373.409 185.032 372.23C185.032 371.05 184.076 370.094 182.897 370.094H164.677C163.497 370.094 162.542 371.05 162.542 372.23C162.542 373.409 163.497 374.365 164.677 374.365Z" fill="#232323"/>
<path d="M198.839 383.475H212.504C213.683 383.475 214.639 382.519 214.639 381.34V372.23C214.639 371.05 213.683 370.094 212.504 370.094H198.839C197.66 370.094 196.704 371.05 196.704 372.23V381.34C196.704 382.519 197.66 383.475 198.839 383.475ZM200.974 374.365H210.369V379.204H200.974V374.365Z" fill="#232323"/>
</g>
<path d="M166.26 415.042C166.793 415.042 167.259 414.881 167.657 414.558C168.055 414.235 168.276 413.831 168.319 413.347H169.732C169.705 413.847 169.533 414.324 169.215 414.776C168.898 415.228 168.473 415.589 167.94 415.858C167.412 416.127 166.852 416.262 166.26 416.262C165.071 416.262 164.123 415.866 163.418 415.075C162.718 414.278 162.369 413.191 162.369 411.813V411.562C162.369 410.712 162.525 409.956 162.837 409.294C163.149 408.631 163.596 408.117 164.177 407.751C164.764 407.385 165.456 407.202 166.252 407.202C167.232 407.202 168.045 407.496 168.691 408.082C169.342 408.669 169.689 409.431 169.732 410.367H168.319C168.276 409.802 168.061 409.339 167.673 408.979C167.291 408.613 166.817 408.43 166.252 408.43C165.493 408.43 164.904 408.704 164.484 409.253C164.07 409.797 163.862 410.585 163.862 411.619V411.902C163.862 412.908 164.07 413.683 164.484 414.227C164.898 414.771 165.491 415.042 166.26 415.042ZM175.634 408.704C175.408 408.666 175.163 408.648 174.9 408.648C173.92 408.648 173.255 409.065 172.905 409.899V416.1H171.412V407.364H172.865L172.889 408.373C173.379 407.593 174.073 407.202 174.972 407.202C175.263 407.202 175.484 407.24 175.634 407.315V408.704ZM180.479 416.262C179.295 416.262 178.331 415.874 177.588 415.099C176.846 414.318 176.474 413.277 176.474 411.974V411.7C176.474 410.833 176.638 410.061 176.967 409.382C177.3 408.699 177.763 408.166 178.355 407.784C178.953 407.396 179.599 407.202 180.293 407.202C181.429 407.202 182.312 407.576 182.942 408.325C183.571 409.073 183.886 410.144 183.886 411.538V412.16H177.968C177.989 413.021 178.24 413.718 178.719 414.251C179.203 414.779 179.817 415.042 180.56 415.042C181.087 415.042 181.534 414.935 181.9 414.719C182.266 414.504 182.586 414.219 182.861 413.864L183.773 414.574C183.041 415.699 181.943 416.262 180.479 416.262ZM180.293 408.43C179.69 408.43 179.184 408.65 178.775 409.092C178.366 409.528 178.113 410.141 178.016 410.933H182.393V410.82C182.349 410.061 182.145 409.474 181.779 409.059C181.413 408.64 180.918 408.43 180.293 408.43ZM181.02 403.698H182.829L180.665 406.072H179.462L181.02 403.698ZM185.259 411.659C185.259 410.319 185.576 409.242 186.212 408.43C186.847 407.611 187.678 407.202 188.707 407.202C189.729 407.202 190.539 407.552 191.137 408.252V403.698H192.631V416.1H191.258L191.185 415.163C190.588 415.896 189.756 416.262 188.69 416.262C187.678 416.262 186.852 415.847 186.212 415.018C185.576 414.189 185.259 413.107 185.259 411.772V411.659ZM186.753 411.829C186.753 412.819 186.957 413.594 187.366 414.154C187.775 414.714 188.341 414.994 189.062 414.994C190.009 414.994 190.701 414.569 191.137 413.718V409.705C190.69 408.882 190.004 408.47 189.078 408.47C188.346 408.47 187.775 408.753 187.366 409.318C186.957 409.883 186.753 410.72 186.753 411.829ZM196.579 416.1H195.085V407.364H196.579V416.1ZM194.964 405.047C194.964 404.804 195.037 404.6 195.182 404.433C195.333 404.266 195.553 404.183 195.844 404.183C196.135 404.183 196.355 404.266 196.506 404.433C196.657 404.6 196.732 404.804 196.732 405.047C196.732 405.289 196.657 405.491 196.506 405.652C196.355 405.814 196.135 405.894 195.844 405.894C195.553 405.894 195.333 405.814 195.182 405.652C195.037 405.491 194.964 405.289 194.964 405.047ZM201.004 405.248V407.364H202.634V408.518H201.004V413.936C201.004 414.286 201.076 414.55 201.222 414.727C201.367 414.9 201.614 414.986 201.964 414.986C202.137 414.986 202.373 414.954 202.675 414.889V416.1C202.282 416.208 201.9 416.262 201.528 416.262C200.861 416.262 200.358 416.06 200.018 415.656C199.679 415.252 199.51 414.679 199.51 413.936V408.518H197.919V407.364H199.51V405.248H201.004ZM203.829 411.651C203.829 410.795 203.996 410.026 204.33 409.342C204.669 408.658 205.137 408.131 205.735 407.759C206.338 407.388 207.024 407.202 207.794 407.202C208.983 407.202 209.944 407.614 210.676 408.438C211.414 409.261 211.783 410.357 211.783 411.724V411.829C211.783 412.679 211.618 413.444 211.29 414.122C210.967 414.795 210.501 415.32 209.893 415.696C209.29 416.073 208.596 416.262 207.81 416.262C206.626 416.262 205.665 415.85 204.928 415.026C204.196 414.203 203.829 413.113 203.829 411.756V411.651ZM205.331 411.829C205.331 412.798 205.555 413.576 206.001 414.162C206.454 414.749 207.056 415.042 207.81 415.042C208.569 415.042 209.172 414.746 209.619 414.154C210.065 413.557 210.289 412.722 210.289 411.651C210.289 410.693 210.06 409.918 209.603 409.326C209.15 408.728 208.547 408.43 207.794 408.43C207.056 408.43 206.462 408.723 206.01 409.31C205.557 409.896 205.331 410.736 205.331 411.829Z" fill="#232323"/>
<g clip-path="url(#clip5)">
<path d="M165.667 425.497H156.807C155.584 425.497 154.592 426.49 154.592 427.712V436.572C154.592 437.795 155.584 438.787 156.807 438.787C158.029 438.787 159.022 437.795 159.022 436.572V429.927H165.667C166.889 429.927 167.882 428.935 167.882 427.712C167.882 426.49 166.889 425.497 165.667 425.497Z" fill="#232323"/>
<path d="M218.826 465.368C217.603 465.368 216.611 466.36 216.611 467.583V474.228H209.966C208.743 474.228 207.751 475.22 207.751 476.443C207.751 477.665 208.743 478.658 209.966 478.658H218.826C220.048 478.658 221.041 477.665 221.041 476.443V467.583C221.041 466.36 220.048 465.368 218.826 465.368Z" fill="#232323"/>
<path d="M218.826 425.497H209.966C208.743 425.497 207.751 426.49 207.751 427.712C207.751 428.935 208.743 429.927 209.966 429.927H216.611V436.572C216.611 437.795 217.603 438.787 218.826 438.787C220.048 438.787 221.041 437.795 221.041 436.572V427.712C221.041 426.49 220.048 425.497 218.826 425.497Z" fill="#232323"/>
<path d="M165.667 474.228H159.022V467.583C159.022 466.36 158.029 465.368 156.807 465.368C155.584 465.368 154.592 466.36 154.592 467.583V476.443C154.592 477.665 155.584 478.658 156.807 478.658H165.667C166.889 478.658 167.882 477.665 167.882 476.443C167.882 475.22 166.889 474.228 165.667 474.228Z" fill="#232323"/>
<path d="M167.882 434.358H163.452V469.797H167.882V434.358Z" fill="#232323"/>
<path d="M176.742 434.358H172.312V460.938H176.742V434.358Z" fill="#232323"/>
<path d="M185.601 434.358H181.171V460.938H185.601V434.358Z" fill="#232323"/>
<path d="M194.462 434.358H190.032V469.797H194.462V434.358Z" fill="#232323"/>
<path d="M203.321 434.358H198.891V460.938H203.321V434.358Z" fill="#232323"/>
<path d="M212.181 434.358H207.751V469.797H212.181V434.358Z" fill="#232323"/>
<path d="M176.742 465.368H172.312V469.798H176.742V465.368Z" fill="#232323"/>
<path d="M185.601 465.368H181.171V469.798H185.601V465.368Z" fill="#232323"/>
<path d="M203.321 465.368H198.891V469.798H203.321V465.368Z" fill="#232323"/>
</g>
<path d="M139.207 496.031C139.207 497.366 138.9 498.44 138.287 499.253C137.673 500.06 136.849 500.464 135.816 500.464C134.712 500.464 133.859 500.074 133.256 499.293L133.184 500.303H131.811V487.901H133.305V492.527C133.908 491.779 134.739 491.405 135.8 491.405C136.86 491.405 137.692 491.806 138.295 492.608C138.903 493.41 139.207 494.508 139.207 495.902V496.031ZM137.713 495.862C137.713 494.844 137.517 494.059 137.124 493.504C136.731 492.95 136.166 492.673 135.428 492.673C134.443 492.673 133.735 493.13 133.305 494.045V497.824C133.762 498.739 134.476 499.196 135.444 499.196C136.16 499.196 136.718 498.919 137.116 498.365C137.514 497.81 137.713 496.976 137.713 495.862ZM140.701 495.854C140.701 494.998 140.868 494.228 141.201 493.545C141.54 492.861 142.009 492.333 142.606 491.962C143.209 491.591 143.895 491.405 144.665 491.405C145.855 491.405 146.816 491.817 147.548 492.64C148.285 493.464 148.654 494.559 148.654 495.926V496.031C148.654 496.882 148.49 497.646 148.161 498.324C147.838 498.997 147.373 499.522 146.764 499.899C146.162 500.276 145.467 500.464 144.681 500.464C143.497 500.464 142.536 500.052 141.799 499.229C141.067 498.405 140.701 497.315 140.701 495.959V495.854ZM142.203 496.031C142.203 497 142.426 497.778 142.873 498.365C143.325 498.952 143.928 499.245 144.681 499.245C145.44 499.245 146.043 498.949 146.49 498.357C146.937 497.759 147.16 496.925 147.16 495.854C147.16 494.896 146.931 494.12 146.474 493.528C146.022 492.931 145.419 492.632 144.665 492.632C143.928 492.632 143.333 492.926 142.881 493.512C142.429 494.099 142.203 494.939 142.203 496.031ZM152.15 500.303H150.656V487.901H152.15V500.303ZM158.173 500.464C156.989 500.464 156.026 500.077 155.283 499.301C154.54 498.521 154.169 497.479 154.169 496.177V495.902C154.169 495.036 154.333 494.263 154.661 493.585C154.995 492.901 155.458 492.368 156.05 491.986C156.647 491.599 157.293 491.405 157.988 491.405C159.123 491.405 160.006 491.779 160.636 492.527C161.266 493.275 161.581 494.347 161.581 495.741V496.362H155.662C155.684 497.224 155.934 497.921 156.413 498.454C156.898 498.981 157.511 499.245 158.254 499.245C158.782 499.245 159.228 499.137 159.594 498.922C159.96 498.707 160.281 498.421 160.555 498.066L161.468 498.777C160.736 499.902 159.637 500.464 158.173 500.464ZM157.988 492.632C157.385 492.632 156.879 492.853 156.47 493.294C156.061 493.73 155.808 494.344 155.711 495.135H160.087V495.022C160.044 494.263 159.839 493.676 159.473 493.262C159.107 492.842 158.612 492.632 157.988 492.632ZM165.343 489.451V491.566H166.974V492.721H165.343V498.139C165.343 498.489 165.416 498.752 165.561 498.93C165.707 499.102 165.954 499.188 166.304 499.188C166.476 499.188 166.713 499.156 167.015 499.091V500.303C166.622 500.41 166.239 500.464 165.868 500.464C165.201 500.464 164.697 500.262 164.358 499.859C164.019 499.455 163.849 498.882 163.849 498.139V492.721H162.259V491.566H163.849V489.451H165.343ZM168.169 495.854C168.169 494.998 168.336 494.228 168.67 493.545C169.009 492.861 169.477 492.333 170.075 491.962C170.678 491.591 171.364 491.405 172.134 491.405C173.323 491.405 174.284 491.817 175.016 492.64C175.753 493.464 176.122 494.559 176.122 495.926V496.031C176.122 496.882 175.958 497.646 175.63 498.324C175.307 498.997 174.841 499.522 174.233 499.899C173.63 500.276 172.936 500.464 172.15 500.464C170.965 500.464 170.005 500.052 169.267 499.229C168.535 498.405 168.169 497.315 168.169 495.959V495.854ZM169.671 496.031C169.671 497 169.894 497.778 170.341 498.365C170.793 498.952 171.396 499.245 172.15 499.245C172.909 499.245 173.512 498.949 173.958 498.357C174.405 497.759 174.628 496.925 174.628 495.854C174.628 494.896 174.4 494.12 173.942 493.528C173.49 492.931 172.887 492.632 172.134 492.632C171.396 492.632 170.801 492.926 170.349 493.512C169.897 494.099 169.671 494.939 169.671 496.031ZM189.493 496.031C189.493 497.366 189.186 498.44 188.573 499.253C187.959 500.06 187.135 500.464 186.102 500.464C184.998 500.464 184.145 500.074 183.542 499.293L183.47 500.303H182.097V487.901H183.591V492.527C184.194 491.779 185.025 491.405 186.086 491.405C187.146 491.405 187.978 491.806 188.581 492.608C189.189 493.41 189.493 494.508 189.493 495.902V496.031ZM187.999 495.862C187.999 494.844 187.803 494.059 187.41 493.504C187.017 492.95 186.452 492.673 185.714 492.673C184.729 492.673 184.021 493.13 183.591 494.045V497.824C184.048 498.739 184.762 499.196 185.73 499.196C186.446 499.196 187.004 498.919 187.402 498.365C187.8 497.81 187.999 496.976 187.999 495.862ZM196.776 500.303C196.69 500.13 196.62 499.824 196.566 499.382C195.872 500.103 195.043 500.464 194.079 500.464C193.218 500.464 192.51 500.222 191.956 499.737C191.407 499.248 191.132 498.629 191.132 497.88C191.132 496.971 191.477 496.266 192.166 495.765C192.86 495.259 193.834 495.006 195.088 495.006H196.542V494.32C196.542 493.798 196.386 493.383 196.074 493.076C195.761 492.764 195.301 492.608 194.693 492.608C194.16 492.608 193.713 492.742 193.353 493.012C192.992 493.281 192.812 493.606 192.812 493.989H191.31C191.31 493.553 191.463 493.133 191.77 492.729C192.082 492.32 192.502 491.997 193.03 491.76C193.562 491.523 194.146 491.405 194.782 491.405C195.788 491.405 196.577 491.658 197.147 492.164C197.718 492.664 198.014 493.356 198.036 494.239V498.26C198.036 499.062 198.138 499.7 198.342 500.173V500.303H196.776ZM194.297 499.164C194.765 499.164 195.21 499.043 195.629 498.801C196.049 498.559 196.353 498.244 196.542 497.856V496.064H195.371C193.541 496.064 192.626 496.599 192.626 497.67C192.626 498.139 192.782 498.505 193.094 498.769C193.406 499.032 193.807 499.164 194.297 499.164ZM201.79 491.566L201.838 492.664C202.506 491.825 203.378 491.405 204.455 491.405C206.301 491.405 207.232 492.446 207.248 494.53V500.303H205.754V494.521C205.749 493.892 205.604 493.426 205.318 493.125C205.039 492.823 204.6 492.673 204.002 492.673C203.518 492.673 203.093 492.802 202.727 493.06C202.361 493.318 202.075 493.658 201.871 494.077V500.303H200.377V491.566H201.79ZM213.005 499.245C213.538 499.245 214.004 499.083 214.402 498.76C214.8 498.437 215.021 498.034 215.064 497.549H216.477C216.45 498.05 216.278 498.526 215.96 498.978C215.643 499.431 215.217 499.791 214.684 500.06C214.157 500.33 213.597 500.464 213.005 500.464C211.815 500.464 210.868 500.068 210.163 499.277C209.463 498.481 209.113 497.393 209.113 496.015V495.765C209.113 494.914 209.269 494.158 209.582 493.496C209.894 492.834 210.341 492.32 210.922 491.954C211.509 491.588 212.2 491.405 212.997 491.405C213.977 491.405 214.789 491.698 215.435 492.285C216.087 492.872 216.434 493.633 216.477 494.57H215.064C215.021 494.005 214.806 493.542 214.418 493.181C214.036 492.815 213.562 492.632 212.997 492.632C212.238 492.632 211.649 492.907 211.229 493.456C210.814 493.999 210.607 494.788 210.607 495.821V496.104C210.607 497.111 210.814 497.886 211.229 498.429C211.643 498.973 212.235 499.245 213.005 499.245ZM223.55 500.303C223.464 500.13 223.394 499.824 223.34 499.382C222.646 500.103 221.817 500.464 220.853 500.464C219.992 500.464 219.284 500.222 218.73 499.737C218.181 499.248 217.906 498.629 217.906 497.88C217.906 496.971 218.251 496.266 218.94 495.765C219.634 495.259 220.608 495.006 221.862 495.006H223.316V494.32C223.316 493.798 223.16 493.383 222.847 493.076C222.535 492.764 222.075 492.608 221.467 492.608C220.934 492.608 220.487 492.742 220.126 493.012C219.766 493.281 219.586 493.606 219.586 493.989H218.084C218.084 493.553 218.237 493.133 218.544 492.729C218.856 492.32 219.276 491.997 219.804 491.76C220.336 491.523 220.92 491.405 221.556 491.405C222.562 491.405 223.351 491.658 223.921 492.164C224.492 492.664 224.788 493.356 224.81 494.239V498.26C224.81 499.062 224.912 499.7 225.116 500.173V500.303H223.55ZM221.071 499.164C221.539 499.164 221.984 499.043 222.403 498.801C222.823 498.559 223.127 498.244 223.316 497.856V496.064H222.145C220.315 496.064 219.4 496.599 219.4 497.67C219.4 498.139 219.556 498.505 219.868 498.769C220.18 499.032 220.581 499.164 221.071 499.164ZM222.452 487.901H224.26L222.097 490.274H220.894L222.452 487.901ZM231.374 492.907C231.148 492.869 230.903 492.85 230.639 492.85C229.659 492.85 228.995 493.267 228.645 494.102V500.303H227.151V491.566H228.604L228.629 492.576C229.118 491.795 229.813 491.405 230.712 491.405C231.002 491.405 231.223 491.443 231.374 491.518V492.907ZM234.377 500.303H232.884V491.566H234.377V500.303ZM232.763 489.249C232.763 489.007 232.835 488.802 232.981 488.635C233.131 488.469 233.352 488.385 233.643 488.385C233.933 488.385 234.154 488.469 234.305 488.635C234.455 488.802 234.531 489.007 234.531 489.249C234.531 489.491 234.455 489.693 234.305 489.855C234.154 490.016 233.933 490.097 233.643 490.097C233.352 490.097 233.131 490.016 232.981 489.855C232.835 489.693 232.763 489.491 232.763 489.249ZM236.38 495.854C236.38 494.998 236.547 494.228 236.88 493.545C237.22 492.861 237.688 492.333 238.285 491.962C238.888 491.591 239.574 491.405 240.344 491.405C241.534 491.405 242.495 491.817 243.227 492.64C243.964 493.464 244.333 494.559 244.333 495.926V496.031C244.333 496.882 244.169 497.646 243.84 498.324C243.517 498.997 243.052 499.522 242.444 499.899C241.841 500.276 241.146 500.464 240.36 500.464C239.176 500.464 238.215 500.052 237.478 499.229C236.746 498.405 236.38 497.315 236.38 495.959V495.854ZM237.882 496.031C237.882 497 238.105 497.778 238.552 498.365C239.004 498.952 239.607 499.245 240.36 499.245C241.119 499.245 241.722 498.949 242.169 498.357C242.616 497.759 242.839 496.925 242.839 495.854C242.839 494.896 242.61 494.12 242.153 493.528C241.701 492.931 241.098 492.632 240.344 492.632C239.607 492.632 239.012 492.926 238.56 493.512C238.108 494.099 237.882 494.939 237.882 496.031ZM131.885 511.303C131.837 511.205 131.797 511.032 131.767 510.784C131.376 511.19 130.908 511.394 130.365 511.394C129.879 511.394 129.48 511.257 129.167 510.984C128.857 510.708 128.703 510.359 128.703 509.937C128.703 509.424 128.897 509.026 129.286 508.744C129.677 508.458 130.227 508.316 130.934 508.316H131.753V507.929C131.753 507.634 131.665 507.4 131.489 507.227C131.313 507.051 131.054 506.963 130.711 506.963C130.41 506.963 130.158 507.039 129.955 507.191C129.751 507.343 129.65 507.526 129.65 507.742H128.803C128.803 507.496 128.889 507.259 129.062 507.032C129.238 506.801 129.475 506.619 129.773 506.485C130.073 506.352 130.403 506.285 130.761 506.285C131.328 506.285 131.773 506.427 132.095 506.713C132.417 506.995 132.584 507.385 132.596 507.883V510.151C132.596 510.603 132.653 510.963 132.769 511.23V511.303H131.885ZM130.488 510.661C130.752 510.661 131.002 510.592 131.239 510.456C131.476 510.319 131.647 510.142 131.753 509.923V508.912H131.093C130.061 508.912 129.545 509.214 129.545 509.818C129.545 510.082 129.633 510.289 129.809 510.437C129.985 510.586 130.211 510.661 130.488 510.661ZM138.078 508.894C138.078 509.644 137.907 510.248 137.564 510.706C137.221 511.164 136.756 511.394 136.17 511.394C135.572 511.394 135.102 511.204 134.759 510.825V513.197H133.916V506.376H134.686L134.727 506.922C135.07 506.497 135.546 506.285 136.157 506.285C136.748 506.285 137.216 506.508 137.559 506.954C137.905 507.4 138.078 508.021 138.078 508.816V508.894ZM137.236 508.798C137.236 508.243 137.117 507.804 136.881 507.482C136.644 507.161 136.319 507 135.906 507C135.396 507 135.014 507.226 134.759 507.678V510.032C135.011 510.481 135.396 510.706 135.915 510.706C136.319 510.706 136.639 510.547 136.876 510.228C137.116 509.906 137.236 509.43 137.236 508.798ZM141.534 507.132C141.407 507.11 141.268 507.1 141.12 507.1C140.567 507.1 140.192 507.335 139.995 507.806V511.303H139.153V506.376H139.972L139.986 506.945C140.262 506.505 140.654 506.285 141.161 506.285C141.325 506.285 141.449 506.306 141.534 506.349V507.132ZM141.999 508.794C141.999 508.311 142.093 507.877 142.281 507.491C142.472 507.106 142.736 506.808 143.073 506.599C143.413 506.39 143.8 506.285 144.234 506.285C144.905 506.285 145.447 506.517 145.86 506.981C146.276 507.446 146.484 508.064 146.484 508.835V508.894C146.484 509.374 146.391 509.805 146.206 510.187C146.024 510.566 145.761 510.862 145.418 511.075C145.078 511.287 144.687 511.394 144.243 511.394C143.575 511.394 143.034 511.161 142.618 510.697C142.205 510.233 141.999 509.618 141.999 508.853V508.794ZM142.845 508.894C142.845 509.44 142.971 509.879 143.223 510.21C143.478 510.541 143.818 510.706 144.243 510.706C144.671 510.706 145.011 510.539 145.263 510.205C145.515 509.868 145.641 509.398 145.641 508.794C145.641 508.253 145.512 507.816 145.254 507.482C144.999 507.145 144.659 506.977 144.234 506.977C143.818 506.977 143.483 507.142 143.228 507.473C142.973 507.804 142.845 508.278 142.845 508.894ZM149.093 510.16L150.313 506.376H151.174L149.407 511.303H148.765L146.98 506.376H147.84L149.093 510.16ZM154.953 511.303C154.904 511.205 154.865 511.032 154.834 510.784C154.443 511.19 153.975 511.394 153.432 511.394C152.946 511.394 152.547 511.257 152.234 510.984C151.925 510.708 151.77 510.359 151.77 509.937C151.77 509.424 151.964 509.026 152.353 508.744C152.744 508.458 153.294 508.316 154.001 508.316H154.821V507.929C154.821 507.634 154.733 507.4 154.557 507.227C154.381 507.051 154.121 506.963 153.778 506.963C153.478 506.963 153.226 507.039 153.022 507.191C152.819 507.343 152.717 507.526 152.717 507.742H151.87C151.87 507.496 151.957 507.259 152.13 507.032C152.306 506.801 152.543 506.619 152.84 506.485C153.141 506.352 153.47 506.285 153.828 506.285C154.396 506.285 154.841 506.427 155.162 506.713C155.484 506.995 155.651 507.385 155.663 507.883V510.151C155.663 510.603 155.721 510.963 155.836 511.23V511.303H154.953ZM153.555 510.661C153.819 510.661 154.069 510.592 154.306 510.456C154.543 510.319 154.715 510.142 154.821 509.923V508.912H154.161C153.128 508.912 152.612 509.214 152.612 509.818C152.612 510.082 152.7 510.289 152.876 510.437C153.053 510.586 153.279 510.661 153.555 510.661ZM156.779 508.798C156.779 508.042 156.958 507.435 157.316 506.977C157.674 506.516 158.143 506.285 158.723 506.285C159.3 506.285 159.757 506.482 160.094 506.877V504.309H160.936V511.303H160.162L160.121 510.774C159.784 511.187 159.315 511.394 158.714 511.394C158.143 511.394 157.677 511.16 157.316 510.692C156.958 510.225 156.779 509.615 156.779 508.862V508.798ZM157.621 508.894C157.621 509.452 157.736 509.89 157.967 510.205C158.198 510.521 158.517 510.679 158.923 510.679C159.458 510.679 159.848 510.439 160.094 509.959V507.696C159.842 507.232 159.455 507 158.932 507C158.52 507 158.198 507.159 157.967 507.478C157.736 507.797 157.621 508.269 157.621 508.894ZM162.024 508.794C162.024 508.311 162.118 507.877 162.307 507.491C162.498 507.106 162.762 506.808 163.099 506.599C163.439 506.39 163.826 506.285 164.26 506.285C164.931 506.285 165.473 506.517 165.885 506.981C166.301 507.446 166.509 508.064 166.509 508.835V508.894C166.509 509.374 166.417 509.805 166.232 510.187C166.049 510.566 165.787 510.862 165.444 511.075C165.104 511.287 164.712 511.394 164.269 511.394C163.601 511.394 163.059 511.161 162.643 510.697C162.231 510.233 162.024 509.618 162.024 508.853V508.794ZM162.871 508.894C162.871 509.44 162.997 509.879 163.249 510.21C163.504 510.541 163.844 510.706 164.269 510.706C164.697 510.706 165.037 510.539 165.289 510.205C165.541 509.868 165.667 509.398 165.667 508.794C165.667 508.253 165.538 507.816 165.28 507.482C165.025 507.145 164.685 506.977 164.26 506.977C163.844 506.977 163.509 507.142 163.254 507.473C162.999 507.804 162.871 508.278 162.871 508.894ZM171.923 511.394C171.255 511.394 170.712 511.175 170.293 510.738C169.874 510.298 169.665 509.71 169.665 508.976V508.821C169.665 508.332 169.757 507.897 169.943 507.514C170.131 507.129 170.392 506.828 170.726 506.613C171.063 506.394 171.427 506.285 171.818 506.285C172.459 506.285 172.957 506.496 173.312 506.918C173.667 507.34 173.845 507.944 173.845 508.73V509.081H170.507C170.519 509.566 170.66 509.959 170.931 510.26C171.204 510.557 171.55 510.706 171.969 510.706C172.266 510.706 172.518 510.645 172.725 510.524C172.931 510.403 173.112 510.242 173.266 510.041L173.781 510.442C173.368 511.076 172.749 511.394 171.923 511.394ZM171.818 506.977C171.479 506.977 171.193 507.101 170.962 507.35C170.732 507.596 170.589 507.942 170.534 508.388H173.002V508.325C172.978 507.897 172.863 507.566 172.656 507.332C172.45 507.095 172.171 506.977 171.818 506.977ZM175.616 506.376L175.639 506.922C176 506.497 176.487 506.285 177.1 506.285C177.789 506.285 178.258 506.549 178.507 507.077C178.671 506.84 178.884 506.649 179.145 506.503C179.409 506.358 179.72 506.285 180.078 506.285C181.159 506.285 181.708 506.857 181.727 508.001V511.303H180.884V508.052C180.884 507.699 180.804 507.437 180.643 507.264C180.482 507.088 180.212 507 179.832 507C179.52 507 179.26 507.094 179.054 507.282C178.847 507.467 178.727 507.718 178.694 508.033V511.303H177.847V508.074C177.847 507.358 177.497 507 176.795 507C176.243 507 175.865 507.235 175.662 507.705V511.303H174.819V506.376H175.616ZM188.356 511.303C188.308 511.205 188.268 511.032 188.238 510.784C187.846 511.19 187.379 511.394 186.835 511.394C186.35 511.394 185.951 511.257 185.638 510.984C185.328 510.708 185.174 510.359 185.174 509.937C185.174 509.424 185.368 509.026 185.756 508.744C186.148 508.458 186.697 508.316 187.405 508.316H188.224V507.929C188.224 507.634 188.136 507.4 187.96 507.227C187.784 507.051 187.525 506.963 187.182 506.963C186.881 506.963 186.629 507.039 186.426 507.191C186.222 507.343 186.121 507.526 186.121 507.742H185.274C185.274 507.496 185.36 507.259 185.533 507.032C185.709 506.801 185.946 506.619 186.244 506.485C186.544 506.352 186.873 506.285 187.232 506.285C187.799 506.285 188.244 506.427 188.566 506.713C188.888 506.995 189.054 507.385 189.067 507.883V510.151C189.067 510.603 189.124 510.963 189.24 511.23V511.303H188.356ZM186.958 510.661C187.223 510.661 187.473 510.592 187.71 510.456C187.947 510.319 188.118 510.142 188.224 509.923V508.912H187.564C186.532 508.912 186.016 509.214 186.016 509.818C186.016 510.082 186.104 510.289 186.28 510.437C186.456 510.586 186.682 510.661 186.958 510.661ZM191.53 505.183V506.376H192.45V507.027H191.53V510.082C191.53 510.28 191.571 510.428 191.653 510.529C191.735 510.626 191.875 510.674 192.072 510.674C192.169 510.674 192.303 510.656 192.473 510.62V511.303C192.251 511.363 192.035 511.394 191.826 511.394C191.45 511.394 191.166 511.28 190.975 511.052C190.783 510.825 190.688 510.501 190.688 510.082V507.027H189.791V506.376H190.688V505.183H191.53ZM195.482 511.394C194.815 511.394 194.271 511.175 193.852 510.738C193.433 510.298 193.224 509.71 193.224 508.976V508.821C193.224 508.332 193.316 507.897 193.502 507.514C193.69 507.129 193.951 506.828 194.285 506.613C194.622 506.394 194.986 506.285 195.378 506.285C196.018 506.285 196.516 506.496 196.871 506.918C197.226 507.34 197.404 507.944 197.404 508.73V509.081H194.066C194.078 509.566 194.22 509.959 194.49 510.26C194.763 510.557 195.109 510.706 195.528 510.706C195.825 510.706 196.077 510.645 196.284 510.524C196.49 510.403 196.671 510.242 196.826 510.041L197.34 510.442C196.927 511.076 196.308 511.394 195.482 511.394ZM195.378 506.977C195.038 506.977 194.752 507.101 194.522 507.35C194.291 507.596 194.148 507.942 194.094 508.388H196.561V508.325C196.537 507.897 196.422 507.566 196.215 507.332C196.009 507.095 195.73 506.977 195.378 506.977ZM195.787 504.309H196.807L195.587 505.647H194.909L195.787 504.309ZM204.953 511.303H200.609V510.697L202.904 508.147C203.244 507.762 203.478 507.449 203.606 507.209C203.736 506.966 203.801 506.716 203.801 506.458C203.801 506.112 203.697 505.828 203.487 505.606C203.278 505.385 202.998 505.274 202.649 505.274C202.23 505.274 201.904 505.394 201.67 505.634C201.44 505.87 201.324 506.201 201.324 506.626H200.482C200.482 506.016 200.678 505.523 201.069 505.146C201.464 504.77 201.991 504.582 202.649 504.582C203.266 504.582 203.753 504.744 204.111 505.069C204.469 505.391 204.648 505.82 204.648 506.358C204.648 507.01 204.232 507.787 203.401 508.689L201.625 510.615H204.953V511.303ZM208.041 508.798C208.041 508.042 208.22 507.435 208.578 506.977C208.936 506.516 209.405 506.285 209.985 506.285C210.562 506.285 211.018 506.482 211.355 506.877V504.309H212.198V511.303H211.424L211.383 510.774C211.046 511.187 210.577 511.394 209.976 511.394C209.405 511.394 208.939 511.16 208.578 510.692C208.22 510.225 208.041 509.615 208.041 508.862V508.798ZM208.883 508.894C208.883 509.452 208.998 509.89 209.229 510.205C209.46 510.521 209.778 510.679 210.185 510.679C210.719 510.679 211.109 510.439 211.355 509.959V507.696C211.103 507.232 210.716 507 210.194 507C209.781 507 209.46 507.159 209.229 507.478C208.998 507.797 208.883 508.269 208.883 508.894ZM214.424 511.303H213.582V506.376H214.424V511.303ZM213.514 505.069C213.514 504.932 213.555 504.817 213.637 504.723C213.722 504.629 213.846 504.582 214.01 504.582C214.174 504.582 214.298 504.629 214.383 504.723C214.468 504.817 214.511 504.932 214.511 505.069C214.511 505.206 214.468 505.319 214.383 505.411C214.298 505.502 214.174 505.547 214.01 505.547C213.846 505.547 213.722 505.502 213.637 505.411C213.555 505.319 213.514 505.206 213.514 505.069ZM218.818 511.303C218.77 511.205 218.73 511.032 218.7 510.784C218.308 511.19 217.841 511.394 217.298 511.394C216.812 511.394 216.413 511.257 216.1 510.984C215.79 510.708 215.636 510.359 215.636 509.937C215.636 509.424 215.83 509.026 216.218 508.744C216.61 508.458 217.159 508.316 217.867 508.316H218.686V507.929C218.686 507.634 218.598 507.4 218.422 507.227C218.246 507.051 217.987 506.963 217.644 506.963C217.343 506.963 217.091 507.039 216.888 507.191C216.684 507.343 216.583 507.526 216.583 507.742H215.736C215.736 507.496 215.822 507.259 215.995 507.032C216.171 506.801 216.408 506.619 216.706 506.485C217.006 506.352 217.335 506.285 217.694 506.285C218.261 506.285 218.706 506.427 219.028 506.713C219.35 506.995 219.517 507.385 219.529 507.883V510.151C219.529 510.603 219.586 510.963 219.702 511.23V511.303H218.818ZM217.42 510.661C217.685 510.661 217.935 510.592 218.172 510.456C218.409 510.319 218.58 510.142 218.686 509.923V508.912H218.026C216.994 508.912 216.478 509.214 216.478 509.818C216.478 510.082 216.566 510.289 216.742 510.437C216.918 510.586 217.144 510.661 217.42 510.661ZM223.718 509.996C223.718 509.768 223.631 509.592 223.458 509.468C223.288 509.34 222.989 509.231 222.561 509.14C222.136 509.049 221.798 508.939 221.546 508.812C221.297 508.684 221.112 508.533 220.99 508.357C220.872 508.181 220.813 507.971 220.813 507.728C220.813 507.324 220.983 506.983 221.323 506.704C221.666 506.424 222.103 506.285 222.634 506.285C223.193 506.285 223.645 506.429 223.991 506.717C224.34 507.006 224.515 507.375 224.515 507.824H223.668C223.668 507.593 223.569 507.394 223.372 507.227C223.177 507.06 222.932 506.977 222.634 506.977C222.327 506.977 222.088 507.044 221.915 507.177C221.742 507.311 221.655 507.485 221.655 507.701C221.655 507.904 221.736 508.058 221.896 508.161C222.057 508.264 222.347 508.363 222.766 508.457C223.188 508.551 223.53 508.663 223.791 508.794C224.052 508.924 224.244 509.082 224.369 509.267C224.496 509.449 224.56 509.673 224.56 509.937C224.56 510.377 224.384 510.73 224.032 510.998C223.68 511.262 223.223 511.394 222.661 511.394C222.267 511.394 221.918 511.324 221.614 511.184C221.311 511.045 221.072 510.85 220.899 510.601C220.729 510.349 220.644 510.078 220.644 509.786H221.487C221.502 510.069 221.614 510.293 221.824 510.46C222.036 510.624 222.315 510.706 222.661 510.706C222.98 510.706 223.235 510.642 223.426 510.515C223.621 510.384 223.718 510.211 223.718 509.996ZM231.012 510.815C230.684 511.201 230.203 511.394 229.569 511.394C229.044 511.394 228.643 511.242 228.367 510.938C228.094 510.632 227.955 510.179 227.952 509.581V506.376H228.795V509.559C228.795 510.305 229.098 510.679 229.705 510.679C230.349 510.679 230.777 510.439 230.989 509.959V506.376H231.832V511.303H231.03L231.012 510.815ZM230.329 504.309H231.349L230.129 505.647H229.45L230.329 504.309ZM234.259 505.183V506.376H235.179V507.027H234.259V510.082C234.259 510.28 234.3 510.428 234.382 510.529C234.464 510.626 234.603 510.674 234.801 510.674C234.898 510.674 235.031 510.656 235.201 510.62V511.303C234.98 511.363 234.764 511.394 234.555 511.394C234.178 511.394 233.895 511.28 233.703 511.052C233.512 510.825 233.416 510.501 233.416 510.082V507.027H232.519V506.376H233.416V505.183H234.259ZM238.211 511.394C237.543 511.394 237 511.175 236.581 510.738C236.162 510.298 235.953 509.71 235.953 508.976V508.821C235.953 508.332 236.045 507.897 236.23 507.514C236.419 507.129 236.68 506.828 237.014 506.613C237.351 506.394 237.715 506.285 238.106 506.285C238.747 506.285 239.245 506.496 239.6 506.918C239.955 507.34 240.133 507.944 240.133 508.73V509.081H236.795C236.807 509.566 236.948 509.959 237.218 510.26C237.492 510.557 237.838 510.706 238.257 510.706C238.554 510.706 238.806 510.645 239.012 510.524C239.219 510.403 239.4 510.242 239.554 510.041L240.069 510.442C239.656 511.076 239.037 511.394 238.211 511.394ZM238.106 506.977C237.766 506.977 237.481 507.101 237.25 507.35C237.02 507.596 236.877 507.942 236.822 508.388H239.29V508.325C239.266 507.897 239.151 507.566 238.944 507.332C238.738 507.095 238.459 506.977 238.106 506.977ZM242.027 511.303H241.184V506.376H242.027V511.303ZM241.116 505.069C241.116 504.932 241.157 504.817 241.239 504.723C241.324 504.629 241.449 504.582 241.612 504.582C241.776 504.582 241.901 504.629 241.986 504.723C242.071 504.817 242.113 504.932 242.113 505.069C242.113 505.206 242.071 505.319 241.986 505.411C241.901 505.502 241.776 505.547 241.612 505.547C241.449 505.547 241.324 505.502 241.239 505.411C241.157 505.319 241.116 505.206 241.116 505.069ZM246.248 509.996C246.248 509.768 246.161 509.592 245.988 509.468C245.818 509.34 245.519 509.231 245.091 509.14C244.666 509.049 244.328 508.939 244.076 508.812C243.827 508.684 243.642 508.533 243.52 508.357C243.402 508.181 243.343 507.971 243.343 507.728C243.343 507.324 243.513 506.983 243.853 506.704C244.196 506.424 244.633 506.285 245.164 506.285C245.723 506.285 246.175 506.429 246.521 506.717C246.87 507.006 247.045 507.375 247.045 507.824H246.198C246.198 507.593 246.099 507.394 245.902 507.227C245.707 507.06 245.462 506.977 245.164 506.977C244.858 506.977 244.618 507.044 244.445 507.177C244.272 507.311 244.185 507.485 244.185 507.701C244.185 507.904 244.266 508.058 244.426 508.161C244.587 508.264 244.877 508.363 245.296 508.457C245.718 508.551 246.06 508.663 246.321 508.794C246.582 508.924 246.774 509.082 246.899 509.267C247.026 509.449 247.09 509.673 247.09 509.937C247.09 510.377 246.914 510.73 246.562 510.998C246.21 511.262 245.753 511.394 245.191 511.394C244.797 511.394 244.448 511.324 244.144 511.184C243.841 511.045 243.602 510.85 243.429 510.601C243.259 510.349 243.174 510.078 243.174 509.786H244.017C244.032 510.069 244.144 510.293 244.354 510.46C244.566 510.624 244.845 510.706 245.191 510.706C245.51 510.706 245.765 510.642 245.956 510.515C246.151 510.384 246.248 510.211 246.248 509.996Z" fill="#232323"/>
<path d="M95.3445 328.859C95.3445 330.482 94.9759 331.779 94.2387 332.749C93.5015 333.712 92.5121 334.194 91.2705 334.194C90.1194 334.194 89.1979 333.816 88.5059 333.059V338.035H86.1488V323.504H88.3216L88.4186 324.571C89.1106 323.731 90.0515 323.31 91.2414 323.31C92.5218 323.31 93.5241 323.789 94.2484 324.746C94.9791 325.697 95.3445 327.019 95.3445 328.713V328.859ZM92.9971 328.655C92.9971 327.608 92.7869 326.777 92.3666 326.162C91.9527 325.548 91.3578 325.241 90.5818 325.241C89.6182 325.241 88.9263 325.639 88.5059 326.434V331.09C88.9327 331.905 89.6312 332.312 90.6012 332.312C91.3513 332.312 91.9365 332.011 92.3569 331.41C92.7837 330.802 92.9971 329.884 92.9971 328.655ZM103.619 334C103.515 333.8 103.425 333.473 103.347 333.02C102.597 333.803 101.679 334.194 100.592 334.194C99.5382 334.194 98.6781 333.893 98.012 333.292C97.346 332.69 97.0129 331.947 97.0129 331.061C97.0129 329.942 97.4268 329.085 98.2545 328.49C99.0888 327.889 100.279 327.588 101.824 327.588H103.27V326.9C103.27 326.356 103.118 325.923 102.814 325.6C102.51 325.27 102.047 325.105 101.426 325.105C100.89 325.105 100.45 325.241 100.107 325.512C99.7645 325.778 99.5932 326.117 99.5932 326.531H97.236C97.236 325.955 97.4268 325.419 97.8083 324.921C98.1899 324.416 98.7072 324.022 99.3604 323.737C100.02 323.453 100.754 323.31 101.562 323.31C102.791 323.31 103.771 323.621 104.501 324.242C105.232 324.856 105.607 325.723 105.627 326.841V331.575C105.627 332.519 105.759 333.272 106.024 333.835V334H103.619ZM101.029 332.302C101.494 332.302 101.931 332.189 102.338 331.963C102.752 331.737 103.063 331.433 103.27 331.051V329.072H101.999C101.126 329.072 100.469 329.224 100.03 329.528C99.5899 329.832 99.3701 330.262 99.3701 330.818C99.3701 331.271 99.5188 331.633 99.8163 331.905C100.12 332.17 100.524 332.302 101.029 332.302ZM107.683 328.675C107.683 327.045 108.065 325.745 108.828 324.775C109.597 323.799 110.616 323.31 111.883 323.31C113.08 323.31 114.02 323.728 114.706 324.562L114.813 323.504H116.937V333.68C116.937 335.057 116.507 336.144 115.647 336.939C114.793 337.735 113.639 338.132 112.184 338.132C111.414 338.132 110.661 337.971 109.924 337.647C109.193 337.33 108.637 336.913 108.255 336.396L109.371 334.98C110.095 335.84 110.988 336.27 112.048 336.27C112.831 336.27 113.448 336.056 113.901 335.63C114.353 335.209 114.58 334.588 114.58 333.767V333.059C113.901 333.816 112.995 334.194 111.864 334.194C110.635 334.194 109.63 333.706 108.847 332.729C108.071 331.753 107.683 330.401 107.683 328.675ZM110.03 328.878C110.03 329.932 110.244 330.763 110.671 331.371C111.104 331.973 111.702 332.273 112.465 332.273C113.416 332.273 114.121 331.866 114.58 331.051V326.434C114.134 325.639 113.435 325.241 112.485 325.241C111.709 325.241 111.104 325.548 110.671 326.162C110.244 326.777 110.03 327.682 110.03 328.878ZM125.638 334C125.534 333.8 125.444 333.473 125.366 333.02C124.616 333.803 123.698 334.194 122.612 334.194C121.557 334.194 120.697 333.893 120.031 333.292C119.365 332.69 119.032 331.947 119.032 331.061C119.032 329.942 119.446 329.085 120.274 328.49C121.108 327.889 122.298 327.588 123.843 327.588H125.289V326.9C125.289 326.356 125.137 325.923 124.833 325.6C124.529 325.27 124.067 325.105 123.446 325.105C122.909 325.105 122.469 325.241 122.127 325.512C121.784 325.778 121.612 326.117 121.612 326.531H119.255C119.255 325.955 119.446 325.419 119.828 324.921C120.209 324.416 120.726 324.022 121.38 323.737C122.039 323.453 122.773 323.31 123.582 323.31C124.81 323.31 125.79 323.621 126.521 324.242C127.251 324.856 127.626 325.723 127.646 326.841V331.575C127.646 332.519 127.778 333.272 128.044 333.835V334H125.638ZM123.048 332.302C123.514 332.302 123.95 332.189 124.358 331.963C124.771 331.737 125.082 331.433 125.289 331.051V329.072H124.018C123.145 329.072 122.489 329.224 122.049 329.528C121.609 329.832 121.389 330.262 121.389 330.818C121.389 331.271 121.538 331.633 121.836 331.905C122.139 332.17 122.544 332.302 123.048 332.302ZM132.331 323.504L132.399 324.601C133.136 323.741 134.145 323.31 135.425 323.31C136.829 323.31 137.789 323.847 138.306 324.921C139.069 323.847 140.143 323.31 141.527 323.31C142.684 323.31 143.544 323.631 144.107 324.271C144.676 324.911 144.967 325.855 144.98 327.103V334H142.623V327.171C142.623 326.505 142.477 326.017 142.186 325.706C141.895 325.396 141.414 325.241 140.741 325.241C140.204 325.241 139.765 325.386 139.422 325.677C139.086 325.962 138.849 326.337 138.714 326.803L138.723 334H136.366V327.094C136.334 325.858 135.703 325.241 134.475 325.241C133.531 325.241 132.861 325.626 132.467 326.395V334H130.11V323.504H132.331ZM152.022 334.194C150.528 334.194 149.316 333.725 148.385 332.787C147.46 331.843 146.998 330.589 146.998 329.024V328.733C146.998 327.685 147.198 326.751 147.599 325.93C148.006 325.102 148.575 324.458 149.306 323.999C150.037 323.54 150.852 323.31 151.751 323.31C153.18 323.31 154.282 323.766 155.058 324.678C155.841 325.59 156.232 326.88 156.232 328.549V329.499H149.374C149.445 330.366 149.733 331.051 150.237 331.556C150.748 332.06 151.388 332.312 152.158 332.312C153.238 332.312 154.117 331.876 154.796 331.003L156.067 332.215C155.647 332.842 155.084 333.331 154.379 333.68C153.681 334.023 152.895 334.194 152.022 334.194ZM151.741 325.202C151.094 325.202 150.57 325.428 150.17 325.881C149.775 326.334 149.523 326.964 149.413 327.773H153.904V327.598C153.852 326.809 153.642 326.214 153.274 325.813C152.905 325.406 152.394 325.202 151.741 325.202ZM160.258 323.504L160.326 324.717C161.102 323.779 162.12 323.31 163.381 323.31C165.567 323.31 166.679 324.562 166.718 327.064V334H164.361V327.2C164.361 326.534 164.215 326.043 163.924 325.726C163.64 325.402 163.171 325.241 162.518 325.241C161.567 325.241 160.859 325.671 160.393 326.531V334H158.036V323.504H160.258ZM172.082 320.953V323.504H173.935V325.251H172.082V331.109C172.082 331.51 172.16 331.801 172.315 331.982C172.477 332.157 172.761 332.244 173.168 332.244C173.44 332.244 173.715 332.212 173.993 332.147V333.971C173.456 334.12 172.939 334.194 172.441 334.194C170.63 334.194 169.725 333.195 169.725 331.197V325.251H167.998V323.504H169.725V320.953H172.082ZM175.011 328.655C175.011 327.627 175.215 326.702 175.623 325.881C176.03 325.053 176.602 324.42 177.34 323.98C178.077 323.534 178.924 323.31 179.881 323.31C181.297 323.31 182.445 323.766 183.324 324.678C184.21 325.59 184.689 326.799 184.76 328.306L184.77 328.859C184.77 329.894 184.569 330.818 184.168 331.633C183.774 332.448 183.205 333.078 182.461 333.525C181.724 333.971 180.87 334.194 179.9 334.194C178.419 334.194 177.233 333.703 176.34 332.72C175.454 331.73 175.011 330.414 175.011 328.772V328.655ZM177.369 328.859C177.369 329.939 177.592 330.786 178.038 331.4C178.484 332.008 179.105 332.312 179.9 332.312C180.696 332.312 181.313 332.002 181.753 331.381C182.199 330.76 182.422 329.852 182.422 328.655C182.422 327.595 182.193 326.754 181.734 326.133C181.281 325.512 180.663 325.202 179.881 325.202C179.111 325.202 178.5 325.509 178.048 326.124C177.595 326.731 177.369 327.643 177.369 328.859ZM192.54 334V325.251H190.939V323.504H192.54V322.544C192.54 321.38 192.863 320.481 193.51 319.848C194.156 319.214 195.062 318.897 196.226 318.897C196.639 318.897 197.079 318.955 197.545 319.072L197.487 320.915C197.228 320.863 196.927 320.837 196.585 320.837C195.459 320.837 194.897 321.416 194.897 322.573V323.504H197.031V325.251H194.897V334H192.54ZM205.024 334C204.92 333.8 204.83 333.473 204.752 333.02C204.002 333.803 203.084 334.194 201.997 334.194C200.943 334.194 200.083 333.893 199.417 333.292C198.751 332.69 198.418 331.947 198.418 331.061C198.418 329.942 198.832 329.085 199.659 328.49C200.494 327.889 201.684 327.588 203.229 327.588H204.674V326.9C204.674 326.356 204.522 325.923 204.219 325.6C203.915 325.27 203.452 325.105 202.831 325.105C202.295 325.105 201.855 325.241 201.512 325.512C201.169 325.778 200.998 326.117 200.998 326.531H198.641C198.641 325.955 198.832 325.419 199.213 324.921C199.595 324.416 200.112 324.022 200.765 323.737C201.425 323.453 202.159 323.31 202.967 323.31C204.196 323.31 205.176 323.621 205.906 324.242C206.637 324.856 207.012 325.723 207.032 326.841V331.575C207.032 332.519 207.164 333.272 207.429 333.835V334H205.024ZM202.434 332.302C202.899 332.302 203.336 332.189 203.743 331.963C204.157 331.737 204.467 331.433 204.674 331.051V329.072H203.404C202.531 329.072 201.874 329.224 201.435 329.528C200.995 329.832 200.775 330.262 200.775 330.818C200.775 331.271 200.924 331.633 201.221 331.905C201.525 332.17 201.929 332.302 202.434 332.302ZM213.812 332.312C214.4 332.312 214.889 332.141 215.277 331.798C215.665 331.455 215.872 331.032 215.897 330.527H218.119C218.093 331.181 217.889 331.792 217.508 332.361C217.126 332.923 216.609 333.369 215.956 333.699C215.302 334.029 214.598 334.194 213.841 334.194C212.373 334.194 211.209 333.719 210.349 332.768C209.489 331.817 209.059 330.505 209.059 328.83V328.587C209.059 326.99 209.486 325.713 210.339 324.756C211.193 323.792 212.357 323.31 213.831 323.31C215.079 323.31 216.095 323.676 216.877 324.407C217.666 325.131 218.08 326.085 218.119 327.268H215.897C215.872 326.667 215.665 326.172 215.277 325.784C214.895 325.396 214.407 325.202 213.812 325.202C213.049 325.202 212.46 325.48 212.046 326.036C211.633 326.586 211.422 327.423 211.416 328.549V328.927C211.416 330.065 211.62 330.915 212.027 331.478C212.441 332.034 213.036 332.312 213.812 332.312ZM222.406 334H220.049V323.504H222.406V334ZM219.904 320.779C219.904 320.417 220.017 320.116 220.243 319.877C220.476 319.637 220.806 319.518 221.232 319.518C221.659 319.518 221.989 319.637 222.222 319.877C222.455 320.116 222.571 320.417 222.571 320.779C222.571 321.134 222.455 321.432 222.222 321.671C221.989 321.904 221.659 322.02 221.232 322.02C220.806 322.02 220.476 321.904 220.243 321.671C220.017 321.432 219.904 321.134 219.904 320.779ZM227.489 334H225.132V319.101H227.489V334ZM232.572 334H230.215V323.504H232.572V334ZM230.069 320.779C230.069 320.417 230.182 320.116 230.409 319.877C230.642 319.637 230.971 319.518 231.398 319.518C231.825 319.518 232.155 319.637 232.388 319.877C232.62 320.116 232.737 320.417 232.737 320.779C232.737 321.134 232.62 321.432 232.388 321.671C232.155 321.904 231.825 322.02 231.398 322.02C230.971 322.02 230.642 321.904 230.409 321.671C230.182 321.432 230.069 321.134 230.069 320.779ZM238.101 320.953V323.504H239.954V325.251H238.101V331.109C238.101 331.51 238.179 331.801 238.334 331.982C238.495 332.157 238.78 332.244 239.187 332.244C239.459 332.244 239.734 332.212 240.012 332.147V333.971C239.475 334.12 238.958 334.194 238.46 334.194C236.649 334.194 235.744 333.195 235.744 331.197V325.251H234.017V323.504H235.744V320.953H238.101ZM248.034 334C247.93 333.8 247.84 333.473 247.762 333.02C247.012 333.803 246.094 334.194 245.007 334.194C243.953 334.194 243.093 333.893 242.427 333.292C241.761 332.69 241.428 331.947 241.428 331.061C241.428 329.942 241.842 329.085 242.67 328.49C243.504 327.889 244.694 327.588 246.239 327.588H247.685V326.9C247.685 326.356 247.533 325.923 247.229 325.6C246.925 325.27 246.462 325.105 245.842 325.105C245.305 325.105 244.865 325.241 244.522 325.512C244.18 325.778 244.008 326.117 244.008 326.531H241.651C241.651 325.955 241.842 325.419 242.224 324.921C242.605 324.416 243.122 324.022 243.776 323.737C244.435 323.453 245.169 323.31 245.977 323.31C247.206 323.31 248.186 323.621 248.917 324.242C249.647 324.856 250.022 325.723 250.042 326.841V331.575C250.042 332.519 250.174 333.272 250.44 333.835V334H248.034ZM245.444 332.302C245.91 332.302 246.346 332.189 246.753 331.963C247.167 331.737 247.478 331.433 247.685 331.051V329.072H246.414C245.541 329.072 244.885 329.224 244.445 329.528C244.005 329.832 243.785 330.262 243.785 330.818C243.785 331.271 243.934 331.633 244.231 331.905C244.535 332.17 244.94 332.302 245.444 332.302ZM252.069 328.675C252.069 327.058 252.444 325.761 253.194 324.785C253.944 323.802 254.95 323.31 256.211 323.31C257.323 323.31 258.222 323.698 258.908 324.474V319.101H261.265V334H259.131L259.014 332.914C258.31 333.767 257.369 334.194 256.192 334.194C254.963 334.194 253.967 333.699 253.204 332.71C252.447 331.72 252.069 330.375 252.069 328.675ZM254.426 328.878C254.426 329.945 254.63 330.78 255.037 331.381C255.451 331.976 256.036 332.273 256.793 332.273C257.757 332.273 258.462 331.843 258.908 330.983V326.502C258.474 325.661 257.776 325.241 256.812 325.241C256.049 325.241 255.461 325.545 255.047 326.153C254.633 326.754 254.426 327.663 254.426 328.878ZM263.282 328.655C263.282 327.627 263.486 326.702 263.894 325.881C264.301 325.053 264.873 324.42 265.61 323.98C266.348 323.534 267.195 323.31 268.152 323.31C269.568 323.31 270.716 323.766 271.595 324.678C272.481 325.59 272.96 326.799 273.031 328.306L273.041 328.859C273.041 329.894 272.84 330.818 272.439 331.633C272.045 332.448 271.476 333.078 270.732 333.525C269.995 333.971 269.141 334.194 268.171 334.194C266.69 334.194 265.504 333.703 264.611 332.72C263.725 331.73 263.282 330.414 263.282 328.772V328.655ZM265.64 328.859C265.64 329.939 265.863 330.786 266.309 331.4C266.755 332.008 267.376 332.312 268.171 332.312C268.967 332.312 269.584 332.002 270.024 331.381C270.47 330.76 270.693 329.852 270.693 328.655C270.693 327.595 270.464 326.754 270.005 326.133C269.552 325.512 268.934 325.202 268.152 325.202C267.382 325.202 266.771 325.509 266.319 326.124C265.866 326.731 265.64 327.643 265.64 328.859ZM281.402 331.517C281.842 331.517 282.181 331.643 282.421 331.895C282.66 332.141 282.78 332.451 282.78 332.826C282.78 333.195 282.66 333.502 282.421 333.748C282.181 333.987 281.842 334.107 281.402 334.107C280.982 334.107 280.649 333.987 280.403 333.748C280.157 333.509 280.035 333.201 280.035 332.826C280.035 332.451 280.154 332.141 280.393 331.895C280.633 331.643 280.969 331.517 281.402 331.517ZM281.402 323.281C281.842 323.281 282.181 323.407 282.421 323.66C282.66 323.905 282.78 324.216 282.78 324.591C282.78 324.96 282.66 325.267 282.421 325.512C282.181 325.752 281.842 325.871 281.402 325.871C280.982 325.871 280.649 325.752 280.403 325.512C280.157 325.273 280.035 324.966 280.035 324.591C280.035 324.216 280.154 323.905 280.393 323.66C280.633 323.407 280.969 323.281 281.402 323.281ZM289.803 328.413C289.803 329.848 289.605 331.235 289.211 332.574C288.816 333.906 288.218 335.119 287.416 336.212C286.614 337.311 285.777 338.071 284.904 338.491L284.438 337.182C285.408 336.431 286.175 335.287 286.737 333.748C287.306 332.202 287.591 330.44 287.591 328.461V328.238C287.591 326.44 287.345 324.804 286.854 323.33C286.362 321.849 285.657 320.662 284.739 319.77L284.438 319.498L284.904 318.179C285.732 318.58 286.534 319.291 287.31 320.313C288.086 321.335 288.681 322.48 289.094 323.747C289.508 325.008 289.741 326.311 289.793 327.656L289.803 328.413Z" fill="#3F8D1A"/>
<path d="M94.0001 -27.9999C85.4073 -33.8586 112 -18.4464 117 -18L97.7474 -18C95.9406 11.8931 35 90.1364 35 127C35 140.893 36 603.38 36 640C36 752 -8.00002 876 -18 876C-26 876 -14.3333 69.0001 -18 64.0001V-17.9999L97.7474 -18C98.0237 -22.5704 96.9176 -26.0106 94.0001 -27.9999Z" fill="#232323"/>
</g>
<defs>
<clipPath id="clip0">
<rect width="375" height="812" fill="white"/>
</clipPath>
<clipPath id="clip1">
<rect width="76.4636" height="76.4636" fill="white" transform="translate(64 195.818)"/>
</clipPath>
<clipPath id="clip2">
<rect width="83.5856" height="83.5856" fill="white" transform="translate(227.414 193)"/>
</clipPath>
<clipPath id="clip3">
<rect width="67.1644" height="67.1644" fill="white" transform="translate(154.341 517.86)"/>
</clipPath>
<clipPath id="clip4">
<rect width="72.8806" height="72.8806" fill="white" transform="translate(151.011 334.651)"/>
</clipPath>
<clipPath id="clip5">
<rect width="66.4499" height="66.4499" fill="white" transform="translate(154.591 418.853)"/>
</clipPath>
</defs>
</svg>
