<svg width="1920" height="1080" viewBox="0 0 1920 1080" fill="none" xmlns="http://www.w3.org/2000/svg">
<g clip-path="url(#clip0)">
<rect width="1920" height="1080" fill="white"/>
<rect width="1920" height="1080" fill="#232323"/>
<path d="M48 217C-3.2 237.8 -62.6667 280.333 -86 299L-50 1107L1950 1125L2010 729C1997.33 579 2041.6 318.2 1984 315C1912 311 1856 239 1740 239C1665.78 239 1676 217 1546 207C1416 197 1440 217 1350 239C1260 261 1224 361 1200 371C1176 381 1160 361 1142 341C1124 321 1123 340 1103 324C1083 308 1075 324 1064 331C1051.93 338.683 1059.5 352 1042 361C984.5 401 979 361 950 367.5C914.872 375.374 911 342.667 828 315C738 285 766 275 718 239C670 203 638 193 594 183C550 173 502 207 484 207C466 207 440 195 408 183C376 171 362 163 344 163C326 163 247.019 175.538 200 163C140 147 112 191 48 217Z" fill="#3F8D1A"/>
</g>
<defs>
<clipPath id="clip0">
<rect width="1920" height="1080" fill="white"/>
</clipPath>
</defs>
</svg>
