<svg width="1920" height="1080" viewBox="0 0 1920 1080" fill="none" xmlns="http://www.w3.org/2000/svg">
<g clip-path="url(#clip0)">
<rect width="1920" height="1080" fill="white"/>
<rect width="1920" height="1080" fill="#D5DBD5"/>
<circle cx="960" cy="102" r="832" fill="#D5DBD5" stroke="#232323" stroke-opacity="0.15" stroke-width="1681.33" stroke-dasharray="24.27 24.27"/>
<g filter="url(#filter0_d)">
<circle cx="400" cy="447" r="288" fill="#3F8D1A"/>
</g>
<g filter="url(#filter1_d)">
<circle cx="1512" cy="507" r="280" fill="#232323"/>
</g>
<path d="M390 149C342 83 472 25.6667 508 -19L-18 -33L-34 1135C8 1085 94.4 974.2 104 931C116 877 122 869.272 122 803C122 695 254 715 254 573C254 520.198 290 527 298 511C306 495 256 375 362 375C392 375 368 315 372 283C376 251 410.845 177.662 390 149Z" fill="#232323"/>
<path d="M1724 171C1837.84 171 1896 -13 1972 -61V1135L1328 1167C1332 1143 1293.6 1143 1300 1111C1308 1071 1324.68 967 1348 967C1432 967 1472 843 1472 803C1472 755 1534.05 715 1572 715C1636 715 1585.59 612.282 1616 573C1664 511 1697.71 404.908 1664 383C1623.28 356.533 1691.55 318.087 1710 271C1727.8 225.576 1694.54 171 1724 171Z" fill="#232323"/>
<mask id="mask0" mask-type="alpha" maskUnits="userSpaceOnUse" x="-34" y="-61" width="2006" height="1228">
<path d="M390 149C342 83 472 25.6667 508 -19L-18 -33L-34 1135C8 1085 94.4 974.2 104 931C116 877 122 869.272 122 803C122 695 254 715 254 573C254 520.198 290 527 298 511C306 495 256 375 362 375C392 375 368 315 372 283C376 251 410.845 177.662 390 149Z" fill="#232323"/>
<path d="M1724 171C1837.84 171 1896 -13 1972 -61V1135L1328 1167C1332 1143 1293.6 1143 1300 1111C1308 1071 1324.68 967 1348 967C1432 967 1472 843 1472 803C1472 755 1534.05 715 1572 715C1636 715 1585.59 612.282 1616 573C1664 511 1697.71 404.908 1664 383C1623.28 356.533 1691.55 318.087 1710 271C1727.8 225.576 1694.54 171 1724 171Z" fill="#232323"/>
</mask>
<g mask="url(#mask0)">
<circle cx="400" cy="447" r="288" fill="#D5DBD5"/>
</g>
<mask id="mask1" mask-type="alpha" maskUnits="userSpaceOnUse" x="-34" y="-61" width="2006" height="1228">
<path d="M390 149C342 83 472 25.6667 508 -19L-18 -33L-34 1135C8 1085 94.4 974.2 104 931C116 877 122 869.272 122 803C122 695 254 715 254 573C254 520.198 290 527 298 511C306 495 256 375 362 375C392 375 368 315 372 283C376 251 410.845 177.662 390 149Z" fill="#232323"/>
<path d="M1724 171C1837.84 171 1896 -13 1972 -61V1135L1328 1167C1332 1143 1293.6 1143 1300 1111C1308 1071 1324.68 967 1348 967C1432 967 1472 843 1472 803C1472 755 1534.05 715 1572 715C1636 715 1585.59 612.282 1616 573C1664 511 1697.71 404.908 1664 383C1623.28 356.533 1691.55 318.087 1710 271C1727.8 225.576 1694.54 171 1724 171Z" fill="#232323"/>
</mask>
<g mask="url(#mask1)">
<circle cx="1512" cy="507" r="280" fill="#3F8D1A"/>
</g>
<path d="M543.724 443.214C531.357 442.151 521.181 433.3 518.15 421.596H491.266V492.405H541.053C543.927 476.513 544.855 459.817 543.724 443.214Z" fill="#232323"/>
<path d="M546.228 399.862C538.25 399.862 531.759 406.352 531.759 414.33C531.759 422.308 538.25 428.798 546.228 428.798C554.206 428.798 560.696 422.308 560.696 414.33C560.696 406.352 554.205 399.862 546.228 399.862Z" fill="#232323"/>
<path d="M421.076 521.998C433.144 521.998 442.926 512.215 442.926 500.147C442.926 488.079 433.144 478.297 421.076 478.297C409.008 478.297 399.225 488.079 399.225 500.147C399.225 512.215 409.008 521.998 421.076 521.998Z" fill="#232323"/>
<path d="M476.734 333C460.15 344.396 446.666 363.612 437.357 385.861C434.541 392.591 432.151 399.697 430.194 407.064H476.734V333Z" fill="#232323"/>
<path d="M423.927 463.887C440.053 465.145 453.258 476.954 456.621 492.405H476.734V421.596H426.961C424.488 435.276 423.446 449.578 423.927 463.887V463.887Z" fill="#232323"/>
<path d="M476.734 581V506.936H456.813C454.787 517.623 448.075 526.667 438.898 531.847C447.97 552.544 460.651 570.152 476.734 581V581Z" fill="#232323"/>
<path d="M491.266 581C508.652 569.067 522.579 548.777 531.919 524.999C534.198 519.198 536.168 513.156 537.823 506.936H491.266V581Z" fill="#232323"/>
<path d="M545.444 530.312C538.228 548.682 528.459 564.293 516.566 576.67C552.889 566.808 582.583 540.856 597.525 506.936H552.809C550.834 515.015 548.377 522.845 545.444 530.312V530.312Z" fill="#232323"/>
<path d="M421.076 536.529C403.335 536.529 388.529 523.762 385.339 506.936H370.475C385.359 540.725 414.881 566.608 451.013 576.555C440.467 565.617 431.766 552.178 424.992 536.315C423.705 536.453 422.399 536.529 421.076 536.529Z" fill="#232323"/>
<path d="M558.122 440.767C559.421 458.132 558.605 475.643 555.795 492.405H602.862C606.199 481.185 608 469.304 608 457C608 444.696 606.199 432.815 602.862 421.596H574.305C572.088 430.156 566.046 437.188 558.122 440.767V440.767Z" fill="#232323"/>
<path d="M409.448 465.681C408.861 450.819 409.817 435.925 412.219 421.596H365.138C361.801 432.815 360 444.696 360 457C360 469.304 361.801 481.185 365.138 492.405H385.531C388.259 479.872 397.462 469.737 409.448 465.681V465.681Z" fill="#232323"/>
<path d="M546.076 385.334C546.127 385.334 546.177 385.33 546.228 385.33C559.71 385.33 571.072 394.579 574.305 407.064H597.525C582.582 373.141 552.884 347.187 516.555 337.328C519.348 340.236 522.03 343.324 524.593 346.596C533.308 357.723 540.517 370.736 546.076 385.334V385.334Z" fill="#232323"/>
<path d="M491.266 333V407.064H518.15C520.14 399.381 525.212 392.93 531.957 389.099C524.786 370.791 512.369 347.421 491.266 333V333Z" fill="#232323"/>
<path d="M423.952 380.252C431.011 363.379 440.303 348.928 451.449 337.326C415.119 347.185 385.419 373.139 370.475 407.064H415.201C417.484 397.716 420.41 388.717 423.952 380.252V380.252Z" fill="#232323"/>
<path d="M1442 540.925C1447.52 540.925 1452 536.448 1452 530.926C1452 525.403 1447.52 520.927 1442 520.927C1436.48 520.927 1432 525.403 1432 530.926C1432 536.448 1436.48 540.925 1442 540.925Z" fill="#D5DBD5"/>
<path d="M1469.9 396.238H1414.1C1410.98 396.238 1408.43 398.664 1408.43 401.641V507.106C1408.43 510.085 1410.97 512.508 1414.1 512.508H1469.9C1473.02 512.508 1475.57 510.082 1475.57 507.106V401.641C1475.57 398.662 1473.02 396.238 1469.9 396.238Z" fill="#D5DBD5"/>
<path d="M1442 338C1371.31 338 1314 395.311 1314 465.997C1314 536.684 1371.31 594 1442 594C1512.69 594 1570 536.688 1570 465.997C1570 395.307 1512.69 338 1442 338ZM1491.8 529.165C1491.8 538.942 1483.87 546.87 1474.09 546.87H1409.91C1400.13 546.87 1392.2 538.943 1392.2 529.165V402.276C1392.2 392.498 1400.13 384.57 1409.91 384.57H1474.09C1483.87 384.57 1491.8 392.497 1491.8 402.276V529.165Z" fill="#D5DBD5"/>
<path d="M441.357 645.64C438.647 645.64 436.205 645.256 434.029 644.488C431.874 643.72 430.167 642.6 428.909 641.128C427.671 639.635 427.053 637.821 427.053 635.688V634.696H432.525V635.4C432.525 637.128 433.325 638.451 434.925 639.368C436.525 640.264 438.711 640.712 441.485 640.712C444.023 640.712 446.146 640.328 447.853 639.56C449.559 638.792 450.413 637.597 450.413 635.976C450.413 634.205 449.581 632.947 447.917 632.2C446.274 631.432 443.81 630.771 440.525 630.216C438.221 629.811 436.087 629.235 434.125 628.488C432.162 627.741 430.573 626.707 429.357 625.384C428.162 624.061 427.565 622.333 427.565 620.2C427.565 618.131 428.173 616.381 429.389 614.952C430.626 613.501 432.29 612.403 434.381 611.656C436.471 610.888 438.797 610.504 441.357 610.504C443.831 610.504 446.114 610.899 448.205 611.688C450.295 612.477 451.97 613.629 453.229 615.144C454.509 616.637 455.149 618.483 455.149 620.68V621.32H449.709V620.84C449.709 619.603 449.314 618.589 448.525 617.8C447.735 616.989 446.711 616.392 445.453 616.008C444.194 615.603 442.85 615.4 441.421 615.4C440.077 615.4 438.754 615.549 437.453 615.848C436.151 616.125 435.074 616.595 434.221 617.256C433.367 617.917 432.941 618.824 432.941 619.976C432.941 621.704 433.826 622.941 435.597 623.688C437.367 624.435 439.735 625.085 442.701 625.64C445.069 626.067 447.245 626.643 449.229 627.368C451.213 628.093 452.802 629.117 453.997 630.44C455.191 631.741 455.789 633.491 455.789 635.688C455.789 637.885 455.127 639.731 453.805 641.224C452.503 642.696 450.754 643.805 448.557 644.552C446.381 645.277 443.981 645.64 441.357 645.64ZM467.28 603.208C466.277 603.208 465.402 602.931 464.656 602.376C463.93 601.8 463.568 601.021 463.568 600.04C463.568 599.08 463.93 598.323 464.656 597.768C465.402 597.192 466.277 596.904 467.28 596.904C468.282 596.904 469.146 597.192 469.872 597.768C470.597 598.323 470.96 599.08 470.96 600.04C470.96 601.021 470.597 601.8 469.872 602.376C469.146 602.931 468.282 603.208 467.28 603.208ZM464.56 645V611.016H469.936V645H464.56ZM493.492 645.512C492.106 645.512 490.762 645.299 489.46 644.872C488.18 644.424 487.135 643.592 486.324 642.376C485.514 641.139 485.108 639.336 485.108 636.968V615.816H476.82V611.016H482.132C483.114 611.016 483.807 610.963 484.212 610.856C484.618 610.728 484.863 610.419 484.948 609.928C485.055 609.416 485.108 608.595 485.108 607.464V599.752H490.58V611.016H501.204V615.816H490.58V634.92C490.58 636.733 490.794 638.152 491.22 639.176C491.668 640.2 492.66 640.712 494.196 640.712C494.815 640.712 495.402 640.659 495.956 640.552C496.511 640.445 496.927 640.339 497.204 640.232V644.968C496.842 645.096 496.33 645.213 495.668 645.32C495.028 645.448 494.303 645.512 493.492 645.512ZM539.436 634.312C539.287 636.125 538.572 637.907 537.292 639.656C536.034 641.384 534.22 642.824 531.852 643.976C529.484 645.107 526.572 645.672 523.116 645.672C519.703 645.672 516.695 644.925 514.092 643.432C511.49 641.939 509.442 639.869 507.948 637.224C506.476 634.579 505.74 631.539 505.74 628.104C505.74 624.627 506.487 621.576 507.98 618.952C509.474 616.307 511.532 614.237 514.156 612.744C516.78 611.251 519.778 610.504 523.148 610.504C526.583 610.504 529.559 611.251 532.076 612.744C534.594 614.237 536.535 616.285 537.9 618.888C539.266 621.469 539.948 624.413 539.948 627.72C539.948 628.061 539.938 628.509 539.916 629.064C539.895 629.619 539.863 629.992 539.82 630.184H511.148C511.554 633.469 512.823 636.04 514.956 637.896C517.09 639.752 519.863 640.68 523.276 640.68C525.687 640.68 527.66 640.36 529.196 639.72C530.732 639.059 531.884 638.237 532.652 637.256C533.442 636.275 533.89 635.293 533.996 634.312H539.436ZM523.212 615.432C520.034 615.432 517.367 616.317 515.212 618.088C513.058 619.837 511.735 622.248 511.244 625.32H534.092C533.9 622.589 532.887 620.264 531.052 618.344C529.218 616.403 526.604 615.432 523.212 615.432Z" fill="#232323"/>
<path d="M1397.83 660.64C1393.95 660.64 1390.83 659.744 1388.49 657.952C1386.14 656.139 1384.97 653.632 1384.97 650.432C1384.97 647.104 1386.24 644.597 1388.77 642.912C1391.31 641.205 1394.67 640.149 1398.85 639.744C1403.04 639.317 1406.01 638.901 1407.78 638.496C1409.55 638.069 1410.44 637.387 1410.44 636.448V636.352C1410.44 634.389 1409.64 632.928 1408.04 631.968C1406.44 630.987 1404.12 630.496 1401.09 630.496C1397.94 630.496 1395.48 631.051 1393.73 632.16C1391.99 633.248 1391.11 635.019 1391.11 637.472H1385.73C1385.73 634.933 1386.39 632.779 1387.69 631.008C1388.99 629.216 1390.79 627.851 1393.09 626.912C1395.42 625.973 1398.1 625.504 1401.13 625.504C1403.9 625.504 1406.4 625.931 1408.61 626.784C1410.85 627.616 1412.63 628.864 1413.93 630.528C1415.25 632.171 1415.91 634.208 1415.91 636.64V653.6C1415.91 654.347 1415.94 655.072 1416.01 655.776C1416.07 656.48 1416.18 657.099 1416.33 657.632C1416.52 658.272 1416.73 658.795 1416.97 659.2C1417.2 659.584 1417.39 659.851 1417.54 660H1412.07C1411.75 659.68 1411.39 658.965 1410.98 657.856C1410.81 657.387 1410.68 656.757 1410.6 655.968C1409.43 657.376 1407.75 658.507 1405.57 659.36C1403.4 660.213 1400.82 660.64 1397.83 660.64ZM1398.69 655.744C1400.89 655.744 1402.88 655.413 1404.65 654.752C1406.42 654.069 1407.83 653.067 1408.87 651.744C1409.92 650.421 1410.44 648.779 1410.44 646.816V642.528C1409.07 642.955 1407.49 643.307 1405.7 643.584C1403.91 643.84 1402.07 644.053 1400.17 644.224C1396.95 644.523 1394.51 645.088 1392.87 645.92C1391.25 646.752 1390.44 648.149 1390.44 650.112C1390.44 653.867 1393.19 655.744 1398.69 655.744ZM1424.96 673.984V626.016H1430.4V630.304C1431.81 628.789 1433.48 627.616 1435.42 626.784C1437.39 625.931 1439.43 625.504 1441.57 625.504C1444.32 625.504 1446.86 626.187 1449.18 627.552C1451.51 628.896 1453.37 630.869 1454.78 633.472C1456.19 636.075 1456.89 639.243 1456.89 642.976C1456.89 646.773 1456.2 649.995 1454.81 652.64C1453.43 655.264 1451.57 657.259 1449.25 658.624C1446.92 659.968 1444.36 660.64 1441.57 660.64C1439.43 660.64 1437.39 660.203 1435.42 659.328C1433.48 658.453 1431.81 657.248 1430.4 655.712V673.984H1424.96ZM1430.43 645.504C1430.43 647.339 1430.91 649.013 1431.87 650.528C1432.85 652.043 1434.13 653.248 1435.71 654.144C1437.29 655.04 1438.99 655.488 1440.8 655.488C1443.81 655.488 1446.3 654.464 1448.29 652.416C1450.29 650.347 1451.29 647.2 1451.29 642.976C1451.29 638.731 1450.3 635.595 1448.32 633.568C1446.33 631.52 1443.83 630.496 1440.8 630.496C1438.99 630.496 1437.29 630.944 1435.71 631.84C1434.13 632.715 1432.85 633.899 1431.87 635.392C1430.91 636.885 1430.43 638.56 1430.43 640.416H1430.4V645.216H1430.43V645.504ZM1465.4 673.984V626.016H1470.84V630.304C1472.24 628.789 1473.92 627.616 1475.86 626.784C1477.82 625.931 1479.87 625.504 1482 625.504C1484.76 625.504 1487.29 626.187 1489.62 627.552C1491.95 628.896 1493.81 630.869 1495.22 633.472C1496.63 636.075 1497.33 639.243 1497.33 642.976C1497.33 646.773 1496.64 649.995 1495.25 652.64C1493.87 655.264 1492.01 657.259 1489.68 658.624C1487.36 659.968 1484.8 660.64 1482 660.64C1479.87 660.64 1477.82 660.203 1475.86 659.328C1473.92 658.453 1472.24 657.248 1470.84 655.712V673.984H1465.4ZM1470.87 645.504C1470.87 647.339 1471.35 649.013 1472.31 650.528C1473.29 652.043 1474.57 653.248 1476.15 654.144C1477.73 655.04 1479.42 655.488 1481.24 655.488C1484.24 655.488 1486.74 654.464 1488.72 652.416C1490.73 650.347 1491.73 647.2 1491.73 642.976C1491.73 638.731 1490.74 635.595 1488.76 633.568C1486.77 631.52 1484.27 630.496 1481.24 630.496C1479.42 630.496 1477.73 630.944 1476.15 631.84C1474.57 632.715 1473.29 633.899 1472.31 635.392C1471.35 636.885 1470.87 638.56 1470.87 640.416H1470.84V645.216H1470.87V645.504Z" fill="#D5DBD5"/>
<path d="M618 704C629.667 703 647.759 761 679 761C707 761 699 743 738 750C738 750 769 765 780 797C792.028 831.99 765.037 857.796 792 880C809 894 821.667 926.667 823 933M823 933L841 867M823 933L761 925M1309 743C1286 772 1277.83 757.326 1253 772C1231 785 1240 822 1227 829C1193.77 846.891 1170 824 1146 837C1122 850 1098 897 1090 925M1074 874L1082 933L1146 925" stroke="#232323" stroke-width="15" stroke-linecap="round" stroke-linejoin="round"/>
</g>
<defs>
<filter id="filter0_d" x="69" y="134" width="746" height="746" filterUnits="userSpaceOnUse" color-interpolation-filters="sRGB">
<feFlood flood-opacity="0" result="BackgroundImageFix"/>
<feColorMatrix in="SourceAlpha" type="matrix" values="0 0 0 0 0 0 0 0 0 0 0 0 0 0 0 0 0 0 127 0"/>
<feOffset dx="42" dy="60"/>
<feGaussianBlur stdDeviation="42.5"/>
<feColorMatrix type="matrix" values="0 0 0 0 0 0 0 0 0 0 0 0 0 0 0 0 0 0 0.25 0"/>
<feBlend mode="normal" in2="BackgroundImageFix" result="effect1_dropShadow"/>
<feBlend mode="normal" in="SourceGraphic" in2="effect1_dropShadow" result="shape"/>
</filter>
<filter id="filter1_d" x="1072" y="128" width="814" height="814" filterUnits="userSpaceOnUse" color-interpolation-filters="sRGB">
<feFlood flood-opacity="0" result="BackgroundImageFix"/>
<feColorMatrix in="SourceAlpha" type="matrix" values="0 0 0 0 0 0 0 0 0 0 0 0 0 0 0 0 0 0 127 0"/>
<feMorphology radius="35" operator="dilate" in="SourceAlpha" result="effect1_dropShadow"/>
<feOffset dx="-33" dy="28"/>
<feGaussianBlur stdDeviation="46"/>
<feColorMatrix type="matrix" values="0 0 0 0 0 0 0 0 0 0 0 0 0 0 0 0 0 0 0.25 0"/>
<feBlend mode="normal" in2="BackgroundImageFix" result="effect1_dropShadow"/>
<feBlend mode="normal" in="SourceGraphic" in2="effect1_dropShadow" result="shape"/>
</filter>
<clipPath id="clip0">
<rect width="1920" height="1080" fill="white"/>
</clipPath>
</defs>
</svg>
