<svg width="40" height="40" viewBox="0 0 40 40" fill="none" xmlns="http://www.w3.org/2000/svg">
<path d="M32.1304 35.5509L3.78236 7.20294C3.11895 6.53953 3.22518 5.35775 4.01965 4.56328C4.81413 3.76881 5.9959 3.66257 6.65932 4.32599L35.0073 32.674C35.6707 33.3374 35.5645 34.5192 34.77 35.3136C33.9755 36.1081 32.7938 36.2143 32.1304 35.5509Z" fill="#232323"/>
<path d="M35.0073 7.20294L6.65932 35.5509C5.9959 36.2143 4.81412 36.1081 4.01965 35.3136C3.22518 34.5192 3.11895 33.3374 3.78236 32.674L32.1304 4.32598C32.7938 3.66257 33.9755 3.7688 34.77 4.56327C35.5645 5.35775 35.6707 6.53952 35.0073 7.20294Z" fill="#232323"/>
</svg>
