<svg width="488" height="94" viewBox="0 0 488 94" fill="none" xmlns="http://www.w3.org/2000/svg">
<path d="M13.6483 63.0838C14.418 63.1537 15.4326 63.2237 16.6922 63.2937C17.9518 63.2937 19.6662 63.2937 21.8354 63.2937C30.7224 63.2937 37.3351 61.0545 41.6736 56.576C46.0821 52.0276 48.2863 45.6947 48.2863 37.5775C48.2863 29.3204 46.1521 22.9876 41.8835 18.5791C37.615 14.1706 31.0023 11.9664 22.0454 11.9664C18.1267 11.9664 15.3277 12.0713 13.6483 12.2813V63.0838ZM62.1416 37.5775C62.1416 43.8754 61.1619 49.3685 59.2026 54.0569C57.2433 58.6753 54.4442 62.5589 50.8055 65.7079C47.2367 68.7868 42.8982 71.096 37.79 72.6355C32.7517 74.105 27.1536 74.8397 20.9957 74.8397C18.0567 74.8397 14.7329 74.6998 11.0242 74.4199C7.31544 74.2099 3.78166 73.7201 0.422816 72.9504V2.30968C3.78166 1.53995 7.35043 1.05012 11.1291 0.840187C14.9078 0.630258 18.2667 0.525293 21.2057 0.525293C27.2936 0.525293 32.8567 1.26004 37.8949 2.72954C42.9332 4.12905 47.2367 6.36828 50.8055 9.44723C54.4442 12.4562 57.2433 16.3049 59.2026 20.9933C61.1619 25.6117 62.1416 31.1398 62.1416 37.5775ZM125.601 46.4995C125.601 50.838 124.971 54.7916 123.712 58.3604C122.452 61.9292 120.668 64.9731 118.359 67.4922C116.05 70.0114 113.25 71.9707 109.962 73.3702C106.743 74.7697 103.174 75.4695 99.2553 75.4695C95.3367 75.4695 91.7679 74.7697 88.549 73.3702C85.3301 71.9707 82.5661 70.0114 80.2569 67.4922C77.9476 64.9731 76.1283 61.9292 74.7987 58.3604C73.5392 54.7916 72.9094 50.838 72.9094 46.4995C72.9094 42.161 73.5392 38.2423 74.7987 34.7435C76.1283 31.1747 77.9476 28.1308 80.2569 25.6117C82.636 23.0925 85.4351 21.1682 88.654 19.8386C91.8729 18.4391 95.4066 17.7394 99.2553 17.7394C103.104 17.7394 106.638 18.4391 109.857 19.8386C113.146 21.1682 115.945 23.0925 118.254 25.6117C120.563 28.1308 122.347 31.1747 123.607 34.7435C124.936 38.2423 125.601 42.161 125.601 46.4995ZM112.586 46.4995C112.586 41.0413 111.396 36.7378 109.017 33.5889C106.708 30.37 103.454 28.7606 99.2553 28.7606C95.0568 28.7606 91.7679 30.37 89.3887 33.5889C87.0795 36.7378 85.9249 41.0413 85.9249 46.4995C85.9249 52.0276 87.0795 56.4011 89.3887 59.62C91.7679 62.8388 95.0568 64.4483 99.2553 64.4483C103.454 64.4483 106.708 62.8388 109.017 59.62C111.396 56.4011 112.586 52.0276 112.586 46.4995ZM148.657 45.1349C148.657 50.5231 149.812 54.4767 152.121 56.9959C154.5 59.445 157.544 60.6696 161.253 60.6696C163.282 60.6696 165.172 60.3897 166.921 59.8299C168.74 59.2701 170.21 58.6053 171.329 57.8356V29.3904C170.42 29.1804 169.3 29.0055 167.971 28.8655C166.641 28.6556 164.962 28.5506 162.932 28.5506C158.314 28.5506 154.78 30.0901 152.331 33.1691C149.882 36.178 148.657 40.1666 148.657 45.1349ZM184.03 68.4369C184.03 77.1839 181.791 83.5867 177.312 87.6453C172.904 91.7039 166.116 93.7332 156.949 93.7332C153.591 93.7332 150.302 93.4533 147.083 92.8935C143.934 92.3337 141.065 91.5989 138.476 90.6893L140.785 79.878C142.954 80.7877 145.403 81.5224 148.132 82.0822C150.931 82.642 153.94 82.9219 157.159 82.9219C162.268 82.9219 165.906 81.8723 168.076 79.773C170.245 77.6737 171.329 74.5598 171.329 70.4312V68.332C170.07 68.9617 168.39 69.5915 166.291 70.2213C164.262 70.8511 161.918 71.166 159.259 71.166C155.76 71.166 152.541 70.6062 149.602 69.4866C146.733 68.3669 144.249 66.7225 142.149 64.5533C140.12 62.384 138.511 59.6899 137.321 56.471C136.201 53.1822 135.642 49.4035 135.642 45.1349C135.642 41.1463 136.236 37.4726 137.426 34.1137C138.686 30.7549 140.47 27.8859 142.779 25.5067C145.158 23.1275 148.027 21.2732 151.386 19.9436C154.745 18.6141 158.559 17.9493 162.827 17.9493C166.956 17.9493 170.875 18.2642 174.583 18.894C178.292 19.5238 181.441 20.1885 184.03 20.8883V68.4369ZM199.558 4.61889L212.259 2.51961V19.1039H231.782V29.7052H212.259V52.0626C212.259 56.471 212.959 59.62 214.358 61.5093C215.758 63.3986 218.137 64.3433 221.496 64.3433C223.805 64.3433 225.834 64.0984 227.583 63.6086C229.403 63.1187 230.837 62.6639 231.887 62.244L233.986 72.3206C232.517 72.9504 230.592 73.5801 228.213 74.2099C225.834 74.9097 223.035 75.2596 219.816 75.2596C215.897 75.2596 212.609 74.7347 209.95 73.6851C207.36 72.6355 205.296 71.131 203.757 69.1717C202.217 67.1424 201.133 64.7282 200.503 61.9292C199.873 59.0601 199.558 55.8063 199.558 52.1675V4.61889ZM240.093 46.8144C240.093 41.986 240.793 37.7525 242.192 34.1137C243.662 30.475 245.586 27.466 247.965 25.0868C250.344 22.6377 253.074 20.8183 256.153 19.6287C259.231 18.3692 262.38 17.7394 265.599 17.7394C273.157 17.7394 279.035 20.0836 283.233 24.7719C287.502 29.4603 289.636 36.4579 289.636 45.7647C289.636 46.4645 289.601 47.2692 289.531 48.1789C289.531 49.0186 289.496 49.7883 289.426 50.4881H253.214C253.563 54.8966 255.103 58.3254 257.832 60.7746C260.631 63.1537 264.655 64.3433 269.903 64.3433C272.982 64.3433 275.781 64.0634 278.3 63.5036C280.889 62.9438 282.918 62.349 284.388 61.7192L286.067 72.1107C285.367 72.4605 284.388 72.8454 283.128 73.2653C281.939 73.6151 280.539 73.93 278.93 74.2099C277.39 74.5598 275.711 74.8397 273.891 75.0496C272.072 75.2596 270.218 75.3645 268.328 75.3645C263.5 75.3645 259.301 74.6648 255.733 73.2653C252.164 71.7958 249.225 69.8014 246.916 67.2823C244.606 64.6932 242.892 61.6842 241.772 58.2554C240.653 54.7566 240.093 50.9429 240.093 46.8144ZM276.935 41.1463C276.935 39.3969 276.69 37.7525 276.201 36.213C275.711 34.6036 274.976 33.239 273.996 32.1194C273.087 30.9298 271.932 30.0201 270.533 29.3904C269.203 28.6906 267.594 28.3407 265.704 28.3407C263.745 28.3407 262.03 28.7256 260.561 29.4953C259.091 30.1951 257.832 31.1398 256.782 32.3293C255.803 33.5189 255.033 34.8835 254.473 36.4229C253.913 37.9624 253.528 39.5369 253.318 41.1463H276.935ZM334.381 30.545C333.331 30.1951 331.862 29.8452 329.972 29.4953C328.153 29.0755 326.019 28.8655 323.57 28.8655C322.17 28.8655 320.666 29.0055 319.056 29.2854C317.517 29.5653 316.432 29.8102 315.802 30.0201V74H303.102V21.728C305.551 20.8183 308.595 19.9786 312.234 19.2089C315.942 18.3692 320.036 17.9493 324.514 17.9493C325.354 17.9493 326.334 18.0193 327.453 18.1592C328.573 18.2292 329.693 18.3692 330.812 18.5791C331.932 18.719 333.016 18.929 334.066 19.2089C335.116 19.4188 335.955 19.6287 336.585 19.8386L334.381 30.545ZM342.392 46.8144C342.392 41.986 343.092 37.7525 344.491 34.1137C345.961 30.475 347.885 27.466 350.264 25.0868C352.643 22.6377 355.372 20.8183 358.451 19.6287C361.53 18.3692 364.679 17.7394 367.898 17.7394C375.455 17.7394 381.333 20.0836 385.532 24.7719C389.8 29.4603 391.935 36.4579 391.935 45.7647C391.935 46.4645 391.9 47.2692 391.83 48.1789C391.83 49.0186 391.795 49.7883 391.725 50.4881H355.512C355.862 54.8966 357.402 58.3254 360.131 60.7746C362.93 63.1537 366.953 64.3433 372.202 64.3433C375.28 64.3433 378.079 64.0634 380.599 63.5036C383.188 62.9438 385.217 62.349 386.687 61.7192L388.366 72.1107C387.666 72.4605 386.687 72.8454 385.427 73.2653C384.237 73.6151 382.838 73.93 381.228 74.2099C379.689 74.5598 378.01 74.8397 376.19 75.0496C374.371 75.2596 372.516 75.3645 370.627 75.3645C365.799 75.3645 361.6 74.6648 358.031 73.2653C354.463 71.7958 351.524 69.8014 349.214 67.2823C346.905 64.6932 345.191 61.6842 344.071 58.2554C342.952 54.7566 342.392 50.9429 342.392 46.8144ZM379.234 41.1463C379.234 39.3969 378.989 37.7525 378.499 36.213C378.01 34.6036 377.275 33.239 376.295 32.1194C375.385 30.9298 374.231 30.0201 372.831 29.3904C371.502 28.6906 369.892 28.3407 368.003 28.3407C366.044 28.3407 364.329 28.7256 362.86 29.4953C361.39 30.1951 360.131 31.1398 359.081 32.3293C358.101 33.5189 357.332 34.8835 356.772 36.4229C356.212 37.9624 355.827 39.5369 355.617 41.1463H379.234ZM419.151 64.8681C422.51 64.8681 424.959 64.4833 426.498 63.7135C428.038 62.8738 428.807 61.4743 428.807 59.515C428.807 57.6956 427.968 56.1911 426.288 55.0015C424.679 53.8119 421.985 52.5174 418.206 51.1179C415.897 50.2782 413.763 49.4035 411.803 48.4938C409.914 47.5141 408.269 46.3945 406.87 45.1349C405.47 43.8754 404.351 42.3709 403.511 40.6215C402.741 38.8021 402.357 36.5979 402.357 34.0088C402.357 28.9705 404.211 25.0169 407.92 22.1479C411.628 19.2089 416.667 17.7394 423.034 17.7394C426.253 17.7394 429.332 18.0543 432.271 18.684C435.21 19.2438 437.414 19.8037 438.884 20.3635L436.575 30.6499C435.175 30.0201 433.391 29.4603 431.222 28.9705C429.052 28.4107 426.533 28.1308 423.664 28.1308C421.075 28.1308 418.976 28.5856 417.366 29.4953C415.757 30.335 414.952 31.6646 414.952 33.4839C414.952 34.3936 415.092 35.1984 415.372 35.8981C415.722 36.5979 416.282 37.2626 417.051 37.8924C417.821 38.4522 418.836 39.047 420.095 39.6768C421.355 40.2366 422.894 40.8314 424.714 41.4612C427.723 42.5808 430.277 43.7004 432.376 44.82C434.475 45.8697 436.19 47.0943 437.519 48.4938C438.919 49.8233 439.934 51.3628 440.563 53.1122C441.193 54.8616 441.508 56.9609 441.508 59.41C441.508 64.6582 439.549 68.6468 435.63 71.3759C431.781 74.035 426.253 75.3645 419.046 75.3645C414.217 75.3645 410.334 74.9447 407.395 74.105C404.456 73.3352 402.391 72.7054 401.202 72.2156L403.406 61.6143C405.295 62.384 407.535 63.1187 410.124 63.8185C412.783 64.5183 415.792 64.8681 419.151 64.8681ZM452.742 4.61889L465.443 2.51961V19.1039H484.966V29.7052H465.443V52.0626C465.443 56.471 466.143 59.62 467.542 61.5093C468.942 63.3986 471.321 64.3433 474.68 64.3433C476.989 64.3433 479.018 64.0984 480.768 63.6086C482.587 63.1187 484.022 62.6639 485.071 62.244L487.171 72.3206C485.701 72.9504 483.777 73.5801 481.398 74.2099C479.018 74.9097 476.219 75.2596 473 75.2596C469.082 75.2596 465.793 74.7347 463.134 73.6851C460.545 72.6355 458.48 71.131 456.941 69.1717C455.402 67.1424 454.317 64.7282 453.687 61.9292C453.057 59.0601 452.742 55.8063 452.742 52.1675V4.61889Z" fill="#D5DBD5"/>
</svg>
