<svg width="138" height="138" viewBox="0 0 138 138" fill="none" xmlns="http://www.w3.org/2000/svg">
<path d="M69 2.875C30.8775 2.875 0 33.235 0 70.679C0 100.642 19.7685 126.052 47.1787 135.01C50.6287 135.648 51.8937 133.55 51.8937 131.75C51.8937 130.14 51.8363 125.873 51.8075 120.221C32.614 124.309 28.566 111.125 28.566 111.125C25.4265 103.299 20.8897 101.206 20.8897 101.206C14.6395 97.0025 21.3727 97.0888 21.3727 97.0888C28.3015 97.5603 31.9412 104.075 31.9412 104.075C38.0938 114.442 48.093 111.447 52.0375 109.716C52.6585 105.329 54.4353 102.344 56.4075 100.648C41.0838 98.9518 24.978 93.1213 24.978 67.1428C24.978 59.7425 27.6518 53.6935 32.0793 48.9498C31.303 47.2363 28.9743 40.342 32.683 31.004C32.683 31.004 38.4618 29.187 51.658 37.9558C57.178 36.4493 63.043 35.7018 68.908 35.6673C74.773 35.7018 80.638 36.4493 86.158 37.9558C99.268 29.187 105.047 31.004 105.047 31.004C108.755 40.342 106.427 47.2363 105.737 48.9498C110.135 53.6935 112.809 59.7425 112.809 67.1428C112.809 93.1903 96.6805 98.923 81.328 100.591C83.743 102.626 85.9855 106.783 85.9855 113.137C85.9855 122.211 85.8993 129.502 85.8993 131.704C85.8993 133.481 87.1068 135.602 90.643 134.924C118.249 126.023 138 100.596 138 70.679C138 33.235 107.105 2.875 69 2.875Z" fill="#D5DBD5"/>
</svg>
