<svg width="371" height="294" viewBox="0 0 371 294" fill="none" xmlns="http://www.w3.org/2000/svg">
<path fill-rule="evenodd" clip-rule="evenodd" d="M41.8533 198.442C36.1802 198.442 29.4459 199.642 22.0902 208.153V184.334C22.0902 178.317 17.1964 173.422 11.1803 173.422C5.16413 173.422 0.270374 178.317 0.270374 184.334V262.012C0.270374 268.029 5.16413 272.923 11.1803 272.923C17.1964 272.923 22.0902 268.029 22.0902 262.012V231.863C22.0902 223.196 26.2049 218.41 33.7007 218.41C41.0414 218.41 44.9074 223.056 44.9074 231.863V262.012C44.9074 268.029 49.8004 272.923 55.8183 272.923C61.8337 272.923 66.7268 268.029 66.7268 262.012V225.534C66.7121 208.574 57.4224 198.442 41.8533 198.442ZM104.509 198.972C95.6252 198.972 88.5803 200.125 81.6748 202.713C78.09 204.054 75.6912 207.514 75.6912 211.318C75.6912 216.4 79.7283 220.375 84.8855 220.375C85.9467 220.375 86.8344 220.219 88.0497 219.814C92.2433 218.504 96.6693 217.881 101.609 217.881C113.329 217.881 115.823 224.35 115.855 229.822C111.786 228.497 106.658 227.281 99.5059 227.281C80.8654 227.281 70.1722 235.807 70.1722 250.695V250.96C70.1722 264.412 80.2737 273.454 95.2975 273.454C103.761 273.454 110.541 270.882 115.948 265.613C116.867 269.463 120.562 272.939 126.235 272.939C132.204 272.939 136.88 268.325 136.88 262.433V230.274C136.88 220.157 134.231 212.362 128.979 207.125C123.555 201.715 115.324 198.972 104.509 198.972ZM101.345 257.819C95.1581 257.819 91.3239 254.888 91.3239 250.165V249.9C91.3239 244.272 96.0311 241.061 104.245 241.061C108.451 241.061 112.644 241.887 116.119 243.384V246.361C116.119 253.095 110.043 257.819 101.345 257.819ZM166.118 208.341C171.759 201.685 178.711 198.442 187.314 198.442C203.727 198.442 220.325 211.272 220.325 235.808V236.073C220.325 247.375 216.85 256.946 210.287 263.774C204.287 270.025 196.136 273.454 187.314 273.454C178.821 273.454 172.072 270.555 166.228 264.382V283.088C166.228 289.105 161.333 294 155.317 294C149.302 294 144.406 289.105 144.406 283.088V209.884C144.406 203.867 149.302 198.972 155.317 198.972C160.819 198.972 165.37 203.057 166.118 208.341ZM198.521 235.808C198.521 225.224 191.493 217.226 182.171 217.226C172.789 217.226 165.961 225.036 165.961 235.808V236.073C165.961 246.845 172.774 254.655 182.171 254.655C191.647 254.655 198.521 246.845 198.521 236.073V235.808ZM268.268 198.442C259.663 198.442 252.713 201.685 247.069 208.341C246.321 203.057 241.77 198.972 236.268 198.972C230.253 198.972 225.36 203.867 225.36 209.884V283.088C225.36 289.105 230.253 294 236.268 294C242.286 294 247.179 289.105 247.179 283.088V264.382C253.024 270.555 259.773 273.454 268.268 273.454C277.088 273.454 285.24 270.025 291.241 263.774C297.802 256.946 301.276 247.375 301.276 236.073V235.808C301.276 211.272 284.678 198.442 268.268 198.442ZM263.123 217.226C272.444 217.226 279.472 225.224 279.472 235.808V236.073C279.472 246.845 272.601 254.655 263.123 254.655C253.725 254.655 246.915 246.845 246.915 236.073V235.808C246.915 225.036 253.74 217.226 263.123 217.226ZM349.952 207.203C351.977 201.809 355.594 198.972 360.408 198.972C366.223 198.972 370.789 203.415 370.774 209.058C370.774 210.695 370.243 213.064 369.776 214.155L345.167 273.267C338.98 288.247 332.527 293.563 320.511 293.563C316.271 293.563 313.014 293.002 309.273 291.662C306.7 290.726 302.369 288.294 302.369 282.527C302.369 276.852 306.842 273.47 311.158 273.47C312.872 273.47 313.901 273.766 314.728 274.046C316.427 274.576 317.362 274.795 318.655 274.795C321.929 274.795 323.301 274.265 324.952 271.1L325.451 269.915L301.511 214.436C300.966 213.064 300.389 210.944 300.389 209.463C300.389 203.477 305.018 198.956 311.158 198.956C316.225 198.956 319.653 201.606 321.616 207.063L336.034 245.831L349.952 207.203Z" fill="white"/>
<path d="M269.565 46.6369V110.397C269.565 135.704 248.926 156.221 223.47 156.221H218.808L194.999 179.874C194.067 180.801 192.777 181.388 191.347 181.388C190.026 181.388 188.83 180.909 187.913 180.106L187.509 179.704L187.493 179.689L163.886 156.221H159.209C133.768 156.221 113.13 135.704 113.13 110.397V46.6369C113.13 21.3303 133.768 0.813232 159.224 0.813232H223.47C248.926 0.813232 269.565 21.3303 269.565 46.6369Z" fill="#EAD257"/>
<path d="M149.552 89.1414C145.014 89.1414 142.428 94.2819 145.061 97.9939C155.299 112.453 172.227 121.88 191.355 121.88C210.482 121.88 227.396 112.437 237.633 97.9939C240.266 94.2819 237.679 89.1414 233.141 89.1414H149.552Z" fill="white"/>
<path d="M176.13 67.2596H148.747V53.5305C148.747 45.9514 154.881 39.8014 162.439 39.8014C169.997 39.8014 176.13 45.9514 176.13 53.5305V67.2596Z" fill="white"/>
<path d="M233.963 67.2596H206.58V53.5305C206.58 45.9514 212.714 39.8014 220.272 39.8014C227.83 39.8014 233.963 45.9514 233.963 53.5305V67.2596Z" fill="white"/>
</svg>
