<svg width="138" height="138" viewBox="0 0 138 138" fill="none" xmlns="http://www.w3.org/2000/svg">
<g clip-path="url(#clip0)">
<path d="M137.865 40.5724C137.542 33.2399 136.356 28.1989 134.657 23.8308C132.905 19.1942 130.209 15.043 126.677 11.5921C123.226 8.08752 119.048 5.3643 114.465 3.63938C110.072 1.94079 105.057 0.755045 97.7244 0.431755C90.3372 0.0810857 87.992 0 69.2559 0C50.5198 0 48.1747 0.0810857 40.8148 0.404376C33.4823 0.727666 28.4413 1.91447 24.0743 3.612C19.4366 5.3643 15.2854 8.06014 11.8345 11.5921C8.32995 15.043 5.60778 19.2215 3.88181 23.8045C2.18323 28.1989 0.997477 33.2125 0.674187 40.545C0.323517 47.9322 0.242432 50.2774 0.242432 69.0135C0.242432 87.7495 0.323517 90.0947 0.646807 97.4546C0.970098 104.787 2.1569 109.828 3.85549 114.196C5.60778 118.833 8.32995 122.984 11.8345 126.435C15.2854 129.939 19.464 132.663 24.0469 134.388C28.4413 136.086 33.455 137.272 40.7885 137.595C48.1473 137.92 50.4935 138 69.2296 138C87.9657 138 90.3108 137.92 97.6707 137.595C105.003 137.272 110.044 136.086 114.411 134.388C123.686 130.802 131.018 123.469 134.604 114.196C136.301 109.802 137.488 104.787 137.811 97.4546C138.135 90.0947 138.216 87.7495 138.216 69.0135C138.216 50.2774 138.188 47.9322 137.865 40.5724ZM125.438 96.9154C125.141 103.655 124.009 107.294 123.065 109.721C120.746 115.733 115.975 120.504 109.963 122.823C107.537 123.766 103.871 124.898 97.1578 125.194C89.8791 125.519 87.6961 125.599 69.2833 125.599C50.8705 125.599 48.6601 125.519 41.4077 125.194C34.6681 124.898 31.0287 123.766 28.6024 122.823C25.6107 121.717 22.8875 119.965 20.6771 117.673C18.3856 115.436 16.6333 112.74 15.5276 109.748C14.5841 107.322 13.452 103.655 13.1561 96.9428C12.8318 89.664 12.7518 87.48 12.7518 69.0672C12.7518 50.6544 12.8318 48.444 13.1561 41.1926C13.452 34.453 14.5841 30.8136 15.5276 28.3874C16.6333 25.3946 18.3856 22.6724 20.7045 20.461C22.9412 18.1695 25.637 16.4172 28.6298 15.3126C31.0561 14.369 34.7228 13.237 41.4351 12.94C48.7138 12.6167 50.8979 12.5357 69.3096 12.5357C87.7498 12.5357 89.9328 12.6167 97.1852 12.94C103.925 13.237 107.564 14.369 109.99 15.3126C112.982 16.4172 115.705 18.1695 117.916 20.461C120.207 22.6988 121.96 25.3946 123.065 28.3874C124.009 30.8136 125.141 34.4794 125.438 41.1926C125.761 48.4714 125.842 50.6544 125.842 69.0672C125.842 87.48 125.761 89.6366 125.438 96.9154Z" fill="#D5DBD5"/>
<path d="M69.2559 33.5632C49.6848 33.5632 33.8057 49.4413 33.8057 69.0135C33.8057 88.5857 49.6848 104.464 69.2559 104.464C88.8282 104.464 104.706 88.5857 104.706 69.0135C104.706 49.4413 88.8282 33.5632 69.2559 33.5632ZM69.2559 92.0092C56.5592 92.0092 46.2602 81.7113 46.2602 69.0135C46.2602 56.3157 56.5592 46.0178 69.2559 46.0178C81.9538 46.0178 92.2517 56.3157 92.2517 69.0135C92.2517 81.7113 81.9538 92.0092 69.2559 92.0092Z" fill="#D5DBD5"/>
<path d="M114.385 32.1615C114.385 36.7318 110.679 40.4375 106.108 40.4375C101.538 40.4375 97.832 36.7318 97.832 32.1615C97.832 27.5902 101.538 23.8855 106.108 23.8855C110.679 23.8855 114.385 27.5902 114.385 32.1615Z" fill="#D5DBD5"/>
</g>
<defs>
<clipPath id="clip0">
<rect width="138" height="138" fill="white"/>
</clipPath>
</defs>
</svg>
