<svg width="136" height="136" viewBox="0 0 136 136" fill="none" xmlns="http://www.w3.org/2000/svg">
<path d="M111.675 133.672C82.5876 136.776 53.4124 136.776 24.3254 133.672C12.7272 132.434 3.56622 123.273 2.32837 111.674C-0.776123 82.5865 -0.776123 53.4124 2.32837 24.3254C3.56622 12.7272 12.7272 3.56622 24.3254 2.32837C53.4124 -0.776123 82.5865 -0.776123 111.674 2.32837C123.273 3.56622 132.434 12.7272 133.672 24.3254C136.776 53.4124 136.776 82.5865 133.672 111.674C132.434 123.273 123.274 132.434 111.675 133.672Z" fill="url(#paint0_linear)"/>
<path d="M26.9229 54.3213H44.9314V110.15H26.9229V54.3213Z" fill="#232323"/>
<path d="M92.7838 53.1199C79.5865 53.1199 73.7895 60.4547 72.3306 62.6876V54.3214H55.7363V110.15H73.7459V82.1072C73.7459 74.0036 77.4761 67.7002 84.5515 67.7002C91.6258 67.7002 92.7838 75.5465 92.7838 85.1951V110.15H110.793V71.1295C110.793 61.183 102.73 53.1199 92.7838 53.1199Z" fill="#232323"/>
<path d="M46.6459 36.5701C46.6459 42.4906 41.847 47.2895 35.9265 47.2895C30.006 47.2895 25.2061 42.4906 25.2061 36.5701C25.2061 30.6495 30.006 25.8496 35.9265 25.8496C41.847 25.8496 46.6459 30.6495 46.6459 36.5701Z" fill="#232323"/>
<defs>
<linearGradient id="paint0_linear" x1="45.1547" y1="19.1213" x2="79.5529" y2="92.7177" gradientUnits="userSpaceOnUse">
<stop stop-color="#D5DBD5"/>
<stop offset="1" stop-color="#D5DBD5"/>
</linearGradient>
</defs>
</svg>
