<svg width="117" height="116" viewBox="0 0 117 116" fill="none" xmlns="http://www.w3.org/2000/svg">
<g clip-path="url(#clip0)">
<path d="M0 115.056C0.0551096 112.524 0.230022 110.022 0.443272 107.53C0.540313 106.281 0.675691 105.047 0.795494 103.799C0.853 103.177 0.93207 102.56 1.00036 101.94L1.21121 100.084C1.81023 95.1407 2.5566 90.2356 3.39403 85.3517C4.23145 80.4679 5.19108 75.6136 6.22738 70.7806C7.26368 65.9475 8.40061 61.1323 9.61662 56.3454C10.8326 51.5585 12.1325 46.7846 13.515 42.0367L14.0386 40.2558L14.5741 38.482C14.9263 37.2995 15.3001 36.117 15.6643 34.9344C15.8464 34.3432 16.0393 33.7519 16.225 33.1606C16.4107 32.5694 16.5964 31.9781 16.7952 31.3868L17.9657 27.8581C19.5495 23.1647 21.2268 18.4878 23.0574 13.8487L23.7534 12.1115C23.993 11.5333 24.2135 10.9527 24.4579 10.3768C24.9371 9.22379 25.4163 8.06727 25.9231 6.92022C26.921 4.62137 27.9597 2.33199 29.111 0.0709839L29.6921 0.215253L26.195 14.6232L22.6368 29.0158L21.7479 32.6143L20.8458 36.2092L19.0404 43.3943L15.4271 57.7739L11.7623 72.1452L9.9305 79.3291L9.01281 82.9204L8.08313 86.5082L4.36324 100.865L0.582245 115.202L0 115.056Z" fill="#3F8D1A"/>
<path d="M58.1981 115.152L54.4123 100.813L50.6984 86.4609L49.7687 82.872L48.851 79.2806L47.018 72.0979L43.3521 57.7313L39.74 43.3517L37.9334 36.1619L37.0324 32.5658L36.1423 28.9674L32.5841 14.5748L29.0871 0.166768L29.6681 0.0236816C30.823 2.2835 31.8593 4.57289 32.8573 6.87173C33.3652 8.01997 33.8373 9.17531 34.3213 10.3283C34.5669 10.9042 34.7921 11.4848 35.0257 12.0642L35.723 13.8014C37.5524 18.4405 39.2272 23.1174 40.8182 27.8144L41.9875 31.3443C42.1864 31.9355 42.3685 32.5268 42.5578 33.1121C42.747 33.6975 42.9363 34.2947 43.1184 34.8859C43.4778 36.0685 43.8564 37.251 44.2086 38.4335L44.7442 40.2073L45.2653 41.9871C46.6518 46.7361 47.9513 51.5057 49.1637 56.2957C50.3761 61.0858 51.5059 65.8971 52.5529 70.7297C53.5928 75.5639 54.5537 80.417 55.3863 85.3021C56.2189 90.1871 56.9725 95.0923 57.5679 100.038L57.78 101.894C57.8483 102.514 57.9273 103.13 57.9836 103.752C58.1034 104.995 58.24 106.235 58.343 107.483C58.5563 109.976 58.7312 112.478 58.7851 115.01L58.1981 115.152Z" fill="#3F8D1A"/>
<path d="M58.2221 115.032C58.276 112.5 58.4509 109.998 58.6642 107.505C58.7612 106.258 58.8966 105.022 59.0236 103.776C59.0799 103.152 59.1589 102.536 59.2272 101.917L59.4393 100.06C60.0383 95.1171 60.7847 90.2119 61.6221 85.328C62.4595 80.4442 63.4192 75.5899 64.4555 70.7557C65.4917 65.9215 66.6275 61.111 67.8447 56.3217C69.0619 51.5324 70.3606 46.7609 71.7431 42.013L72.263 40.2322L72.7986 38.4584C73.1508 37.2758 73.5234 36.0933 73.8888 34.9108C74.0709 34.3195 74.2626 33.7282 74.4494 33.137C74.6363 32.5457 74.8208 31.9544 75.0197 31.3691L76.189 27.8404C77.774 23.141 79.4512 18.4641 81.2794 13.8309L81.9755 12.0938C82.2091 11.5143 82.4343 10.9349 82.6799 10.359C83.1592 9.20603 83.6384 8.04951 84.1439 6.90245C85.1419 4.60361 86.1806 2.31304 87.3331 0.0532227L87.9142 0.196309L84.4171 14.5984L80.8589 28.9922L79.9688 32.5894L79.0679 36.1808L77.2612 43.3706L73.6492 57.7502L69.9868 72.1215L68.1538 79.3042L67.2313 82.8908L66.3016 86.4798L62.5877 100.832L58.8031 115.174L58.2221 115.032Z" fill="#3F8D1A"/>
<path d="M116.419 115.128L112.637 100.79L108.923 86.4384L107.993 82.8506L107.075 79.2593L105.242 72.0754L101.574 57.7029L97.9608 43.3268L96.1542 36.137L95.2521 32.5421L94.3631 28.9437L90.805 14.5511L87.3091 0.143086L87.8902 0C89.0487 2.25864 90.0862 4.54802 91.0865 6.84687C91.5957 7.99274 92.0665 9.14926 92.5529 10.3022C92.7997 10.8781 93.0237 11.4587 93.2585 12.037L93.9558 13.7741C95.7876 18.412 97.4624 23.089 99.0522 27.7872C100.642 32.4854 102.11 37.2143 103.496 41.9622C104.882 46.7101 106.176 51.4816 107.385 56.2708C108.593 61.0601 109.723 65.8742 110.763 70.7084L111.152 72.5212L111.526 74.3376C111.78 75.5473 112.014 76.763 112.256 77.9751C112.376 78.5817 112.488 79.1907 112.604 79.7985C112.721 80.4063 112.844 81.013 112.945 81.6232L113.594 85.2807C114.433 90.1646 115.18 95.0697 115.777 100.013L115.99 101.869C116.061 102.488 116.137 103.105 116.195 103.727C116.315 104.97 116.452 106.21 116.554 107.458C116.769 109.95 116.946 112.451 117.005 114.981L116.419 115.128Z" fill="#3F8D1A"/>
<path d="M29.099 115.032L32.5961 100.629L36.1531 86.2351L37.0408 82.6331L37.9429 79.037L39.7484 71.8472L43.364 57.4664L47.03 43.0998L48.8618 35.9171L49.7807 32.3257L50.7104 28.7379L54.4243 14.3843L58.2101 0.0473022L58.7911 0.190389C58.7336 2.72219 58.5515 5.22325 58.3407 7.71485C58.2424 8.9636 58.1082 10.1982 57.9812 11.4457C57.9237 12.0666 57.8459 12.6839 57.7764 13.3035L57.5631 15.1601C56.9641 20.1031 56.2153 25.007 55.3791 29.8921L54.7298 33.5497C54.6256 34.1598 54.5034 34.7665 54.3895 35.3743C54.2757 35.9821 54.1619 36.5899 54.0409 37.1966C53.8013 38.4099 53.5617 39.6255 53.3125 40.8352L52.9375 42.6516L52.5494 44.4644C51.5111 49.2971 50.3845 54.1092 49.1697 58.9008C47.9549 63.6924 46.659 68.462 45.2821 73.2095C43.9008 77.9609 42.432 82.6898 40.8422 87.3845C39.2524 92.0791 37.5775 96.762 35.7469 101.401L35.0497 103.138C34.8101 103.716 34.5896 104.297 34.344 104.873C33.8576 106.025 33.3856 107.181 32.8764 108.328C31.8773 110.627 30.8398 112.917 29.6801 115.175L29.099 115.032Z" fill="#3F8D1A"/>
<path d="M87.2972 115.128C86.1375 112.868 85.1 110.579 84.1008 108.281C83.5905 107.134 83.1196 105.977 82.6332 104.825C82.3936 104.249 82.1624 103.668 81.9276 103.09L81.2303 101.354C79.3997 96.7147 77.7237 92.0378 76.1351 87.3396C74.5465 82.6414 73.0765 77.9136 71.6904 73.1645C70.3043 68.4155 69.0116 63.6451 67.8028 58.8559C66.594 54.0666 65.463 49.2525 64.4231 44.4183L64.035 42.6055L63.66 40.7927C63.406 39.583 63.1724 38.3673 62.9304 37.1552C62.8106 36.5486 62.6991 35.9396 62.5817 35.3318C62.4643 34.7239 62.3421 34.1173 62.2427 33.5071L61.5922 29.8495C60.7535 24.9657 60.0072 20.0605 59.4093 15.1175L59.1961 13.261C59.1266 12.6425 59.0487 12.0252 58.9912 11.4032C58.8714 10.1604 58.7337 8.91988 58.6318 7.67349C58.4174 5.18072 58.2401 2.67966 58.1826 0.149038L58.7636 0.00595093L62.547 14.3383L66.2729 28.6907L67.1966 32.2785L68.1155 35.8686L69.9473 43.0525L73.612 57.4191L77.2253 71.7987L79.0319 78.9885L79.9341 82.5834L80.823 86.1819L84.3812 100.574L87.8782 114.982L87.2972 115.128Z" fill="#3F8D1A"/>
</g>
<defs>
<clipPath id="clip0">
<rect width="117" height="115.2" fill="white"/>
</clipPath>
</defs>
</svg>
