<svg width="60" height="60" viewBox="0 0 60 60" fill="none" xmlns="http://www.w3.org/2000/svg">
<path d="M27.6563 2.34375L27.6562 57.6562C27.6562 58.9507 28.7055 60 30 60C31.2945 60 32.3438 58.9507 32.3438 57.6562V2.34375C32.3438 1.0493 31.2945 0 30 0C28.7055 0 27.6563 1.0493 27.6563 2.34375Z" fill="#D5DBD5"/>
<path d="M8.90625 12.4844L8.90625 47.5156C8.90625 48.3354 9.95555 49 11.25 49C12.5445 49 13.5938 48.3354 13.5938 47.5156L13.5938 12.4844C13.5938 11.6646 12.5445 11 11.25 11C9.95555 11 8.90625 11.6646 8.90625 12.4844Z" fill="#D5DBD5"/>
<path d="M46.4062 12.4844V47.5156C46.4062 48.3354 47.4555 49 48.75 49C50.0445 49 51.0938 48.3354 51.0938 47.5156V12.4844C51.0938 11.6646 50.0445 11 48.75 11C47.4555 11 46.4062 11.6646 46.4062 12.4844Z" fill="#D5DBD5"/>
</svg>
